<mxfile host="app.diagrams.net" agent="Mozilla/5.0 (Windows NT 10.0; Win64; x64) AppleWebKit/537.36 (KHTML, like Gecko) Chrome/133.0.0.0 Safari/537.36" version="26.0.12">
  <diagram name="Page-1" id="1DoohQs8iuLQkNqfSUVT">
    <mxGraphModel dx="1909" dy="1013" grid="0" gridSize="10" guides="1" tooltips="1" connect="1" arrows="1" fold="1" page="1" pageScale="1" pageWidth="850" pageHeight="1100" math="0" shadow="0">
      <root>
        <mxCell id="0" />
        <mxCell id="1" parent="0" />
        <mxCell id="yrRpt_WWClIDVjYxCRZ3-1" value="&lt;div class=&quot;O0&quot; style=&quot;language:en-US;line-height:normal;margin-top:0pt;&#xa;margin-bottom:0pt;margin-left:0in;margin-right:0in;text-indent:0in;text-align:&#xa;left;direction:ltr;unicode-bidi:embed;vertical-align:baseline;mso-line-break-override:&#xa;restrictions;word-break:normal;punctuation-wrap:simple&quot;&gt;&lt;span style=&quot;font-size:&#xa;18.0pt&quot;&gt;&lt;span style=&quot;mso-special-format:bullet&quot;&gt;•&lt;/span&gt;&lt;/span&gt;&lt;span style=&quot;font-size:18.0pt;font-family:Arial;mso-ascii-font-family:Arial;&#xa;mso-fareast-font-family:+mn-ea;mso-bidi-font-family:+mn-cs;mso-fareast-theme-font:&#xa;minor-fareast;mso-bidi-theme-font:minor-bidi;font-variant:normal;color:black;&#xa;mso-color-index:1;text-transform:none;mso-font-kerning:12.0pt;language:en-US;&#xa;font-weight:bold;font-style:normal;vertical-align:baseline;mso-text-raise:0%;&#xa;mso-style-textoutline-type:none;mso-style-textfill-type:solid;mso-style-textfill-fill-themecolor:&#xa;text1;mso-style-textfill-fill-color:black;mso-style-textfill-fill-alpha:100.0%&quot;&gt;Flexible&#xa;&amp;amp; Customizable Packages&lt;/span&gt;&lt;span style=&quot;font-size:18.0pt;font-family:&#xa;Arial;mso-ascii-font-family:Arial;mso-fareast-font-family:+mn-ea;mso-bidi-font-family:&#xa;+mn-cs;mso-fareast-theme-font:minor-fareast;mso-bidi-theme-font:minor-bidi;&#xa;font-variant:normal;color:black;mso-color-index:1;text-transform:none;&#xa;mso-font-kerning:12.0pt;language:en-US;font-weight:normal;font-style:normal;&#xa;vertical-align:baseline;mso-text-raise:0%;mso-style-textoutline-type:none;&#xa;mso-style-textfill-type:solid;mso-style-textfill-fill-themecolor:text1;&#xa;mso-style-textfill-fill-color:black;mso-style-textfill-fill-alpha:100.0%&quot;&gt; –&#xa;Users can personalize vehicles, accommodation, and food.&lt;/span&gt;&lt;/div&gt;&#xa;&#xa;&lt;div class=&quot;O0&quot; style=&quot;language:en-US;line-height:normal;margin-top:0pt;&#xa;margin-bottom:0pt;margin-left:0in;margin-right:0in;text-indent:0in;text-align:&#xa;left;direction:ltr;unicode-bidi:embed;vertical-align:baseline;mso-line-break-override:&#xa;restrictions;word-break:normal;punctuation-wrap:simple&quot;&gt;&lt;span style=&quot;font-size:&#xa;18.0pt&quot;&gt;&lt;span style=&quot;mso-special-format:bullet&quot;&gt;•&lt;/span&gt;&lt;/span&gt;&lt;span style=&quot;font-size:18.0pt;font-family:Arial;mso-ascii-font-family:Arial;&#xa;mso-fareast-font-family:+mn-ea;mso-bidi-font-family:+mn-cs;mso-fareast-theme-font:&#xa;minor-fareast;mso-bidi-theme-font:minor-bidi;font-variant:normal;color:black;&#xa;mso-color-index:1;text-transform:none;mso-font-kerning:12.0pt;language:en-US;&#xa;font-weight:bold;font-style:normal;vertical-align:baseline;mso-text-raise:0%;&#xa;mso-style-textoutline-type:none;mso-style-textfill-type:solid;mso-style-textfill-fill-themecolor:&#xa;text1;mso-style-textfill-fill-color:black;mso-style-textfill-fill-alpha:100.0%&quot;&gt;Seamless&#xa;Booking Flow&lt;/span&gt;&lt;span style=&quot;font-size:18.0pt;font-family:Arial;mso-ascii-font-family:&#xa;Arial;mso-fareast-font-family:+mn-ea;mso-bidi-font-family:+mn-cs;mso-fareast-theme-font:&#xa;minor-fareast;mso-bidi-theme-font:minor-bidi;font-variant:normal;color:black;&#xa;mso-color-index:1;text-transform:none;mso-font-kerning:12.0pt;language:en-US;&#xa;font-weight:normal;font-style:normal;vertical-align:baseline;mso-text-raise:&#xa;0%;mso-style-textoutline-type:none;mso-style-textfill-type:solid;mso-style-textfill-fill-themecolor:&#xa;text1;mso-style-textfill-fill-color:black;mso-style-textfill-fill-alpha:100.0%&quot;&gt;&#xa;– Simple UI with direct selections, reducing confusion.&lt;/span&gt;&lt;/div&gt;&#xa;&#xa;&lt;div class=&quot;O0&quot; style=&quot;language:en-US;line-height:normal;margin-top:0pt;&#xa;margin-bottom:0pt;margin-left:0in;margin-right:0in;text-indent:0in;text-align:&#xa;left;direction:ltr;unicode-bidi:embed;vertical-align:baseline;mso-line-break-override:&#xa;restrictions;word-break:normal;punctuation-wrap:simple&quot;&gt;&lt;span style=&quot;font-size:&#xa;18.0pt&quot;&gt;&lt;span style=&quot;mso-special-format:bullet&quot;&gt;•&lt;/span&gt;&lt;/span&gt;&lt;span style=&quot;font-size:18.0pt;font-family:Arial;mso-ascii-font-family:Arial;&#xa;mso-fareast-font-family:+mn-ea;mso-bidi-font-family:+mn-cs;mso-fareast-theme-font:&#xa;minor-fareast;mso-bidi-theme-font:minor-bidi;font-variant:normal;color:black;&#xa;mso-color-index:1;text-transform:none;mso-font-kerning:12.0pt;language:en-US;&#xa;font-weight:bold;font-style:normal;vertical-align:baseline;mso-text-raise:0%;&#xa;mso-style-textoutline-type:none;mso-style-textfill-type:solid;mso-style-textfill-fill-themecolor:&#xa;text1;mso-style-textfill-fill-color:black;mso-style-textfill-fill-alpha:100.0%&quot;&gt;Transparent&#xa;Pricing&lt;/span&gt;&lt;span style=&quot;font-size:18.0pt;font-family:Arial;mso-ascii-font-family:&#xa;Arial;mso-fareast-font-family:+mn-ea;mso-bidi-font-family:+mn-cs;mso-fareast-theme-font:&#xa;minor-fareast;mso-bidi-theme-font:minor-bidi;font-variant:normal;color:black;&#xa;mso-color-index:1;text-transform:none;mso-font-kerning:12.0pt;language:en-US;&#xa;font-weight:normal;font-style:normal;vertical-align:baseline;mso-text-raise:&#xa;0%;mso-style-textoutline-type:none;mso-style-textfill-type:solid;mso-style-textfill-fill-themecolor:&#xa;text1;mso-style-textfill-fill-color:black;mso-style-textfill-fill-alpha:100.0%&quot;&gt;&#xa;– No hidden charges, clear cost breakdown for every selection. &lt;/span&gt;&lt;/div&gt;" style="text;whiteSpace=wrap;html=1;" vertex="1" parent="1">
          <mxGeometry x="351.2500305175781" y="406.75001525878906" width="550" height="406" as="geometry" />
        </mxCell>
        <mxCell id="yrRpt_WWClIDVjYxCRZ3-2" value="" style="shape=image;verticalLabelPosition=bottom;labelBackgroundColor=default;verticalAlign=top;aspect=fixed;imageAspect=0;image=data:image/png,iVBORw0KGgoAAAANSUhEUgAABJsAAARsCAMAAAAOvmeOAAAAAXNSR0IArs4c6QAAAARnQU1BAACxjwv8YQUAAAMAUExURRcXFxYWFhUVFRQUFBsbGx0dHRkZGRMTExISEhgYGBoaGh4eHh8fHxAQEDIyMllZWYCAgJmZmaOjo6SkpJ+fn5qampiYmJaWlpWVlZSUlJOTk5GRkY6Ojo2NjYuLi4yMjJCQkIiIiHBwcE1NTS8vLzQ0NFNTU3Jycn19fWxsbElJSSoqKhwcHCYmJjs7O1RUVGtra3l5eYWFhYeHh4mJiYaGhoGBgXp6enFxcWRkZFZWVkdHRzg4OCsrKyEhIT8/P2VlZU5OTiUlJUVFRWhoaISEhExMTGdnZ52dnaampqWlpaKiopubm5KSkoODg3d3d1VVVURERDY2NigoKAYGBqysrO/v7/////7+/v39/fz8/OLi4q+vr3Nzcz09PQ8PDzk5OcbGxu7u7vT09LW1tXh4eEFBQREREQwMDD4+PrGxsdXV1ejo6PLy8vb29vn5+fv7+/X19fDw8Onp6eHh4dbW1szMzL6+voKCgltbWzc3NyAgICkpKU9PT8jIyOPj40JCQtDQ0Ofn57m5uSMjIywsLFdXV/r6+vPz8+rq6t/f38fHx7Kysnt7e7CwsNnZ2d7e3t3d3dzc3Ovr6+Tk5GNjYw4ODuXl5eDg4AgICFFRUfHx8djY2KCgoDU1NaurqyQkJNra2re3t3x8fCIiIg0NDff397q6ui4uLkZGRnR0dF9fX0pKSlBQUGZmZl1dXTMzM9vb256engkJCZycnFJSUlpaWl5eXqqqqs/Pz+zs7MDAwH9/f0NDQ29vb0tLS2FhYcnJydfX1zw8PDAwMG5ubr29vQoKCgcHB6mpqb+/v8PDw3Z2dmJiYi0tLYqKipeXl6GhobOzszo6Oo+Pj0hISGpqanV1dQsLC6ioqGBgYM3NzcTExLu7u7y8vMHBwbS0tKenp7i4uCcnJ9HR0crKysvLy9LS0jExMUBAQLa2tvj4+K2trVhYWObm5q6ursLCwu3t7dTU1NPT08XFxc7Ozm1tbVxcXH5+fmlpaQICAgQEBAUFBQAAAAMDAwEBAQlJVEkAAAAJcEhZcwAAFxEAABcRAcom8z8AAPyZSURBVHhe7J0HQBRX/sd3ZmBndpcBFXtXwEaxVzooSlEEwpkCLOSAWSB3yV0UlBYI5RLBGt1Eooi4G0ABUaQFEZEmRRQQXKT3chgIxXKX3P//ZlkVSxILIpD3SWH2vZk3M7957zu/9+YVBgQCgUAgEAgEAoFAIBAIBAKBQCAQCAQCgUAgEAgEAoFAIBAIBAKBQCAQCAQCgUAgEAgEAoFAIBAIBAKBQCAQCAQCgUAgEAgEAoFAIBAIBAKBQCAQCAQCgUAgEAgEAoFAIJDfAUExAPoCEESyy1CC0Ei2B0MHPz7vi3d5BcRJPJ/GbwS/BuBiabNJLDdUqUIgkMeAQiUlLS3FpMstXeKeZqhLnKREP1uSH+sjOD/4F8NwnCBw7PVPj6I4OJzBkvyUgCDi0wzBTYGLZLA5MjIyHCnWowt+k+uFQCBPgZKIrNy48RPkJ06aPGXqtOkzZs6aPUfMrFlz581XUJRmDGF5QzBcRmnBwkWLlyirsAYliyJSqmpLly0ft2LlqtmzV61es3bd+g3qGppaTBR7jbMDkdXS1lmzaqGuMvJEBRGgV3r6GzfNm2+gKfWMZr0iQMG1tDfP3jLB0NDIeKLJlK1ztplu3m5mbkFbC8oTBDIEEO8xNlj+Zcdj3v/gww8/eF/y44OPrKxtpLi4ZN83BkFJwnaR3cd//cjewVGaeix6GI/htNzZ5ZO//f1TcPL3P/js03/88/Odu1zdjHbvcfdAMcluLwvQW0+v2d5//+wLEwMOcMUeBaOYis88308/+9Jvkbo/8Zzr9vJgJCsgcLrrPyRmovnXV1/vdQkKnjJf3YKBAhmEQCBvBsZDtPftdz1w8NDhg198848PQDF7/+8ff3nkyCfffPzPz10nHVVicoknlTvgkYDNgeqXpGyLQwYVRrrl5VGxH7Q3vTuC8gmfqd+CU3xnHOjBxx8dhR9jhBgfoYv4p99//cnn33z8/V8/HdDHr46fWG/uwZI4T3Ryg0/9mMcR4gvB+IzQjYaHd+z4+8nAMBAzEA9qc6i0+txTO3Z8En5aX0DgdDLidAZd8GPEYQOAVJ85IS5kOjnYf0Ff7z+//Gjv3p1ffPnxD+Lr/exIxOqQAAYBaniggidBcqw4pUemeILk2p8Lf7T/0xEDl/Pc/o/2fT4VCGS0gjCkBJG2jlFmjmZLzxgdB+Vrp/2ms9HqujEbzsbGnlsS56/C0fL315Jm0m1CKEOKoxWmp6eqJ+CwQYkAhzNVOBwp5uMCAf6ymCxxFCgvLCkZgR4gzAPU4UDpEZI2Mw8BL+P8hQ2DtSme4XXx8Kc7dnzvtzzBICZhaWBi0uKVySk/gqv5OPVSGpsETg44nMHm0KkNnPrxCQcitECEv4wUC0QMaNN5kJzhAq2BwsqWlqaPYWl6Wc+ed1khkgOuhsECl0mXZwmPCzV9oeAn2AJ/UbaMvz+4erDzY3A+U83a6uCOHT+kXLy8VF1/SbpuwpVFEzK+/HDHjg+vTokRMPVkMzPjPAUcGS2BFjiz+CoRloqHPzCFFt1CJTkXOBVC35QquHgPaSb9UxwOIsBFA8PTttOi75eOoKOZKjIC8AAkyYh3lxiA3ndwMAQy2kFxiiRJLo+PZmXnAMfp+IWkAG587jWVmK12uzKspsyaJh8cnrfGQItkejomnZ6aHJ6fWuDmPN40JEsFYahGF06ZuOq6mpa4LR1hhDklLV9jvVRWmoGqFJkdXbNlv19+qlu40Y3NUQEqCJfw2fodKNO7JifIcB83JQFtMrh5/O9AiIqjsVy+kM/l8hGL9BV2wBn57PykGGkujqNsC6fE0xeDQWIlF9acKxUMFEAURKiWblg+KdgtNd/eeMVZNQED5zHcl+UBv+mfxroqBEEwVc2yb90E1UMV3D8tds3KMwmKKirKZjrLTc/6ZGkqlpql6yrolyqGiZvAQEFneQSolS1NKr+8+KxC1ILbW8LDL843s2A+afnCuKzQ2AlAx/9RsK1MwBVxgQEpNOB6xUfAfD9W3MlM33eycleV4azZF0uqk7ctVZRGUU6A2dFtE51rUiOsJpsuDRWwgBQiKIujqGA9xSqiNrWmzmjubTknTw7dYoUiKqpqG85srbfPyU9tSJ5+ZoG7PxvoksA8ZP5M+bqInPz86v0XNh1N0+QwMIRtkSm3fGpeeHV+vlvDyZtr5TIbVWC1EjJWoL+T4f5n6/61Y8fBvPJQjMflK+5rAn7L+59+CryBHTuaTTNLY7e0/Ph38S/AZ39xKU4K8Ehb2fzZhz/sOrE+CyMJihmZeLP1r3//pnZ1epv2uoqUr3941Hb16TdN9dkaBGk2BdSF/tE6LUaGP0ibkOitrV/t2PG3k3s8ZfxVA0LbDY7OKznw/Qc73v8y4rQji4dxbC7Xt37yj4HU3v/hYMcag0YMB26NSuliY9cjf5Wc5t873WYnhOWitpc7gVvzlxPpDC5L+e70yu//9eHXnXfCUJs1zd9/9WXVvDL3o8Gf/PX7jyprwlObDh756ch3BwourCtTZhEYQzNkd1flzm/++de//+OfX3730Y/An/uhaauuDPW4hQojGUWB03w/2PFpyrS7mjgf6B/FFcpsOPEduIxv5O/ELG/4CVzMhz/8G/wG+wRmeZrdrmj9UWKMD/96Ku+ykz+DRDyc5udd/QuwuZjP/vpJy/jr7h4owQlN2tp95KvHEX/7zm9cmb/qkkt1B36W1HZ37Pjg75+7Tj4XwI68Ozf14N8+k4SCVI7kr9RtZGGv2kwHgYxMgL9ACJJKQHHY2ZntjgkpVGPFVXFm//BvR3oKurYtCFnVC9yCr/Zm2OcZJje0/mXHjq+N5RRt1vaBfd4/sDUN6FmuR8K0lL8Ch6V6XvZpwwNg908/2WVXk99y6C9A0j7tW2QTVjYNaNNfm6Z5DdamXKTsVv8/Qbk6UHdxklFwQdPhL/8JJAGUv73G5zSZOGpb6PclKH2ffd5TUOu6E5xhxxf1OkocCtNYt/8g8K4+/Lqnqrvl4Peg3H5rtVjJ33ad884dO36+oNtYejn5EF3GP6/dFiUjtWTaXpDK4S0LMrOrHpfmD//9b3r7g69L7rWxLGLmVH0Ofr3/j49//MvfH+nA5yfPqtINVAPXixJIWNkK7892fHiwc6GPqpZqo2dR6dLTncfBlXzae0MhfVvQx+Ijf/jkVH/JJrl2hbX2P4GAv3/hW9Xd/xFwEP91SP66Jq55x/j4P4CgftljV2Dn+9334IivUmaEWFgsmFsJ7vH9jw9VdqcGufwEDvh7r/zyy7eCaEfy66t2EeE1Qad+BrsfTL4duPHiKfpU37Z2N/i5tewFEv/Z1QvnNEk+dJ0gYwJam/zF2rT35DJzTEgwMleKten77nlyaqocLVmdrr/s+GDXpDsa/gyZrKVbe0EJa5kdXZQ+/SooMX+zOuePc7lKi1r+DQpb3+n7u11pRfii7sF2bdlQ9djJrmCnn2sfqOvO/ehF2qR/I+NnuiH+ad7/2HuOrgyup3DDDhTcfxyXX5ap5+kut7UfaMnfgh44+dvsc/sb0IND9YttLDyzQmbREf/OWO6UaV0HTvPPjtlbC34GovDV+ZLTUR444pE+/TwoxsfHe7lvrgYHAv5+qGH66eWznK8CAfi65nR0zA0XEPrvq8mnzy3dYyrfBIo64OPgWE30cX8GFEc4Tqe7wR39dW+B5YUtxfJd+a3ffkXL0Y8543ws0jZlAKHd8dddE5ZpKwuYyueMDwGr/MV7ynptC1WfdXnHgfCcv6Cjnjjd5f0dH/7UsGhJgKdF3J5pruAmP0u9dN0h+ThQ5h8zJj+MMndXW7A758f3wXVGVHQcAvE7/WbrqJfapj08cfXfn31SNXnfCudPwG0c6Bon51OqEb287pNPP/u8plCJz3v0gRICGdU80aZD9RtDB7SJbhl//+oKd66QpDAts+Wdla4nHyTdvbN57eScveCF/69TE5KK/JfcaAFO0XGTRGWpotjOr0Gh6p61/uFE+jPWv/e6nZgOmGpSRwvYvw6Z3F0wFzg0f22a/pQ2iZC01X3fgBrc9ztdmlL6+/sr+5uOf/Txv3e8/68j4dbt0bcO03Edi7MYOEXGM6KnuYCzf2OyIGYGvfF9eLa5NEpx49ll8/rA+T+ZkrBkX8MX4KI++5R2iP61t2u+LZOgCERLrE3/PmUSYrsxh/a+3v+qeWUak8I8YiZ9ByIOdl06nQxK+o/dq9MFFMljajvY76Q19m8d5UWg2vtYm1BpNYf8Adl6wmd/OVVza08kH/dZ2QxU5v3+WTGeeC6hp3uLrv4dPHlPg0WRXMwjelbKBzu+9827NbXhyx07PqrYaC7FJ/mkluM6o8qPXOrXmha7gGv74MugkyZTt07fOr7L9XNwDd/kTB7v9gm4qb9/c9jOasq2FVMsa+purku3CZzTAq7k/a++dMmvv7XpxpaS6q6tG7W1cAL6TZAxwVPapPREmz7LcCjK5SMIjgt8ssdH7Pry+x8eV4b+dShvsyJXaqk8EIR/fTfeqzTW6qN/7Xg/40H6EtM6umL0NB9+3HwjJmEr7Tf5btXlDGoLFyHt4/JBOf1XwSUD96zIrKy2NvP2wNWptPfxz/2Xy+s/Bn8zVqmzgZ5hPEJ2s+Ep4EnkxT7sAhrwae9MMwZIDCPRRt05lWBP+fV3t0V88fgyfzglfzSAInHgN0WLten8xO02i2uBo7TjK+85IRYUn8uKmkFHHKmVN+oDSfbOUrBgETiFS7nPD6d7f30V/gJtAgLy4VefHOrxdfWuyvdzlp9buMFdCyFEaNo8Wps+qzUt5ZDx0voPIsCtHZFPUpTCQb2QIGQXVv8TnKuvyyoD3NfxaQngXBiCoFKKMZcvmSZ5PTT87jkX8oNPz0/USd8zrr7lyFcDkR/8/Yi3vGlMpLS/7ZVZdT2f07cD+PBvh92mLFZXZsP2JsgYYZA2VTyk/SZEbTWtTf/KcIgUcXGcWXS/+BAoFZ/97adTvkER4UHfgu2DeeVtuceKNicfBO/z3i1zw38EgXtNdBtDF9oDvfrgr58f7mlq7e1tauo59OVf9tqfNgtQuAkO/CplxmBtwniI01o/EP6vVNNMGYJPERQp/M8xtbnnQTXpg9pxpl1ApD7xW6vN4mMo8EQ0bneAnf9WsTE7GOjDV97bnDAQQQhRxSsXwDX/eDHRa1z1kQ92fPj5rpRd3wLP6usOayctgovJLNkKJOjTQ8VyjvMLQDVrxzcnj8pyMIJgq4sre190G1YEgbrerulLA9gETuCoxR3Lb8B+/6zb+JQ2IdKZa1OBJ/ij3fSjPqGykcoWYR5SLLoLFdBORKJNBcszOdxjMl4zvYEEHbzp5Y8QOIYRmLlD6l93/HAo4uKWGiDgRzqzM6UpgsBVlJKmu7Xamdxenvwd0NXPPv5uV2tra29ra8/xnZ/v9J50PVRFRdNpw+XV45MbglyOfA8e1QefV81c4MnyUDQ7d3vOxK6a5gOf/BU8iR++CLeO4wqh3wQZEwBtwv3P2oMML/5OJ6QQ29V0e5NYm/hCblFsxaHPdrx/wKhQLkpJMc7rRuX7Oz747uTDSF48FpYwfu/7Oz77699AaX3/uIlcAFt1jxGoGn32ec3uBBsnJ+20kDPyKUfO+21SkI2Z/BOQlcpbCk9rk1oh3UD0WcE+bRlKSKAMpodF+5kOWha+2n9voyEo3D8cMFnqwac7GDRe7/waiNZ305feOQk04MO9WxJkuFwQpXcnbye4hJ1zytpNG0Cd8p9dD9O8tnUD/Xr/SN4VTQRTKZtxCmjTwQmJaQuraG36aeJSVRZOYByFm3uB3/Td/m3jLMGFf185w8tDKMzl6une8AaH7/im66gn9qQtHEe00sb1/Quc2nJxKMqnJUfcj4qOx3joQJ3us25TNQ6ZK+VoWgeU9MeItT5aXKFQKFV67ySo1n6Tvyrp+tae93f866eOwkw295owa3En8Jfez5g7Tt4FVNL+3jLj+pJ2Gydtg40zck4dzriwWCFk3VR5k0UL2rRklLXl1nQdAPf6acvsK3cemMhPXVimyfHIilp/qwa4rkCefXjHYHsTZEyAgFe+5mY/8NY9b7Q5DqW/022itenvVbcjeUIRX8nUDSjFh8279S30AqKXd54SF9mCOSGeLG6u//bJvgNNyzu+ybvrQVF46baUT0HxPJx8OyTNqezKbqvzwBX4ss46ajutTd83z0kfrE1CxHbh/u/e3/HhAcvV1suWrTN9sHLy/sovQQrvf2cZq6G/2hcUww/PW+6TK0sLWbw1HyTx4SH5c7KOu4OAR/Xh4a4He9R9YmJn1wBd+eBLK53Q0nXBoPx/fEGd5LfpyJ8C5/6mb2W0YECb/rVXfo/PuiqQ+o5vJxnIoBSBhC3dAqTxh1Mm9xfM6wHe4YcH5OfHlC05O7v6CC1hO76tOKf31He6Rt3ZLR/u+Oy4sU4cg3jUt0AM0CbH1d6gIviv1Nu20jgf9Vef1083Ex3IW769rGy7Q30PMNX7vrOXCALkLorby1xN7nk5KhR2HgKX9PnJ8pD5eeCK3z9SPUcnvT1q6cKJ/UCqfuidZLqqD6Tzc9V0HTP30Mykrc30Z4DKaeOMD4ELPhK+Qs7JXMnsnvwukOTPWxyhNkHGCAiOqrgXVoFyuOumXBHGJwmlNbQ2fWNfrgl8FdIicGoreCF/+mWKX0n+VbohCPD+33ZmTAtsJDApx9V0Z6gdOz6yXKyEcUm+ivZtZ7o1fMc/vuhpOvUN3fbz4ZHk2DbVpcbAB/oqY9US6UHaxEeUNtcfpHff8cEHT9paPvukpXhxJpPSai8sAa4HSGxna9Mh8ei/r5pXlXFQldCHJ7+g9//Hd0394o/qO/6eMtdLoKK0MQ/4Qf8wilEhhYTtvvwfgZ91yCTRXWHuYXCKgxM3aK/zpj+rHZlmxsSBNqnenQCqV5/umhqj6Livg25G//DjQy6HH306/PDgiUAB8VibMIrR6DXTF9x/z+Q9ishz2qS9pg9c5KfV2XFsjMApQfrKblDDBRe9s2fXEaAcoIJavWaJgET89dd2/ETX3z7Z1XTgc6C/n12deD2Oo3x3aj8t/Z9+fqr36rcgGNRK3VbEtN+f7EL/+MeRXm+7ysM/gwP/fcA4NmF+506w+f4/96YE2fnupN8RP1RusuWLoDZBxgTAb2Jp3qn/6OO9hutlVVCc4oclTrx65HintaMWQWAoQyvqUsRHjz5N/fBR1cnOjG9A0X2/b2EbQvCk0k7XHf/2O7fVBo1MhO7ZjHtoXy72/vZRC+3Hp6qnLPMR8HHtbUGff105+awSm3hU1IEfgmrZ3DNqOvL5zx//858ff/PJkcNN3c4nbi066qPKAJUlHPePOlNctZfuJAX44ct+y92Bsio4TuFh+uu2pB7+eCDi75/0Bq/aE8fkEVqOpiXfHclYmSaFUxRLc/uM5p+/79lyx9xpXccXX1ZevBOpuXRyyud/+bZjYSiCgxoZZ8mclH9+3Fq8uZTD1lhsmPLFX2ivase/Pz+490eQ9g8uU0IG9b1EMVQq9KHR8S93GT20FSCPNVYMSmKeXqurD+9NXWngDy4eKBo7wMBU3vujgQ6i7//jC+/idfqqwEwYwbCINjWs/Fx8sh0ffJNivNjGAyEojnvSbPvjkrt6/69feNefjglA0DDt8pu1B//5SLz/9fPxzrVljRyL6EL5li9oMRPzw+eVxdna4KFJLggCGe0gGMPCR279XW09BLxxUYwhUEpPXGATxgRRwB0gGKraexbuvjFr5qwb49bdb9dUjF42bvWK24FK0hgtbAJ33cSl2p5MYuD7EIpRSKNPkvUacMCc1fs2htgKUBLHUJm46KQ7Me4C5uBRFQgDZelppN89e1QnVuf6ubtLvaJKizwQiqRwsYAhOPBUtAPL166YPXvlJeuzZVnSOEW7BXSEaubSjWtX3Ji9ctzCKwpKHIKipZEd4LMgsExJC8gJghFSsro6GwNLtRBOVtTdPdFtUgTD39zr6MNzUZEceqQNytCz2bB5fYy7h4rt4gl9vufPB9XP2nbp9r3La+p7gHD8XLBCnfNk3gTaVkwLm5A9CZl6z0+2AtJjK5stXZqW5cESuy70oD2msuP9+adX37ixetH8++2NLEnjFRBG6bb0o6YrZs+avXpf7JJIaaDF4AAKEdgmlO9bPXvmnHkP5p9LU2biGN11n+2pvWHZvk035syadWPF2ocLSsMYOIYjnMioc+surZ5NP5tthesNZDmPfTwIZEyAkUKekBoQFxb4xRfyyccjclGCJAngI9AjZCkulyIoCpQLCrgTdCwC9uYJuYM71YADuKQ4FqO3cHFBRQkuj8cfXM4HQHBwbp6QzxfyRCIRSImWpacS43Lp0wOPjD75E1/lxREIwReJhGL9AqA4VwiuDaU3eCK6rR1sUVz+k7tDKT44O8lHzLbSdcsPv8iZc8WxSOPoxdZ/vr/js5S52yOZjw0hBtwvsNXA7T0HfTPi8z0C6KPYAvRVDmxIIugYSmxWekMixXQwDoSZDqYvFNhdEi42qTh4IElKfFH05oCM089G8pggkD8TyMBEHJIh+6Cg0TWWgagXA3YR7//7ez2BdmIkm89Dn0+c1nO7/GbEE55P+PlzIQiOCdoXWu6lK1Offtva7EuPL9nx7+M3Q/zBKSR7vS6/efkDEc/F/H7wsxGDgyVBEAhk7AD8FWnzK1vz9/7z7//64P33P/zh54M5M5LctZ5pVIJAIJBhBlSKEL1Shbvn7ty5cudOUmC6hh5D0oYGgUAg7xAExQmKInAaQtwIJImAQCCQdwvdFiX+/v+7bVgQCAQCgUAgEAgEAoFAIBAIBAKBQCAQyChCPFyEJ8qNP/b7xMfninhC/sC4DAgEAnmboDjB8AjQ8ElfsOd67ObfYeNmnTtyCelmapEcFPYwgkAgbxWUILEAuRsV+/cHl9SF+/0uDQ3hdcHBHSUTF4Uo43zYMxsCgbwtUAThqD2c2OISMe+sl76tomejqmrjb6GqqtymFrV947bkKr85CwKYkukRIBAIZIhBKFyrfZ/b8Y5sWezYMb5kVMgjKC6f+0wQQQp5IlbpwxN9weuU47mSZCAQCGRIQblE5P2tfl3rGv+bizw9JxtCkAw9zTAWMWhmowFQXISGVDSbpKugcFUjCATyNkCFhNpyw5PzlqpyyacUCOPxpW2yT+TUTN6swSSf+S6H5vJKN9WddNAXEHA1SAgE8hZAeUT7NkvD5WUCknqsMihGClXaL5t0yt84c3vVhOQp5ZkccnDLNyrkupvWJ29KaKSeHAWBQCBDBtAm7TUn609H+z/SJhQncE77uovORivPuksJedIa524kB19Y6CPDfzzbLdAmjbV5yWu8VKE2QSCQt8Ez2oRgXCzMzPpEsNGDQHMOxaVQFOdT0uZn53SGT1ynLY3jYu8JahMEAnm7PKVNCEZomVlfCDZcs0BWmiIfzfuPAo2Sdk/cVlF38Z6TAMFRqE0QCOQtM1ibCMpD+56J5YxzRSyCorsLUBIIsEkSnKwFc92cF1vwcQRqEwQCebsM1iaS1PN6sOXmsji+CEdYKlqNmkWRRQBNC39pJoKRv7BiI4J2t1E4ikFtgkAgb5VntEl33/itD0NxPj/e45xxRmVQUJCdd39z+Iw7cQwueY25vqNgXBsBtQkCgbxtntem6eXmOF/4XuMiu/zT+jZmZgbX982Z9zCTySePsXUGa1NF/Wl1lffeE/FGBkIAn8/nAkgAXRUl8MdLkkMgkNHFb2qTxZoCy6X8X4Q8dvuyVSs3qz2rTe5rO8Mn3Q6MiopOHwlELymL0k9z1HbKLLV1N1eSzVIsCvDUk2ERQno9YpLCMbh8JQQymvhtbRpX0LmBvMblq/jcu/GcNvG45mvDe3r6g7q7C0YG3aluNREN9sH7uyxP5tXLG5+4cNFkyqxLl+8sWNKukWWhxca4wLfiwpW/IZDRwe9rE3WM5Eo/rU1rZAe0SWPtSedb6x0jI2XjRgKh7qXaaerpXgkb9py9vrk827pw+aWV0090RaSmRjhXGF+8OedB9lkvHyVVJiXkk3DuKQhkpPO0NqnGLJo0Q0cx95f//upxuvtkTPyvx66hmRtXb7uuRL137VfiSkPQmixQsgfawvMuGQiEwqenKXiHEACKAndBklwul88X8nhcxCPSxuD+sn2zJnb55eRENDgb38heoGahQoE4OHUnBDKCAdr0eDwdQcnYbt5ib7JeLTQ0y2Bac8M62zYN97QrKy6Ov7THSanUMXFGakm5v4ig+ze5m9afHPHj6RAUwwmSC1SKZPln2Xg9XGno1uyd0zmtMLFdUYbM5VHQgYJARiYoj2u+8ETeqg2NXBJFUCTy7AxLy4q8CiOrjMO7ciqM6ustOwpammvrkuuTrSwvPtigyCBReh4CtZV19QvbtUbLPAQIilMkn0fJhOpuXG3o5upq13Fxn5yaHkrC+fEgkJEHgpNCpvqKnB77dRa/iBAWgmMsvdKQKzrXr+hcLjxTfv3K9etHj67X0dEB/7u+xyBUBgdahAC/CVmQ3DJpiRSGji7HA9wwT0QIzNN1NhnZnT+UYWxdpkcIyWdmroJAIO8UnM9lhF6fFuF6/ptDFdeLUKGQQFGU4PJyc+Pjc7kEJQR/6G0asCESkjgKaknca7zGDdOqIpZHikblvJcozs3NpfzbdaYWHNzpXWydxuGJMKhOEMjIAOHmIqGxk6ubq2foyJ0xymhOvm1gExfG4PNEA70pRbmSjUGIRCRTNc7R6+EUt4IL682luLgktVEHglEkxlFcMM/v8MEM48VKxDVSEgOBQN4hWDxPcdnJ3uOpM65kSgtzCdmjUzryu4Oqauqsujo7u36Lzs799jW1di1BHTfLM6WpUd5XCCVFQpZs4O66Uz/1bpETHBPCD3cQyDsFIeKxzLX5X56XP6eoQnBBRY4gWHqy2tFLzy4rPL3od3jwYK31xj0xS3zMVdnoGOhpzUIoLiVl0X6m+ttTJ+578oXwsx0E8s5AKJ5K+/KGw77jlzaSueSjOZoIrlAo5BII6/cBO4Ja31jqX43gQhEaeb2i1e5Guh72yB4QCGR4QSiKY7PQqsd3Qqwsznv28zmCoCj2u6DoWBw9S/BYGuX1LTmrl/ijsMsTBDL8IATBbtORT/GVLw9FuXBo2WOA88RsN3X2dVuRpiKZdxgCgQwbKEpxDG74dU+MjST5cEzZU2A4qbJkZYSr1W1bhIJzFkAgwwkmZLg/3BJuNN+cQUBlehbgU7IC7hg2VU46F0DxoXkgkOGCHlsWmd2VMy0wkkHCWssLQEihf8isblfD68oIBkcCQyDDBCViap/JyzG5K8PH4WyQLwTFUGn92X09VrcdZUZ75y0IZJSAIATufsnPbeYCZYwLvabfguJJ6Y/rqOy4pG6hAmwmCYVAIG8LhCuUUV/T0HcxQZpCYUvvbwI8J6nS5RGtDZsClTgMaCgI5C2DoLhU2S03v5VeeiQXFrjfAxfhttadLW4zAmX9paDrBIG8VVAC8097kJMxZQkbh17T74NgKCPgoXNPzaa7NhZSCPxeB4G8RVA+Hqdzs+5EbGM8HyrTH4HFi0p3N+RfOKPQ5q8Cp06BQN4iWC6Vtqru5OklApKSBEF+E4RLZF2/mRM+e0GobKQWA36vg0DeEgiCcWXOdmVMvKvJhMMx/hiEwLScCsMrKzY7Zmp4SsM2JwjkLYHiiIz27oKqS4r8UTK59zsGRSnGkotNVfPk9G3bPD1YsIUOAnkrYFyWeayJX/FZmWNwbseXAhHmKi63Lyi+HZJpa27BhrU6COStQORKxdwKNjJNUxG+yRS6yDN1m2d/DxEg2UFIAocZhOSrbphjb7/1rI2tbYA0rNRBIG8F6j2Zhw0Z02I8GcQbfBFH0KenbqKnehr6QkvLEYvJZrLE6aMY9m6mi8JxKdmj9a7B99RCS9v0VFhQnSCQIYdemC3rdEHVOFs2+rqVEwRhygSUOpYqcwZKKYKwOEXa6u1ZAvZQlloEZXACtDdsvnz53uajSYkbdPVtI8PeiTAAS8mk36zMX6RemqmhGMaGLU4QyJADihnHbJZ3jnUR/roTfCMELlO6cZLzlnI1LYxenw5HVdrujLc3um0WNrB2pni+zEF+1ECFDDg+4qCBrcEe0IBT9KzjhZFsjc0mtb293vk11TVutQV9NRUrrzjpMR+l9uy0m+JwCY+DxAm/oZgAQUdsZmf0zV7qqO0EanWjbBU+CGQ0gBFMzcAL/eGxHqLXnfYDaJOHk3Vnc8PuaFWcHNAm2c2G3tWrQixwCugC0Ay6IkbX+8QigYgn9kUZLFA1w3AcuGssJosWF/EF0LEog8kGBwAZeXJNCEZJO97uSrEz0THLtDHzSjozszMjpWbuOVkmSesqiw0OoZN5lAqOEzjgSb2PThkBV8Jm0Zf0JOVXBkEoXtY4u/5JR9W1ndQiOVCbIJAhByelzDfnpVjtYVwjJEGvCq1NNuuSgzouRfmTPAInSIoRcKe4KnyTripBogioiC1YP//M/NiETAs2AqpDmhrajmnqCXfKl10PcVSK0465vvjexkT9LA+gRqDiJq2s5nXlnvWZxWcVNFQH1ZcwUsppfr1dxxpHFZwiCAKVdlzj119y2oyDaymVJcbOt7a+fF3XXY+NoAiGSum1ZZqV6WuXZqYphJTJygDpY3ko+mzXWXdm4UM5/TatN/r2z72mWljbZHRZtz1TrU3AfIOUIBDICyH4MmWXwpuNFzCOve5XOqBNHI1y+b6cudfNlGTN3c2VQtW8Tu8PCj6tLuCTHu5JM4P7CmoiUpsL6tcaKOO44rmZVjl9QX19fd52qeGdycGpQQW13kElc+4rsSlUOk5utWW3t11td5BrX/3yaGU28KLEYCTTPXZiVcTKKA7B53O5SJjBqpqWrsK0yPbLFxtSO5LrO/1qSqZutmVSLD2bs9smdKR2u/nZ20dUVU3YnIUxBE4PpzTY9dWmVjVnVE/emKnFfP3hcOSxsMV1KfabEttL1WRV4XwpEMiQQ4r07hhXBk1PR+JfW5twTKXtziTvU/3VnUYTjAyN5I2S67wPNHU5+GhhehtuVQftn3PUx31J9oXu7ovXi8C+F1t2fuF64vb9pEV5KUcOp066rKtbfjO/r1gnANVLH7ffLsckO8Ynbc+a+u7uC7GyDEk1DSUZWfen1QYZWi9Q11/itWHZKsuWlOBL6Vn6a0/aT9usLWArLt1Ukn/xrKeUuc4kt6rgqWsvF64yqjr1yV57B22PyD3T3OysZh9V90mPnWFfULJKrg04Za+pKWS84I6hb/PEh47upUqeMkyoTRDIEAO06UpxRupsdST3jbTp7CTvXjf5GStXr1q1avWqWxf8mlJOWmcKigK3VlfP2KDJ4nIxrehV4dXTEttk94zPaA0fVxZGYGr7Svr9Ni1hxyNt58bn160p09S+XdLTb7lp/d3A7ecWbvXzzV8V7c8a8JxQEikKnOl24FRLfnV1apBrf0tO/er75tIqcQsexi6N0i8Lid1kGNRitMzJ9sqkgvwZdyOJXELaqdD5/MHw00vcF9zI7+k2WX5nQ+CGs4smFFQGP1AXANkT38IrQ+Vq3Z+YETSx3Mddzb1oaL9HQiAQACkKS7rg6j3V4A216crEgobVuhYY3RZOof6Oy53tTs63VW2/XdExab0iTmAYgZpb10dM3Fgaem5ybc6MGA+CQmwLT+YbWmszeYyi7TOqO25st4lZkXPqgK9rc0Zzc3NLi7ffzc1qMhIFEWvTLTff1OLZaxbtW279cI+6rAyKYQzV9itrbhp2Bdv7VRf4uk4o148uTK7Nu2fLIUiC0kuYndobvkhBf/P4oMMHKjNAwi0tlc21XbPPajxK+dUBftP1vCbvLRsdzdVK21RV4GQpEMgQQ/BlluyurpTfjrx+e9Mjbdqk0IhzUQSlMC2n210FeUCbnKzr/SY+lMW5fC7uEb3KvmHuhqy4pJs19iuXqBAEw/Z2cm2ygw+bx1KUm1bTMS8ktOySX2v3hdM6SVeu6Fzet3rTvSWqj7oAoFwka8/UWre5MaoISREUl0viGI5JKd6fkpM6YVP2Hq+QpEsnaw3vObYvMy6wf6DuT/K4pOqGuQWtdWvL1O5PL0jpmHtmfdKdKzpnNs1be85JlfnadTrutbB7Ha3hKxLbNTIzQz2loTZBIEMMRrHbrhj1Oyexrr2JNsleP9EXsdJrwG8iUBnby5Z9zg7aAtXoTR19nfu8QhuLlly+WNu95UoAW/HsTTe/2QYcgkA0ziQXdJ3WZ4tYStcvptqv0fcvCpxR3W1YqK4pCLO9v8LQatqdIhQbUBCMZIWu39LnNlNXj4FL1ltAKNw/bblzkOXlUg9WWFmhYWWv/W4F8/QHJc3hs++ba5rrnim223vAal2pQGOZfFXN1NhSfy1ls3tTk40fLAhgvb42HWtc3p1y4qGBk5pNe2mkDNQmCGSIQXFWY8j4Sr+H/sLXXV4FaBM78twkt5JLS1QxSty/SSrr+sSa5EJHD0pF+55JjV2+lWFyhHdV8iJdZYosSpwbETErXZog0Ljyi3XF1u1MEdN8/Ra3rkI1FaYgbWFxrXd+cEWyfZ93x4zrpVqP6l0YyQw9Oj7ffpu+BwPU5CSBKNszZtv+br+Kiyb1JQ013XbeNSbzY9Jjt0Zk5Fvldfll7Dp8sMlwsyLGLEpYsd87KPxkxf4c74K8SwltoEonSeVVQQlu3Laglqnn9J3UtB1tsjwQOOAXAhlaEFC4bebZ5Zu2IW8wZoXlIZsut71deaBuQ49ZaSvbrqtmIYXjLEGowsY1M6bMXXM5UE2PBYTMQyn97BUFRTaKoR6hZTHRtqoMgqXnrrtnqY0eGyWQMLXAdSsnbxl/w/SOmaaUxGmik8UY/qHR4DQWdE9wSSDQCVRGVuHhmumTptyw3mOwZMPifYV3DJZsP7pu0aZ5q9ZYn5lZUpkx8XoAhhMsT7Prp29d3DJlU3agjSqLeO0OTiiGsX1uNRes9nKysdHWti2CfhMEMuQgBM+isNtuk4000ApJ2GuA4AQ+qKwjKEERYq1DMILCpLT8PYDsEJIz0NLCoqezRVBw2IAk0j3EUQYIBEEYQzpMNYzDwqln9QOkNpDsIEAiODigUU+GhRMUjjDZMjYLjTuM1iS66wksluwO93Wbs0APx1A6ZbaWqqq/Cn3aN7hZDGcIdCf155g6mgNpylSC7U0QyFuAOiZ9Ni9/cpIs802W86UbrJ/SjEG/6fEjQIIeyww9qE0S+eSwJ1t0PE4QtGg9OuIxg/YaDDgDfQBIFQEaRyAW6meM+irzDaffMglu8e1YvSCSLdYi8ZXQEvmiRF4ahKBkbOYnFxhuVFNycnSyzdKD3+kgkKEH57GjHuR1rvLiiF531MpIA1QqBaEhhTf3V7ullky2VsjigCBJ3BCA8IXK1038OlfLqbkDbTIP0IL9myCQoQclGQFLZ+QHLxZcGzPzXtL+EarSKGubqRZnwUHeaGDv8yC8XKVtqVU3N6Znlmo7OsU1SsMZnCCQoYdecS1rYU3z3DSpN2pxGmGIK3cU+OdFVcM3AcEwRFXO0NdvuYG2jU27j02bPxuESmIhEMjQgeViulu6K5aVcqjX7eP0JwKh8EaD3X4F4xPd3Z20gTYpwq90EMjbARUSpbfl98+Q0+PBFcf/EFRIKmUb+1Us8nK3ddJ29MmMlB5D7iYEMpJASUx5wY2IhgdKQqhNfwjKQ5dMLai5paNeWqrdrl0qqyoF55aDQN4KCIYxA66frNy/LFRlYBJdyG+Bkbh/1KbUyvrFS+jWJsdMWVXYEg6BvDUQvjAglh5lokEIYTn7HRBcyImZm5N6IVs/tFQb1OjUAjiwHRwCeWsgGM70lCvOKLknK4W+7rzhfwIwEmkM2ZpReSG2TDvTRlu73VHD4vG8nBAI5G1AxguSTPzqrW2J3DfoHj7GIfiqSVuqUsfHaodmAmVqzzTXhGuOQyBvF4xiKS+d1h2cXfTU6iaQJ+AES3OPcWvL5OvqTmo22u0+PrbK0vQwGkk8BAJ5GyC4UCtxUnX9OjX8GEUPxIU8DcIlFRdXtHRPPuqkYeMEvCZtNUUtBpwcBQJ526Ak2pi+oqN6RoIqzifoKQEgj2EhfCEn7XRDU86Nc/pqpaBC59Pu7slhwYZwCOTtg6AUWy273tVufKImg4KdCQaBUgRT6V6nr/eWdV5OasBp0m53gtM2QSDDBoqTLBtT5x7vKUv9cdij8BEIimMB640qM+QLvdRKM51or0lbSZVua5LsAYFA3jIYRTLU1oYf956Vxv2FkgT+yUH473HOGbf2djkY2NoCp4luaspUapSCnwwgkOEEI7m4uUPO+e7VZcx47p+9/CEoxssVbBi/69vuS9G2tqVAmcRdLotkQJxkHwgEMiywUC6f0oztPO5iVB6KUIMmrPyzQc8TjAuiN+V8dNBv93Ynd1undlqZ2m0jBezXXgcBAoG8NiyE4lNa+tbGVQXG2TYChAT6JIn60wAcJoqUcr8zt+HAF5XF2QZOtpm0y9TuqG2rGCYFG8EhkHcDS1y103NcdjG/tviejz9GAA/iz9KVRzyrOE6iiom3anpPeU9cqJtZqmZD1+baHdvVZBvhygUQyDsFwQgS0XNcPCU4vHjNfRtlDgMTLzAgiR6T0KvCUDiDrVVktvlWR1NP95YzC7Q1xA3gdBN4e2aoBVQmCOTdg6AEjmg5PbyZ01KQPMf6rrayNAujKHqhEskeYwWxr0SSOFNaL1R38eot4c0pBXlzspeaDfQZALrkqG2jkRXGfrMlWiAQyFABCi1BSWUpbFxTnJ+RY3xjYaCNpgcTI/lCPpekZ+MezTIlViSKy+fzKVRKRi/S6a7p9IqI5uYc+Zlrj+q2l2baPKrKaWeaK6pKM2C3AQhkBEGvF4djbAubwOwbFdX5wRdXn9l8Lkbfxl02QNWDjXN5Ip6Qz+dySRK4VATYFXu8/tzIgV4UD8NwnACVNpLkcvlCHo/HxVkyegGypWYhd+Y/mD2pK7/F28945fz76e1qajZAl4AwAYfJEQhTUZgKnEIOAhmB0ItSokytAPO0wPkrJydXV/W5dVglT7g4Y9uZ2Lu6UY42pe5KbZGaFnoCGWk2AyW4vNz4YyOH+FwhiSMsKY6Hv6pngKJsqIaak0/00ivrxs3dkucc0Vfp25IfXDz3QfmGKCdQiwOqNCBLPo5Ope5xAQImAj0mCGTkAlwPhoq/RUBknJPC/Ye318yZVF+X2tLa01ppl1odXre/M8/Q2GTarJXbLi1fuHijzhCwnkay/SbEPsy+vW/Ninkzp2yZUJ/cFWzfkNOdkdLb229XY1W8dZNpeVJCmZOtu60aLUsDzUtAltSA3ioLpMB9SwwAgUBGLECfUKZMmHIRcD7M3UsdozccnX969Zy506eO31Isb2ho2VFT3WEf4VbbXfCGVFVV1bpVR9Tkd1dVSYJen+7anAb7hprqkmRDwwknLk6eOv3WjW2mDxO90krNQ91tS2lREn+Lc3R09AGyZBvaFunpD+pxsO0bAhk9gPodhjA5/p5Fim2ycaHuGra2Ghru7qFKcbK2ibPyJi+LNtMvizZ4Q9LLohPP3JixYvHSsiXpkrDXJT1aXd8sZHmx0SKDUFnZOCWl0NBQc3MNsZ9Ee0lAknwAjtpqGkqybYoBjVpStAhDWYJARh8IQi8DzJLiCFQtNAOASsWFmpf6BM7p+eH81D1mNmpOb0pmaOnZSc2n3FbGKLnTDUBvRGapU9nGk1//za3Qy8dGm9ahR6RJKm9ZRQGayo3+MipssW8IZQkCGdUMfP6iOxIwpaSlPTydTPt+TNkWFenZqBkQUBQpRvH1KNJTDpmTU+m83EfV4nXTeEyRcqSG3IW9X+7XUYtU1iwqCggI0NTUVFb2BDTqCWRUmKD6Rt8IqMNBWYJAxhD0hzyKZASU53/dXBjHJoiB9mPW64MIcadx9t4Vy4r45JukIwbBGVrq085/W79dlYXTizWA6wXeES1HUJEgkDEOguNsxcWpXzebhqpg9EpSoMC/AZiIyrxk711friwS0trxRmAUKmM2/fy3hgvCEAqHQgSB/Jl4TpveDJRH2Ii1SZPHf/PECMRDn9ampXoMAi5yBYH8qYDaBIFARiJQmyAQyEgEahMEAhmJQG2CQCAjEahNEAhkJAK1CQKBjESANjGLyt2+blluLj0CtUlLferhI/IJYVCbIJA/GQiBq4Ra930TtDCLPeK0CUektWce+MQy0ZMFtQkC+XOBcCmLpZP2/uicgPCHYKzskGoTgmBCreyMv2QscuRwCUkgBAL5U4DyuHELI378brJNfPwQzMY2pNrEYODv4YHOnxy+IBfGIyVBEAjkzwALvXasdFbrkZpCWSFv5GkTlovpz275Iudy2P94CEsSCIFAxjwIhlOC2NTPg9bayFCUJPBNGGJtQihM1WDG8SN5C6QJApcEQiCQMQ8ejyzZ6vLPyt3mJDUk4/yHWJuAeHKRaJODf2tZkUkI4dxxEMifAyqeUFpY8OEPERuzEP7QtDUPtTYxEC6fk7a6Z8f3Ecsihceg6wSBjHUQXHiM63nH6vOPawrbpamhWpV8yLWJgSAEVnT2xN73d4434PDiSeg8QSBjEcmkbSSJeHo9CO795pOqTT6IiBiyAj/02gTSxElC+ZxJ6zdHMqaea0NICpfMWieJh0DGEIPndv1TgQO4PIZ5rIn3lx/+JWj6OXdpfCi7Nb4NbQKpEhQWlpk0t+qnjw84X0pXpYQEfSOSe/ozAXIt1OQxCz37PU7P489gsZhMNlvqzwKToeLplKBjusqkM3XXRx9VGjkoFKlQXAplDOHH+bejTeAKMYpPMgMSNpXs+u58So2lyZx9GxeUqrIZf57nx2YzmSwWnX+BKsM1ZcYc9BJIKMrJUrg806guotauxbfn6p+H46cO7j101bfAeYppYnukFkKR+FAvfvuWtEkMgpMUKyyu7OiaE37Nuw59t/PgKcmN/RnY1dufUZXf0HXx0n0bVTbt9EN5GkNgBB9vjL5tErHriyOnKrs7ki/OunRm8cON5X8Kli3emOTl6J4V4BnGYeAkSQxV+/dg3qY2ARCMICmM6aGqXCRbGrX9+rLFyyR3N7YBefTe7XGzJlXYp1Ye/mJvi9Wth44CgitZFwcyykEJksuxWTah98tTJTd0zCLDPDxkpKVoH/nPAnAaCYokSYrA39or9y1rEw2CYPjAfdBVc8m9jX3EiwnKyMiohi44Xd/68T/Pn5yvxuZSbz48G/KOwQgurqgjv+uLyi3rbWUIAifAf7i4bfHPk7+H4dPWMGjTY8DtSG5s7CP5doOL8y0Xy7oyyXvnj7u2bOfwoDqNblCMi9nuq/3qZ+dzMvQnHvit420xnNr0Z0XcGo6joaervmyaut2fT8GGp9ELwsfM14V//H33bXcpioR19LcI1KbhAcEpApG9XfB569alqiQFTT06QQlU2mZbz792miwQiGCBebtAbRo2UD4Zpjvl4F/yyxWZOBzMMyrBc1H9lbUudesUuUMznhXy20BtGkZQPlV6qdp3v7UsnweNPfpAMAyNu+T63f5YWdYQjWeF/DZQm4YRhCI9fC7ZfRS+PgxD30aPEMhbBSdZWdedf/zoppkKisGmprcN1KZhBMFwVuPZup93moRYoFyYuV8TFCf5Ql5u/LFrf8SxeBFPyB+yHss4X8rnQdDHlbf94/9ELYYIRnGFPNFL2PtYfK6Ix+cOVUfMP6k2oQTJfylzXzsGzC3kU0OTvRGEy7Pd+t3P4ffMUSHUptcBxTHpovaEO8tuj7uxdcrkyTd/i8mTp8xYdelM+Z0Yp4ChWC0NQOV6JBofOGiZyHpvKOZ1HA0gOM7Sc49O3Dx/3+pbU2/+nrlvTpu1bfllncAoJQEyJPL0Z9QmlEBlFH2WXl9cuGb29D/I3nPnPbB+mOSV6Sk1NNmb/56Fde23lbPU0VzYHP7qoCjGko29GFEdbGk00WTylKlTp/wWIGryxRNGliU1fpOvKDKwISgtZLxg/f6DPVsSmPF/ktYmFMMECqv3u3V0VRhvmXRzsL2nipH8EJv75qQtE/L2N+Qk7/PhDMUA0j+fNoHszXS/V1wT4XzSaOKkl8jehp0lOeFbEzWRoRgQx423eOh8sHe8AhoPtelVQRCKCDg7ya4lb12UeZymnoyKZFj1i1Hx0NOUNS8r7HStmpZoQRJv/GENaNP1zkO7Tiz9c2gTwsC40vqXOlJqZm8oVVJs1JKWejRSXzyMnYbJfBwkxRF4ZoXaJE3p7re0tmFx33i2lD+bNiEIiWfpnMjImLDMx7xN2Z8j9bszW6h4qAbEuaefDu5PvbVUbwiyN9CmZXV7W28aQG16ZcDLgeWZVNGbf9pJSpTLp8QDRei5d16IuFM+xT8m5PhsK2iacLeR9ZquEz3fwMCBz2oTAt5zY7gfLYojMj4rg1IubrCgjvFIsbnFw8/4fEKqMSvUVkNJMYxJCbmDokTxmOL1vNac5Roq4HBJQq+EeESF+MjntEk888OYtTeCYcwinf09DbdtmSB78/lcLvk0Azl+IMuLszcJsrdH2Q3vFJMQf8brfZ1BnmTvZ7VpjGfvIQUhiUavOUGu052Eopd+Dggq4ppNTqlama5Hka9saARFZIriFPVUGPRDelqbEJQlrZoVpyyNjtGWQ4IrlXl5f2/JdaljhMRyCE5iqmlHH0x2zk+NsLevrs3pnL78nI0WQT7WffKYnrVbk9H6uNfxnFCU3dgmqyzDRIBNn9YmBEHYWgFxigLxoxiDoCSmuX16S/M8cxGPILRs7m5++PDhxkcsXnzFIM4DwZ+xKYLlUgbGTW7jogTAc5IEvjQge2sVxUWGSYGNZ7UJPAFp8Cw8VcZq9h5SUCHlXrg/w2qhokgofgyPxpv+1jjNgZ14QiXTkoyT6+K4A0e9CiiJF8nNsZK/rCgExeMpbUJ5pM224P2bvFSpMfrRjhRpyY2vqp0b/fg9SnGlbe6dqLXbv3VR+VIfdw39u9lrboYH1dw8GsrkStwk8phK4EU7tzkKUrmvXvEluBz9wglWs5cwRNgz2kTmhq03bpgUa87gj80lwzER7nS6LiP5oWc8j09oz7FLaaioyHtCSX7wai9VBH96MhPw6i291OBt+DCSzqGvCMrF2pJm7D+x0ZPHRZ7WJkxEmK2yt1wU/Tqa9+cD5VGlp+298+4NPAaEwWIyxdMssh43ejwFmwX2YSBCbtzCTm9nU/PX0CbwnmK3Xe7+pvKSDYeguE+0iSRxQdmtU1+XXFFmjdVO/qRIcG6iXc2qMoaIvkOEJBs33Kqxc960XUkLwbmiY/EiEmP5256b2WFnv0JBa6A7KpXLWTq1u3Z6yOtoE0ow/L0u7PxoQqAnwqUGaRNFsuMW5/zYs8JGGh2jZQVok+O2hqAJOsoiIR9Ll+832q6qp6mpqeypHBAQYGGhFLMvOeKCThsbpwapEygUtsuDvS0vZ72GNiEEJhXqkPGNXaGtCkXxn2gTRWJ6uuP3fpJ8t5E1lNMsj1nox7C2xDs5W+zEoLhM5oL0IozLCFOTu71t96UHNJcG/oCNFdvK21VIjNYmJesub6vboa+hTeDx8YWK8/e7VK3ywXn8J9rEFzFjJrs2GV3RG7sLWANtur+lL4d2YnAGQuF6S/Ylh4+/HsrBuVwKlQ7z9PRXwSguH9PKvGccPmF+uwcBZANo0/abBakzYl5Hm4DnJJKKmdrcW3FdkMt/ok1CoVDW1G9XzRobYihWDB6RAG1qXxMeZBQ7oE3G3lNscuMpnCUlxcIpAJ8rnbnxYoTlWjMB+mQtG/qFvQ8UinviQvHKgNIR6hC+K3WNGsUTPtEmfq504ETflAuJHqI/S2+ZN2OwNoFKsFRA+tkFWbiQ6amePbe4eMvFp9gib7wpIYzAEPTNtImBUyzNs1ZHXG5FafH+4zGgTch/SNWECwf3nkhQRagx+1p5SptQHmowOfXkZTVpPklg/to684qtOi/uPmcrA/xJUstsX0nObCcSWPgNtQmlUJm02T1Hgq8Xob8IB7RJ+Vq8SunyoC+7F4ZK0fI3NnlOmyY78oVMVbPNlxMa6dkBEBTnIkXbb9SFzwgMYD2qab2pNuEEU3Fj+E8pKxw5uf9THdAm6n+4p1z9zlM3DfyBCkr2hPweT/tNdFWOno9dvI7Ai+t04hrfG/pNADLX466Jq+vF7eiv0gPahP+fzNEK375bBszXKn+jhMHahKK43vqSoFvtCMElBI6FnX1Wa67o3Oioki8v5ZAkxVa4kFG/nQP2e0NtossokXkporejUPF/8ZlibfL8Dy9tTkFT8sMx3ZngeW3yIfk4FmazRE1L0gSOoCQhSDuTV138UANUwmhbvKE2Abi5qneM+zOmKFC/hg1oE///Gpd1tabO04edMF+WZ7QJJbhCLgbUCSN58deuHXuGa9dy+XTz7JtrE91XN2r61YPGCiyPPckHd5koMDnnnD/qX6MmhY3lWZYHaROBoeysZclW6/SuCXmU9qYueWtHqf9eE0Q/yMszjRMKRcfaLpUUn/NkotgbaxOCY0zFe/nfFqzTRN2X22cYXW9EbOa47KzYoIeM5baP57TpZjuXj4iR7EGDUqRU6NFJDZb79P1xEh0CbUJxRMvg4uHzk/WRsKPO37XOiEL8N/sd8XYIZY/p7D2kDNYmFGUKspx8NMIwitmosWR7YqLcM+zZE9JeJMNC37ROR4PnYo6XInyTz7rL1R92maxgOz+8ydk6lBSNaYd3sDYhKCE4Z1iyXFPE5VFqDsYn9nkFIEzZwG3yW+5lCYVCnvvKcBNdKQJF3lib6NcJz/OocWX3NsfMwpKgCWdDQ0z6++bGqMSP2aY9msHaxKOiDX23OAp5dKelZ3MtzkVVFW6Edy4MZSIY9sbaxGAQuSz1efn9xnfNr1gd9J1Zlrnczffk4izhmG3aG3oGaxOOSxXp3l59z5aMZ5vfmRnc15ea/xSpQXbJa9X1WDg+BNpEdytRPNO3N3jcauf+lrw1m8JdrK54Dsk4mBHMU+1NWDxZNsV+VpkHQlIy7te3duXdWjRuaufJ2XJtKiTF0Ns+2X6VrUj0xu1NYjAM1QqRP9S/tXBmZ4fRJoeJKd6bbKTQIV9lakQxWJuEXNtx9vbzFihT/OdvGsG4vzDuFjfM2FDEpIgh0CbaUw1d1HLo5KIb9r4ZEy7Nq+mpl9Mb69n7TUBxLj3ZAD0c+z0x//31V811VkGSOh3IqdKqetKgDk7gKo2KikXPEBnZKB7iO1CnCzq5uPHXX38ZSOiVuXbtl19/pdzXnWw97+Jaefyw99YEmWu//h8Il+zwzqBHo8fH5/L4wPt+s2UrEYwSiuLF9pak/euvRMjNgkdt4ULC9szFSQvTOEKS4rKyvB46rBlXqLNEE+ESXH6Ywb4tN8sV+dxH2uR2w0wEDPSaXLv2f7++FxY4vepqZXVHak+P1WVZ7v/9+t8RY26RkMTedJVQlHgme//v1//ELa+zA9rE42MYKyx6m5XfeB13Bv1oBwGeEymI3pccfjNRj8KQAb8pyOiox5tkb1C0cBuH/T3neyv7Dxyumh0t9cuv/3l8Ze8OuqlmaLL30MFCST7mbxtz5eHi+beX7zstZl/h8plWzf0nJf2bWAjBFWcRBCN5ubm5IhrJH3ojV0gg4H4QIT9uXVe/d+ccB1NJQq/DotPrylcXfLhjxwfv79jxVfil8jOSiHfLPocz2Q91khLaG4l4IX27rwWLQfBJqSz1PbHLsq1N10rSdijcXZzalDpb3L8JITB/nzNGXZt8WKDihuCkkCcS8UAZRcDLQVrhlvOFh6UyA30IpBdMsUupNnlwe7kkoddhUWH5baOfduz491+BzV2mXs5eu0gS8y7Zt7Zw3bLN1+8uiZPiiXDxl5jXgc7eqKpNwvXyxeseZ++1hWu3lrhWGuqIO0JiJCGltm5CRN5adRn+oC4DGJ/S3DO3rm7r/Ugm/epFeaTt8jpfu7xVpm+UvfddXja7eQfI3uC/v+xfu+y2JOLdstbBOvvh+nMxNnpUPHckqBOLBephMo4LT1SnRtgHW3V1Wp60FJOXHO7t0mQ5oE0ozlKNy9JCcIaKqlK7epS+GY3+wB+woR6lZsEQ+0182fldTT3eHcl5knRej87OPOMLxnmdnRXFE+WTOzslwe8YK+e68JrUoO6ueXc1KR7+Oo+PhXCFqOKeWcG1OeElzrS9BwyenLe/tmlX92x1Bv25BkFIoq3cON/SWjY3Hnt8HhZ+je80riRn/FlPUjxNMdCmhKlBu/pzOvOSxVf4unSelL8gX5JakNNVPNFwpJi7a39JR4RbX5CfSbYNm/daxYXFIoSkVpSDfE6q30D2HuBk3km/5l2+hjoWtDbR+kWiRee22pfMklOmSPFoOZTgM2wXb2k4+SBKhiLFr16gTRoOdb29dnV5b5q9K4ovTAD5uh5k75Mjwd7gdjqtguv8arqDapO3JViQPPSdqxNOsQI2bHWrkj99X700NEtZT+DhoQWQQaQcL9lnDLSFIyhD2as8SYngsTQNHCaWBA8Y87FNOztKZmzwB6/1gbbwDOd9NkyGOJk3wUNGhsORGbicEYCHln9jkbmaY8jCib0/+87TZj8zoOGlQEncw9HBKqhj1kNdJw3ZokZ/rYEbZKMBR0/YuQ3U6egdcZxhs6a6arxco+iYWAVZLOoYmRUrH1RnLYviA4NNB+p0tVMDw1AV8UW+Nh4eHmGaWbKRFgKZkWFwYBY9TdlSm7LrN2q+/OLkHj2MeI1v7ATFVEwan9p9wlROvzRU8XH25qDSZSv8vOk6Ha1N9DuD4BIeZQ/y/E5ka6B8Aqe4nOg1neEm5eYs6lG/I8l3OktrDRZrjGVvcB3+FormmT7bC+Wv/tg8ToNFvNvvhgiK4lL6qwrOuy1yz/0Pj8+l6IUpxVDHhOYOwZI+BAiDLWizjfNHCZZHpGNIYuLdwKe4uyfRQImDPmpv8u6ylhXFP0ppDEFQpFAk4uotmNeQ0WmtwXjVkeMIimGRDy2vNl3YwPzPMT5XPNh9AN41jtzFR23hYjAuIaM9/2KwoYM29gsfQXnvMfUXVVhNjR20HpakLfyWAuM9viSh10ey5u7IAVwQV5TLY2XOlw9yuxWjhb/ixAh09uYYzPU+33A769j/eHxg7kf2Jq9xbS510G3hEm2iwUmS5X5vi5/lpTIpoee56eElswI9CfLJqBWJNuUt04zPHbPZm/S8e6vau2Kx7JDMU/XaIAQmU1pY3TQhgUM8M+iafgyn7cElSoY1ogQlbiKjG80lrUyDyBUJxV1ngTbFrevMeL3xdKME4P4jWetyTpU8lJUiJGNuXxKMYGreveDrdlsR5ISnjyRFgqQTT8bT0bBQYETNGIfJhtM2uiPMzHs366daL1HFeeTjti6gTUunFnRPS3iD73QjHYJLecRM3OU6W90fGzy47Y9BCVRLe1Fqikk0+9nsjdHj6fyCJqwXtzc9BgX1OeXAVSc7whsawuXXRnnQlTlJHID+eL08OOP1xtONEkD2ZpivrTpgeUWRSb2GpzpUoFxc8+6M1Ih9Rb/kPtO2i3CJojuT7NzWKOW+wjI1qIhXujK1asoeTXLwIx9joCIqaryv6/g7Skz8lV4tBJfjU9hVZaJA/pd4pjZP8Dll48Izircj156oDIuBc4Vo5NIHJnnOznmT1iYEoHwSH9TuQr4ns76zueu2E1P4DrPR24ab63k736XEQV8AqrKvYG+Ui2adu9ltb633X94z2RvlY3E6JzL8HCKPPfUSBVU7CtMyVzirkxilqIKDwjn4ODSe7zi3qvbW9kbuq08BNGrAclGv4lbvrYmKjFfL3kMK/a3a1MouObvoufEJwKXi2C70a5JfoEJgL5cj6BoLJSOX11Sy2FwaH7NDsWht4rufbujvWBGS5akq/QpTHJG8sD2TumtmqyPPdSTFKJby9kn9+YWR4BU/OEUEp0iZzPsL5yfaSoMa15MYBMFwArNd6e09K1oPebeNA28XMt7j/onmvouxmcoWWsyXn+II46HtD+r65DdbiLiSoEcgFOZhs9YtxSSdCbL307NYIqBqEB+fS38WlYSIEWdv/+vOTZY6tMMsCR2DoCLSZltNpfMlA0VPyWRq7wDxpD3h3vXlAc+PnUJQgp0+qcflxJ1IQiie+e8PwDCCh7fpGF5tmq7/iv7EKAPlkaG397c03NhQauuuLA1sJYn4I0iR3hXjoOqVZs9rE4LieFZh6uGafWlSQuppc1MkSY+Nf6YxCMO4fC2FeXbnSzY3Eu+0aeBtQ4m07k6usjuxOE3DNkvAfGl7YyLUbHW1XfHRxue0iYGihPQC46tN4xOVSeGj+S1/D5C9haj5ss5TrrOd3qU/8fYBqqB22r6lZFNIqa25hQry0tl7SAFXkbnI3rti2Qu0if7G4ZHm4JxSMPXynQ1R5sp6AoH/byEQ6GlqlG24sm5SX3/nQm2Zd1lRffsAbTI3DW4Jn7fU1jYzVNOD+bI5FWjTnRN21fP0n9cmkCqX0ZY0OajS8sH6Pbo2iqoCrSf2FtCfUgb/9LeQbY+5v3GFfUrqrAWa6BiuYQCANslN6uu7UO7ormabpSdFz9P5MgBtStvkZ2e8/gXaBDwnwl/9QXhK/ozFSUv1Q5XDBtn3WbQEekWl0XevnJnoXVm/WE0F1KvHMLQqPOhoCd4do2GbqaQsw3onQvz72gScW1LGMXvayYi+jAy7qj/CLsO7zy9v6zInlWec4THHE23S0NB2Mm9kv+zs0b+rTcB1ItGsxNXGdbXeGUF9Eqv+Jn1gp3znCw9CPHFqLL/FAU+0KTSzXS1SBnnJ/PW72iTO3lpR1jc7a0DO/cPs3Qd2Kmionxlryx772fuRNrnbajuFqjLfyf3+gTaB0oKiLGktPc8stSjdhKVLF/wWS5cm6OqXguqplgoLHCM5fKwyWJvafUqVpYZGm8T2Zkhx6G5UjukhC37P3AtiorWVAlT9OWxwzNguKk9pk42PtqzWEGkTbW6EqSLQU27LVPf6g+ytYKYRaRHm8efI3o+0ydzW0cfWgvmy2XtI+SNtAiAovcYEXd2mJwX/HUCVne49MqYbPiS8NW0CILS5iZcyt3i/P4G535o2AejsLc62MHs/ZtRo0yMG5rb5XSR7jn3epjZJkJj095Ds+SfgLWrTIyQ2/T0ke459Rp02QZ4wDNoEGcQwaBPkCVCbRjFQm4YXqE3DCtSmUQzUpuEFatOwArVpFAO1aXiB2jSsQG0axUBtGl6gNg0rUJtGMVCbhheoTcPKWNAmhO6a+Wf6lv2IEadNY/wr90jUJpD56SHwY9Hmo1ybEIwg+STOYjNxPp/6nZGP77zEsBB6pe6hXTB1RGkTipN8elJAksunFwF+ZO7ftfubPRTaolxg0WdmeXl7jDRtQmkDoJwwgRTG5z0xOrALnycScem5qXEujzcUizCwGCBROvsOm7FHtzahBMHyNFu/e7L8yc6TRtOX33WXwYkXZncUp8jhteuzYBRHLclh+R135qtNS/a7jBxtQinMwz2wcO5Eo3r5E9MuHU2zEC9+IDb8by3iBN4r1OC5Vl4N4C54qN0/Y5rkzuIOV710JGkTguCEVKTBvRvFnc7OJ40mzTG9327BFHcsl86KuT0luXhRuhbl4bN45pbiadlObP4bDQvGuCyNO/uWny0dzuHFo1abEJRgZQXuruhuSrGLsLIMzmnpbemYcbYNoaeJFdfyaGilQjEVRYWF27KdGHzxvT2KHKxikroIiHoc+ng3yU/xEeD/9A70vo8YvE3z7G8aBCF5/tvn7D85Tp/Jxx4nPegSXnRRf8hI0SYMZyorPOh07ekv8Ktr6Hbt8e2uuORlQRHSbdsdTu+JBGUY3NZTd40QRJh+rOk9rwBkYKJSSeyL7v+FFgWqpxeyrb5idxmTh7/Ioq9n0t9l5GgTglC4ZuKt8Obe3oycuuCOnKrKpibv5AdemoxrPPN9Ha1NlfabovVUE6Y1H86om3i7nS18YqRHBqF/iu0+2EIg4LmbQhAil6kws65z3BKOkHiczts19ujVJoyQijs3PdXFVf62QqhigKZmlvr8Ey3Ha7YtUUUoAtiIwWKxaOuD9wulleZQ15+XyMwFXhV43w7IzcCTEW9gA6OY6D+SJwMiB+/GQBhsjowUPXHxwBF0mJjHqTxC/KzFGwPpSYIwjBnW5q6k6UGP0Xx09ON0xBcl3vVJ5EswQrQJIflFyyx3tVZc1lYsCiiKdNo8yfVIT8Uyc47A51JDzjwn4FWhknulHwr9AkCE/KKHxdX1Z9RQEvykI3/r/gdFDrYoirLDikKVirQY4oc3cJDkLOJ9JQc9DnpzRow2ISSuZ7Ai/1T/icsK7ooAWfdMBVNLl535u7X5IrNJvt4zkmw5iEemdUNP8DINzzApBm2jZ2zMUpHhMJ8xDm0uccAzxsYY/lnuoZparN8y9pNdByKHgNGpTbQxZC8HH3ap35iFc0FNm6BIgil7dvXMdWUWLFZAevas4q465+Tpi9u1EKbAcdmW5uNuq5a6N7IRdkD65a15dX6dU27rFoGKB60ajaUKckl37qZp6C6ffabMgo0TBNKoXz7LyL6jYpaOmjRJ8Sin3clbHtzePfWmg5mnWmCifqQMeA44QxBqIOcVKjUw2yOKMQXu22PvKjEoDGP5R7Ypa7ERnOEhm3420FbQ6LT0bnQkg5JWWnB7a71zh3393OwyTwYO7oWl6nh0dXFww/4L4+TMOS94c72YkaFNCEoh7TNTfirY3Y7Fc0m+iIcGJM4ynnXdyVx98cSgluQzBqH+TBVN9c2bLp4sqTs55YyBJoqzFeVuRaTkb1m4RJGDM8Kc7uy+YGVfV7wmUUMwqMijGNtCLSEpRIkNaoZS/gGRygIpBjCtUnTiUjU9T6eEDepFDMIjNOHMjPoS+zqjmYvVlenigzD8S++v2WLVEDxh5RUbwaMC94aMFG1CUC4zfWrTF24P1AgRvRAFRZEirpb+A7erNdsSE8fZnzqUEVG8uFRjWdfx73ZVT9x01hw8aD2Qx4yD7YNPrNmj4UHwmYpLtxWPdyh/MHdlbLuAnh4WZNUwjYTriWpSdD1cq0hWU4aJ4KhHXPq5QDWBavuGu2VZTC47K8Z6hmGJvX3ejMtLNEEJAgrmoZH44KKVX53R7PVOgiGTp9GpTQQprZZ90jdo+gZlDNSRxACnRkoQpsVCFTcbFxTYy0+bOd4qP3/CYnNB6Xxj771fHEqxHLdAKfPhBNfWoOo6+9SUptRJsRqMXOkli04WZNjV1lb1BfXu7e1ySJOJ54YuM+5L8Q5PTq7ur7RapC7z6zH9iR99v7e1parkkqP54s7uExuVcD4p9D93oS9njq5ULgneMhjJZcZdL7azWlyEsSy8Vtdl2G9awvwPmnbauepiYFvMtILamUsa1RYaVVXW7jecUNGQ0tqx28ATJQPujK+tzHCrK6nJSGnefylK+iVn5hkxfhOZld119XxL8OSVy8v3pKsFCGT8/aU9shaMs6w8tPdU1QlTL0e5mdV99vLjt06rz+82WqgmaDs6qXbX3vNX+6YkaSjdvRHe3+zWUVfj3etquVwduL4Y/doGFuVLZd6bkHpyoRKDXbT9Rl3V/kXqUsekosdZ5W85ax69oq56rq6nmrVhQWW3c718hX1zf8ma9EaM37hhZrVrS3d4iZ9dSn/EbC+tIZnraIRoE0qgHk773K5Wr3Xk8B/N5odhBFt9akpPsulZ67xde/vdjBfbxt05kbL3VKr86j2KUspyc3Oa+vPt66q9XVIsb2dKcTLPWF396VBKUN3NbB8PLh/HKCEie+VCkJ9DFo9QDllZ12e/Sdfjv6LM03Xe8kmR+rP6gqbFNLqvywtK6XOWP2HY0X88Z8WSMFTo4TW7OsW11t65wc43JWLWgjDu0MyDPSq1CaH4/gkzq1xKFmpII09aU+mPdgTKKZvll3evVE+F3XZ3Tq2voRxbqLx0Xn7T/sVFSIDcdO/j1ePKIvVksvbMsDvfkR2qFGvY32+YHdWm7HO76/DXhyNWlPlrqc+rbS1ZG13Els5cXN/TP1U/Nz7N5MgPTVtDwHubUA2cltFvYkD+wsg6O8G3b7aCBRuR4gCk2EyOz7yg1glJmqox07x3fvWj3zJVkea6hl0RDplFe+RdmqZHm8c6H+4x3GyrrOqvvbyzZouOkr+tdbBv1fSkzEaZSIO1wU35m8wE4HUluanfY6S0N6EYwjE/u6rCvqa2L6i5srLK6sZZWxmEUIkLnOXWPS1B1SNL97RR/YOoMBm2TNSK8ALjZeYYor22q895W4yetNPykp6gSVdCG8P0HE2tUoKmbAgjGGwVsUVZUnpLbhR4T15qobx9asZH33znfE+WGbewpL/OwTErYW530M2lGmcNe1rry209G/VsrA3Dt8SaC2Q3G1a2nHjo6CmjaXbPKKX55gZNJvHmdzpStIlEAgKntvieSNRkP162hV7lNHN2/yHnh0o+q+yCbt6JQyhp88XOTcHlcR4IpWRaszdly9ksrTDV9uX2uzJmlumVro04tWv/8vQADy0PGdrYKiy2v9mmqp6Kc2HSS7amfPnxzwVApsLKg3fln9bw191y9eqFGMXE5L2nLOerqer5u2cn5xfHyspk6dQ3pUzY2K7MaXRcJt/Ub7JdlYUNSbYandrEFRisduuJOO2ohT767gXqeQiLxcAxLZsFG3TTt1+5t8mw+cvvkveoXFNxNLXvz7tL/WphWvvt1ZKZt7PnXz6z6ULVoYI12x9OaGo6sUEqXshDFffczDjcvDXdM+pGleuEK3oiIUmRbN0TrQWX3KX0TY63Tt6gx+ORJLvtSn1Tze1IrsV6Q9++OVEqYeobH6xcuXr1ptN3lALuG/ZmzPVyNE09UNl00HuWXNnm4ha3B+aY3v1i3/4pCo2l1kZVrRkN8rMcNicq2Ggi3Kz5JYcP1Ew1nb9u/kLTOfYuTcbrQ9ncl/kcMlK0icGUsYgsUhWEhalGqoWUrzTK8e1p2F0mg2r5PAjPWWlDcBn+SlEhCTEL7twbd6HWxffkOlvhNc3NEyPks0MZjUknfA8XGG9bePlytsPc/U27upapaSxYDCy6cuW4hXK2oXeKvd1myRks92v1DurtnnXf696JPr9xTioW2+fm991M8Cy1NuxryugwnmO6Wc7AqUgaLUoycT1lN3HROmBR6915vrv2W9tIc998caqRo00WunOCeqwWu0uRj+6K/jakvzXlQMVZ5czVBd23FoTlithZOp2+lkkCEvG8X+xyMHXSuHXZl+8VzrA/ftAysTHUIeeAm4MsgXhGP1wEsu/K3Q5XbC0SLvo2T5NLy+441Ft5yHd6Qvv6CSl2K21zkYQLvT0Tt1uYX67va2ppMLq1fGOil3YRU+Qhd8Jlp/fEfdnz5y88s7ui6YDzOjXxOvRvzKjUJgaOs4sSTSp37V9oi+aKzQCqAAyLsjtnoyykZc9Oa7CzS+2wsuyM6D1+8px0vIpadle/1RXWfwJOe39+yDu/uiY/Nd8tx61jZoLNQ6urfTfMiGMUjrHjLtufapmpr3y3wtd5XSmLRyCoSKS2NSVjlRMnysSlasUSAb3ENiXUtI5o2r8wzWtGc9+qsjBOaNKaycbFEyeemLRPvdE827I//9Yio4z941aEVzrPmDWhtm9SCP5/HnKTml0vLmDGszTLYreZJNvne/t65zm0c8z3FRw52F8bUS2+qO6aLctKPRgv9RhGhjahKENvweT8rnWl0iSfQFGUJRP6MNm3efweRYHNvo7aGWVsTCpyw8r9BVWpEV2GJ2sy+gzX2ZK5yknT6vIctLVkN9b3HEwpyHcD95+fmtNgfMZRMWrh3IsnAFum3zbzdHKwsmuYPE++oGTVyv1VlnNmT8jJv7mUfS0scIZb36SlzGuMyOiHmybl2ecH9VcZro3Sk43N6znU2+cXkV+b6pZTmy9/W1+POQSv8hGiTQh4zMpHLU+dqtcpEvIGPGyU5DLNL5fsqlrdznGaXVUwd3sjjyfVFtvl23nHn5DWyLa8utO3Nkds49r8jhPrbAVq+9wORMxX5kupxa4cf6J44okLU/Yt0VO619Xfd2L1xIyalQ4VriWrd8v3eU88p/IrETKpv2lCktZ7hHJU7O7xefapQSnNlovM2P53rPZ+0Vs1YOya1Nrktfr+rCFRkdGpTfTHN8/r9ae+yF9j5oHzcnNFfCwgYXWOi9+DEC+H/a7h+8waUdJ/ybjqXstzzGtI5P0TLXUbpf+rfKb6avW2dD0pDy3V0PTY29dLIwO39F6tuK/y3rVrpKrunKqr1adLVUMu9hfMjOGAMBFbbbnbrq470pT6RFqb/IE2MQieVNrp4H67CuP85knpTBDClJJSoZFiYQy9sk1u53uae/p2t/tsq/b27jlQWT+/lPyfltz4jJZJIYIwxwUL2vUoPqalfin8fO9NhdA7hq3Nk+8qy2h56Cn6JM3fWAbqiC/VnDhCtAlDPQympXzRvSKKFS8S5ebyKL378q2txtfbpOPmOxdMTUfw0sIuO/tVCzSZfCxzeVd3/bpQ4TF/hW3O4bOjOWFyF1qCxutk6sloCSKjku5tDJGVwlhssUGBRQmWp+6m6sM7r/bkz/NSWBPeUtnb2l282BaPD7sLtGnyAoF/+9IF7Y2EkKG35FLJVZcLS9sM5gY1VcRmcbQ8wops5C7fS5DlsIZgCtuR0hbOQPlE22ajXYdythloIkKRiAf+ldJfU7PX96YCLtK+1feUNulhiH9gcW//5HPuWtJaggAzYGMDTy3tRUCb1imiKMIayL0qUqDiq7pknN/5Q/0pQXPVbQtrKrubT6XU31ND/w+LmezaVJyoKtDevt3HghARHu3L684fMF4akD690sWyXFbaw8NfU23D/Pnbs6ReLvv+EaNTm8ARBFszZkXD8fP5Ny8viC7TTbo9qQDUnq2dNM3WpLrULWyP0yi7d6L/589Tty3x9BCo32qunBLSqOezr+Gq68XN6Y7tgWusWl0M72iqBpq49jgvSixTP7uq4/wnV52Xa2spB07qd7FyCDFzjHE4CWoE9zR//SW6/lDLDYMwWpvAe0vF9ozfl3/7tsfyXhYXXPHAN20xGBV2JfjHD7/u33JfMyx9XurnO74OL3QScI8JEi/2N5l4KadtSnXJWXnXTM12waZwl+atCgKLcydc+5PX3k1zCllo0tdaYq0hBeqnkhv9PUZKWzjFF+jOqz2cYnQmUL3dLP3+vgvdLnYmR5WkEdUryZUNy9Ua08b5VdZtipENXVJ+s+DQR3Y3r8RJC9Tmd2Y4n3GXabuypdm3bnegmU/0sot9rX7byjhcXGJOFMVRdttGq58+/dJ7/J5IzaXTg77+9Avg1XIofmPi1KoWkwWRUavzW2tm7zGzsdmwyb63ZUqMllbCVLvejtVn9TMNyme49aSuLBMwXqoF7/cZMdpE9whQyVx38vjOygnL76c7OqbFPJzVcPV4w5olWv89ljbVtXnqXQuRSCquvG5X8HoLhM/TjK1wuVp3KUTbsWzzxebj1fsy/dX21e51mx9AW/px9sUxRuMeoyM7vq80kVMOM5hV8O2HX6U6aLCpXxgJF1uvTghUbt/WfbV77h7HUneDB+HHU8Yv8PfQnZ5x1W9lUpSa+sYZblerZqvTn7AlF/omjFZtAsdQDE0vhws1TacOnz9/+EBTreXsJCUmgXj4mOZV2eV0NBQU7J84oaM5o2K+BqtR7mZQSv1DRVzPa1NJ/y6XVpervakX10VZoPEMm4UTulNa+/srg7orz/daOfhwRLjGsgu1vq39vj29VcXz0/zRa/y0GdUVl208BirSuAjVHpf/xfGT90rprugDFzQAxkN8dvv5Vs9Z4MnGPBRWVfc7r3ViUaRQK2Z11/7V6lKM0ofjc1KaXL1dW3v75E2XeOI8majlhgVNPb27rrrYWa6Ua2MSL/feGSntTQgopJ4JK5wzelx8+1N6e1JSDVefteUQBMUoXZdX2T0zRNbxnklEQXV4RG1Vdf1Eq4Lmut3pYR76i7q8OzYZhEmrbRyf2nu1p3WXS0bnisTQwQuYANnHtJZsq8uwX62gx2CExdxoCEp2SOPgBKXnNc7QcsUSaWbmssk5Ka2VGZVNrbXFhUsscJGUzWKTHN9dPbuu9mQEz1ivIUUOxX2OHG0Czx5DpGTlVndVtR538XX1vXq8MmJiYZSAonikze7OirVl/nw+E7xk/cYv0MJwiiFwvFxst+tAT5NLj+v+TQs8MSml6ybhFwM5/MErdiIol9BY3uFSMGNpGIYIord1uDbsjmILSRFryUrnklW6Hoi5ztQa315Xu+bWXRn1Dksa0VxE46GJm++uXperu1pK5q63VRmilddGrzYBQ+IEQ09te7nDvn2m5XI+FgySoHMyS2Aesuz0pbX3lioJVJ32LLse1YgwPOISHm6OtkAwXEU2YfG+B4vmy9noAclgB+ifvbywXGdj+Z0NGzbe9G7tupzJoSgc83fas27t2vlyTvRHB/DyVm1Pb1dWYQ08RzyeX3Sl2LdvU+nzg2QwhFPklK4uK0VgGOYR5+NDL/sH/Cl2o3mama0qg8BQLfftix0WPSjU0Y2TBmKHYBQrYMn624senLkenfUKKxGPmLZwWp0ItmK0zpl9i9ae2RxiG8bA6e+nKMryV0t8uEeNg0m36W40BQ8l0UlPoBH4UEdXlk0xA6KSYgNLZTCU6elz9syiRQ6xBorSdIcZSbJigAJ4tPlEm8lK0zP4a8W1t8epStEveSlPjTQzd1UGhTFBNljmsGjRmfUKcUC1EOBWI40+Z60XjTONjQnlEEM0TmgkaRMA5BvEIu1ctumiRaetYxM0tHB6uCaGhpVGtSvS6w6jDNV2XUdVFIQCj4itbHal8NIiU50lAUwcwxgqFmrq7Z6DvnPTIBgmrdgera8kg+MYLpWVpm+uKs6+LFVbfTP3RhaFI1ruCeXLH1wyjQXGxoCxEQoPa0+yPr1m+caYUBl8yAZljWZtAiAoTpAkl8slKeCbPgrDCBBEkhQGnFRqYH1sun/BwOAtsAX2Fx+A4JRKqE798UPBhUsCWHoLbrl+njITeKTgwdFjIkDC4r3AQSz6sEdDiREGm2O+rKIyY7xcGI8SBz0FfVH4QLalV8l9dBi9koY4VJI23WnuUeamL098VU8Gyb4EI0ebaB7dA30TAz2Q6UBQgCi6ZyqIpeh7BlYceCh0GIqTJIikO/CDMMn9v8AA4IkSA5Zh0eu/SGwEHrR4W3L4o+PFceAYcYq0jYcsR48wbQLQy72LDcel71NyNbSJHmVVOteKt2hzERS95yMbic1HG/8ZgDEfZ1/awJLjQVK0KWljDzzowdkXHXj01OMyMhSMcm2iQcRIfkgYFPI4ZtAuj6Lpv6plppZNh1prOvfbnT/QcElfWvj4s6xkr6ehXyH6hXkpLvan0wSs123FoNN+JvXnAv6QkaVNNM/fFeBRwAsjn/D7sX/IC1J/QdAbMfK0CSC+SYDk5+/z0jv+Ec+f8vmQN2UMaNPL8RumAy8BTErRYNm2acUTp51O1NAaNNr3xSAoPTBl8fw7aY0YPa74HTLytOkxYnO/pUf5zhiR2jTAWDT3n0Cb6JqDUMgnKVLI44EqxLMnQFCKz0Wlw/yZol/igdr88UwqCAaSEpJ0FZHFwLlC/pOaxLAyMrUJOP9coRDUqflC3u/NqUWb/dUNhxJccNjLPKWhZ2T6TeLsLSTJ38jeElgIwRe+8sgdSfZ+N+Ye89pEj6dQWnp7pskE+eKLMx32ZPqjL3h+oMLMY2g/LDxX6s96qeeHYBQJKu4Yl5VZfmlhTJvK48EDw8gI1CYUx1gWaUfHTbswwfjEzdXZMbIcyXD2p0AQHFHccHlzdCTn5Qr4gL1RFLFQj729TEETo4Y4n7wMI7G9CUM5oRtM516cMMGYzt5qAuyF8oSRnLLLt++GejBe5ppZ4BVAmxvjMp3KH8z3ymIPwYifV2ZsaxOooDEbDcY5p7ik9FU31FRV9vbXGhWaaYGXOX0aSbck8TYRz4kt6a/YbC4lHi4yOGqAxyEgCCUZcYkL193VYP6CbJiYWp/tJCP+bgoinzpK4mhL/gw5I06bgL2lQo9OTm1qbUn1i0j1bmptbphxVkkKWICOfWJUeu6CtFURfnMCi8DWU1ESnoSAvXEszPHKmewQTS43buP4/VvumeNC+lYlOz06Cvx8dKLH6QwlI02bwM0zVBU21TW5pFRFiLO3b7extaOM5FPEYJtS8WHzI1q2nMsamInvOXM/CQFBGMlyP3d74V1z5D+Muyfy5e9lPioUT5n7kZ0lf4acsa1NKJehkZ18tad+o7ZSlqKibNnl4pSdvsax5mwuTrc0iSejEf9FxNrU1JVdCh7DM1EgIfBQJCH0X4TIxcrmRETMXaoVT+mFZpp7yrDoB/RkH/AA6aPo4x/zotfZmzHStInuhKkwL/Vq6qrtanGKipG2gdvqjp+qnRkYyQA2HWxBFKNYaatq8qclZaGUJEgSNZDdweZAiDiKpCKPmuSXjMvk50p5xmkoeUrTzYKP7T34qMcMPIIhZaRpE8ZH3O91Hu+dsN6JNneb+uVi34965TeHsp7Lw+Q1wb2I/glH44A2DY56lFHFm5IgkL1ZBrMaGmbrSl0jVM0zQy047yh7j2FtQjAhM31qzzd2i7Li47lcIU+IF12ZMWHWFXemkMI45ndPTz5pv7949R01D5R7jRNb13Sy3J0tpFAZd7lFkyw79k/clmQrQz8Sgtkmt/tEV91++RnWXpFMlGNjndfcfHLT3SyPojK5BCdlKRz40no+m1dNKCkxnKOTySEIkmF+P/tKlFKW7ZLtgQpORRzWUD++EadN/FzNy+FfHCgOlBbxuXwejyutv3bLxHFLgXOEMTXVN94odi6pmHbbq00Fpdjqc6r9Zm8IwLmoSlH04jkTQNR0a11FujcNymjUXzbTKLgu+eK2oz6NTKbygnkdrUHF2Y4BmqH6IQqZeigBKjNZCvPn5gWfvLhog6wUhqOqafd19ujHKWbqblgaXeqpMuTqNNK0CY9n6E468HXtGc9ruVwuT8Qj2nSmGs69bs4CeVir9Nyai50dVhfW7HHnYKTI80xO5cSkNoaQQEDU7i101Lg97uLsjauYn1tdvL+ua8LM7HRNFt1/ObnZO29cSICHYvqeBTYWLBzDkUazh7Pl64LlV13RUKEIPkvjbPYdfVlF2+gNGwwyNTkvVVt8Fca638SyKdzfcyrj5PTdZ3Q2qGs0Skv7N+p5sFFS4LWqobKyqsG+JsO3v2Gersp/2LF1vskbzVm5HK/Z1b79BQ111d6+lR0rFaT/R2pkyzf3ZnSc7IoI6m3K2+xksKKh9dDB460l1lH3TzRXr1DwOEaFbjbJr8yI6LLK73e1WlQm8wsWs6Uyxa2mu8/OLqjFNfzGBrpf4ZDe3kir05H8sO0zunf15hTPWpR91qs9y58jUFX1l2ZiTNvFE2tbvEFNr9u1v0r+shqLWTaruuHGAmWCkbnQqKrFO78hoqA/peDEvVKMr6e7LdjVt6DOqs4tIyVnVqL69a1+vd8d6qmdsnFPoXFO5z41fm6YvrVxd6Vd+P6OKtfuieXuhLBt44nUoKrU/G67IO+Wgvp9Bp6MIZycHTDi/CYhw8bUueeAd/LWbdbrt6u760lLh9HZGyNVN8zISaksaOhwa2mqrNutznzPs9Ct8sJ9RZQXFrjVLcW1O9w+p6XJNXhcGfMXzGZhRXNvUN1JK5C9K42vZHqtbGg9ePBAq+WytLPyLeFr1Nm/4LbLJnb3ezd07q9NaT7p4MP8P3zBxMpKt5raKrugoJaWuhUhg2ZsGRLGtjbRVWGZzNgZln6pVXbeLa7NtXm7A9ukSKGK7cN635QJ5T6aHppR2fVNrpNDVDyuO/vmrVeUkd2Y3NpfHKutKaOsvvBkj+t0XYFidseB7lVLFVW0IqMWVbfW3W5XShzfV3VhWSnKOet8sPKWgr+Kzya31vA1MVkqWk7lxpVBc6MoPNrk1MdHekpW7ym1vX7Cd5flfHPgJEiubCgYee1NCMrw1F17YX91d593hmuLd7XJuigLlpBo1F1R41u9Sq60Mcz97iq3fqv57qpLbkSEr1SwaEyf59YUsXqDhp5AY8/Mgl6rbHPNhOneTZa30/w5nu7nxtsFXTiq5phdn1Ezc4Eex2dtsG/ObidUZsNku8qKM/p6nDaFffszStZmymTdmdj/3c4UQ1MF96jbJ3tTJt7liN58YpRBjLi2cGBvTubDrV0RtX1BGS2Vzd3Ju7dnsfk8lcz5Vr2uF49qe8oELDnT2eM9S18qwLrG9eKGRo77fGcX10lXbEBUtKmVi90NfX/35TnHa7bpKkv5Kxqsrm3tylZTSjLp6zbZqERKX6k7lHGjjCMVdaO7tW6Rgibb3+dyXlPQHEcSVbh46psjPc5rtodq6Mg3ueQ9jOQPrWcxxrWJId2oqayqp2qhGee4Yf7M5O6rPfsdbNiNchN7vsu4sHzx4sX3Lp+ekLLLOTtL9Y5Vv2GShaqc/PkjGVtMyxcvzl44rr7V5eTtuw8n9ttty2QSXFKIt50rvLdEi5U2LyJnxlLpX/E9XacybkRZpG2ryTC6rsfjkhRXZemEFLdFNqrp4w/+o3ergQcWnxu57GSv3Zw0jD+U9YyRp00MtsBT2UJVtdGiyL3szmmTkparVTfPKXOcHlSfag2ebZ19b/Hl5VPdeqq2bjA3uBFRMs4nTG1f9QHf4DlnshcvA1G1x7tn3y1bbFlpub6IQXJJwl9fJ/tcqUfAuUmpdYs04uPNz3S2+C1yUgycXJA/a4kKSXf/Vzqzv8Bwma3snomtpyJ2l+kR8VJmi/xc/Kwjh7Sf8gjUJhanUdNTFdhbU7Y9cN0ty6rjrZ23bVkWdwyvHiy4eWYZyN7rdlu6uBheKWpbF9EyPkarMani1MHuKWfE2XtT567W4o266yf2d1+yFWdvLPTs7YdmHHbUvPDwOQror9hZ51N2Kxwb1W90N5/Y4wGyN8mXuZ/c2mAt65Fu8t3ffOema+HXRG3ZnbvsVmjweFCbXhIEE7ITJuVUXC5lxAtBLmUxpcyt7Q+3TjVoO3fy8Be7gqpragtqU90KCpKXOyIeOnUphucaPXXsv/1plx0d1Q2iqirWqWvrGPZ2r23DCQylKC0bhSVxbKaNqaXbiev+v2KJJ696z/MpSjqZEmyqTc/5hIko/cn9VSujAkIm7vxb33JFnlDID7h+wjVorv6Y1iYEoQj3RSV+MwMDKB49KIXFEHht9b5adzmzbFXQwQOutTX5td21+bV94VuvuAeEzHCzB9rktLv7/NVKENXdXZvaXVU3W04t7Uxdf96VIhZBoKi0Yru6tqZ0wJ5pNR3bnHjxsuXGVeEPfEoXV9RWLNbM5aEIQSrHTki1vK3trmN5/njFek2U4ku3W3f5RjgoPTs2780YYdqE4DzOHuNaw3sa6DG+WISZGg4RB31nmmWtt9/5UW9VBJ298936CozWlUplObi5jveS0Xzo98XO1ipxzs93q+o2XuZoo2PY5GYqi2A4RuGq2grqbUwVs3HO1VMC2b+iSV1X+7Y5BZzNqywxzcTjcQZ+jIze0p+/yNZf1/inr7oXesYLeZTiZsPejFWlUJteGgTjsb1Mrn5Z+0CDyhXPciP0jE0+f9AwsU13av/VznJZGX//xkibu5ezEzT5nFh733rgN23f0nvccmOWjMBfVbE9cWG2gqa07aLaAw2mTqz3rh1jAZ+oZpG2IDLpYrfzYq1fKbE2mWkmmDR3b03gHIs/xmO5W/s1Wa5XFmyX/+hntzPA0xXys8orUqpm++BjXJsoJYfqj1xOJKlyecDgonjMcVPt+dRFPo6mdSk183Q19cLClEOXXF98Tlu1MWFqfscan7BShw7fiBXRFv5hYZru0UcX33dS1ZSb2O897a6y8D0RqrbI3s7oYaiF+u4SvzlRZG7bxhMF4Q8cQ48a93WMU6OO5eZSHktm5aduTQhwv+d8cFfxHn+C4sron7Zv6lg4tv0moE3SG4wPfem2XImbKzY3T3lj16HDJ7wCEra09hpdKZIJ829UbL+/bplBI9a2r7ZyEvCb7sv3NBnfKaJzvqLj/XXl0Z4y7Sv6du2/rIH9ckykdd3SN/y2rZb75c6gvDuMX/FznbuqtrUrb7/o2n1Ll/XesWNCpu2+/Kb6PTJSC+q//DhimV68UEjJ3jvZ0wf9plcBIRgBCTdST1UWWy/QzvRZcn/5xb5d3iZ3sqQbl07J6LHfvcdHQ33zrRyX2nlpuMzmhp6KK5EqqktvtriUPAh0dI/aPL32eO1qRwLVvuS2t6l4s3ZmjEPnrqYtgf6sALnxrs0zzAiGXOeh/rkKeuCo5ibLwoQ0G11Tw5beruyA99DAvG8/zrEG2iQShp52O9y9QnuM1+lwSlpj44T+qxFzYtOdtH1iNq+wdPW135buKci8vb+/YPK9EKf27YXF3q4T1scFBE7qa1gTFSZwXGvv2z19o4GN9nbT4uZ+oyuNmLLcVO+e6nmBjmaJq6tba9b4eHjYXrb03m9tzgndKJ+Rs6mdozT/pGuVSXaMdtqdec6VfTfl/LHQhfY7DxgHcrgkV+B1o+pAx8Mw0ZB20RxpdTqURJVDZlWdr5y4MMZGzbFsj8OWvqsZJkmRUhZ7LvT37F8UqG1e9nBa7dWcSzYqoeOCmkyWqkoFJBWn9Fit3e7kXrbsZtXxmge2FDtqRfehlkl3nJyWLqo7XjlVgcNSvDMhxW6eGpd1zupwy+wyLYs9J1Ka8hbGtNuE7EtO6T35sPFXPLDz67+ItUlE2p6uOdw9zlwohNr08iAUVpQ40765pyfFtb+3p9+t4sadUCb9BVTt3sTaJpfWHpddrh3TNpcy/se+Uh8xM8YTPYaqXTYuaHVp7d21q9J+q46tlJBiWehuq2u62tqS0tPSeVpfOp7kmMcWB4EqeFv6jJyufVEyuUjm/OLa/qZ+397ePiOHaE9GPKJ7M6PlwllPLlfIj1uYnC9/2X2Mt4UDdSI57QtP5PS7tPZX+vb0ZHRcLIy2QHAK09ywcr93b2+ry9WebsMHXpqIjO4cq4sbbT0oImDDqpKWnl7wKFpBVEgAeGZMpStT3FpdUip7m9ymHlVicBGPtEXOzQ27DdT23OosXqjB51l4XUqu8vVNaW11DZ+2rF3A5WfFTqyqXqXO4IGK95JFltXjN0jnju22cAZCYopJcztaXED2rmyls/e8+20ISXClHc/I03nYZdeujOBbV5QQnmJhcPg2dT08V8qx0LCvt6epd5dLhvOcJCUWj2ApL50X3rSr1bWpx7v+djszl5B2X2bUnHEzRDN9a42lgw/zPUb7GaOCfl/wUHuriq2jVPH/ojGTmjPGywl4XB7lfjvZrfihImwLfyUQBk6oKCWUO4xb88B0c4KtP720JjgHSmF6adcLx23bV75UwwMUHoKtpBuiJmAhCIhSNTvqMG7T6fIEdxAFLIJiqHRcwuU12x7MXyrLpDAEwXFBZuLl8mgLVRsDszh/JooRWJh20plFD6zvpwWooDhKIJrqd7f7FEnTHdo84vTT0+LokcSS6xoKRqA2MYD1UFXH+/P3rRm3b35SWRYHG/iOjxHS5gsWr11zyfqOehGboCdYdNQFhmIhwHIc9w3Zp9dcWpikr8yiO9jT/flV2886rBm3fL2+KpAAsJOKYtmVZYlqjZHa6u1tHsCkuJSigc7t08vLt9uosuipVzziyraHOKmiBIqyGzXKFHwCmK87TcSLGXnaBExFUCqhCeXL1+x+ULg5pDQMZG/6osBT8FTXcVizae3DGCVpisJwFXddLw0terIfCvFUj6WjNuvGgSi6MGCIjPv2hWt2L7rnFckA5QMhMH+n+5dj9fVUbdLTZAUsDCPAY71zZtGi+YmOnmwM/GYUlQUmtCuzMVA4BOZRBo7gWb+kQV6OMa9NNPT0PhRJf9IZ3P4gmfSHpOgpy8RjiCTzK9FRBL27ePIfyf707Gl0Gk/NuUT/eDJbzkCCYBfwW5LgkxOKJ8uRHDlUjERtAgA7iE1FkvQ8QI/vGRjqsXkkvx9JBzCleH/wKB7v/siYj++JDgD2RukphR4lIHkij2yMi2d5osel0onjA5tDx0jUJsAjw4rz5uMrGgils7fYOizx/EsDsY8OGGRuOns/SkIS8nz2JgZ2GThKPKUZPaPTQNxbyd5/Am0C0H3unzy3x7w4VMwLop4Lev7Y5w96i4xQbaIRm+qF1vkN87wo6rf3fswf7zGEjFBtAtCWeoElXhwq5gVRzwW9OEHJ5tvnz6JNY5IRrE1jkpGrTWMSqE2jGKhNwwvUpmEFatMoBmrT8AK1aViB2jSKgdo0vEBtGlagNo1ioDYNL1CbhhWoTaMYqE3DC9SmYQVq0ygGatPwArVpWIHaNIqB2jS8QG0aVqA2jWKgNg0vUJuGFahNoxioTcML1KZhBWrTKAZq0/ACtWlYGTHaZHMp3Lu+HGrTqwC0KfT2/paGVa+hTVeMg6pXmkFtehWANt2dXGU3cdmra5PZ6mq74qNQm14FoApqp+taSra9a22yNbWyO5ldBLXpFUBFfPfTDa4l2xJeUZsoXtie8d01s9WRXKhNLw8Z73GuOKNg/OZX1SYe2r6opM9oswXUplcAzaWcNtW4dj3weqfaxMUD5Kan+p2OvCaC2vTSoCIqarJv5cTsdNvSV9Imgssxc9hfdVGXeI9erxXycpC5nrdzdnXslmvXeCVtQrlo29nJ3XVnGt8b0okhxzhYLqp7ojVjfHmZbem70yaEwAWOi9z6L0azyKGdDmwMQ88xFXa95HDVjT36amqOr6JNOMVsOzshxe+eBTloxiTI74KRXMRxRutVo2UG2qVOr6RNFBoWtanAdVoaQr6T8jUaQSmS8lwWcTh/2900tcx3qE0oisooTPWuPHG0SPgejz/SSsywTlvzEiAYweXxyDDdS1194TPPmtk42bySNtEr5yqd6WhtuGTGei9eSD6ZQg/yAuhJA4U8Icv2oUlq9wRrAycnm/ZX0Sba3oLtF12bJ52zEIHs/Wh2PciLkWRviwUrgu3q5iU6Ojk5vTttAhAkQ/HcxaCWvHFHDWxk9Vj8+PfeuzYieO/asdzc3PhjYGMk8N5778WT7MY4pwVnTjR9c/Xi2Xa1UhttbUdHW8+X1iZQWriEIGpcQ3/NjMsb0tw1ObgIJCw5w7vmvfd++eWXkXIxtFl4qFakRtn62dXf/uRnGq1Wquak3e7o1Pby2sRgUFx2nE5xc4b8vrPRmVn+DP6xEWPukQUwSy4lZaHUHrjcaNc3TVMTnUoHsrdGI/NdOSwsFhFPei59cKHOrba2psTw4pRp06aOBMBlTL44ceLFyfTWCGDatGk3t1QER+R3e/eVbF2WXmoOHl17u3ZmnN6rvFhYKC9XpX3ZDMua1Nr88JMnRsrtgRuccnP85Mk3Jb/eOcAskyZ0heek9nnnGJ8ObDe3pc3d7qQRIIO8/IcEFoOKJ4ru7i7uyE+trXY2Mhkp2RsActRIupipNy/klVTnF3hX7Z+5uUzD3aadzt5qsmHvTJtodUL5IsrfPXrPxsJ5k+Qr8vIqRgJGxpZ9X/zw14OpFcaGkqB3S16F0YnJt1acPrMxcUmpkoZTuzb9WlFrU1VhvdKzA8VFJGRH+iw9ennc1hP1I8Tc9ROMqg/9a8f3rcHG8vWSsHdKXl79hIvTb4wzvXclpD00NBOUE9prMtf0YL9SRZ/FwoQiXK/U4H65ww0To5GSvYHFjeQnGBuNCFvTiLP3rE37Fm6WU7dVstUeyN6lWXoqL5gjeBhhMVBQ04y/xvWIazczM0sbCTjZRjt0prTIZ5vZakuC3jWO2mruSkqh7hp05QI8Ovo1rqTHfo1GDASjhLnHchmaamkjxNztGk6xE3Z9mXFru62ajyTsHePTbmMbqqRkrgEqFxJzt9sGcJBXbv2gszefd+wYJQh1HCn21s5Mvzejvnhbkk+moyToXQOytzmdvW3VnOgXAW1vG+A1jYw2OvA+UgkrMlezcbJ592jE6d9OrmwuLteOs5UEvXOcBgqIGEfHdhv3yDBp1mu/VhAEYXp4xpXaOI0Ae6vJalw/4fKT95yYuNBMSdi7xgm8Ah7j6KhdKuvpwaZz6WtBf1dR0VN0zxwR2ds9LvqB/dX+iZszQQYYITydvbVtzIvCQJ1gREgTALyT2NIe/noWFp7vGn+ObKxxRsHNRE2OniRoJGHRqCeQUWG+2cJ34GiWioxAr/Hdm1tV2j9kiu+R7jVOHI93fzXPY6Hn7yEtBUrKm9kbZG8tkL0lib5DBBz3xfUtqXOXWnBUJUEjCYvGMC2OCvO1XwRvBwQdWOXtXSMeRFXlNtOALcIkQSMJ+j0MLCUx2usDUhkR5sZElM9M1501txV5/Hd/Nc8zYO4hsLc4FUmi7xCSp0oPrVypz+ChkqCRxGMdGIHQPYveLWSuzIA2seIJSdCIQmKooUGS5jsEjycHtKkolwcy5YhDYqghQpLoO4SbKx72vVIfzcUlQSMKiaEgL4ISeQxoEzMXju94+2C5Er8pUgTHdwwDpEjiN8Fh36MPqE3DCtSm4QVq0ygGatOwArVpeIHaNIqB2jSsQG0aXqA2jWKgNg0rUJuGF6hNoxioTcMK1KbhBWrTKAZq07ACtWl4gdo0ioHaNKxAbRpeoDaNYqA2DStQm4YXqE2jGKhNwwrUpuEFatMoBmrTsAK1aXiB2jSKgdo0rEBtGl6gNo1ioDYNK1CbhheoTaMYqE3DCtSm4QVq0ygGatOwQmvTrBaoTcMF1KZRDNSmYQXLJX1mVkJtGi6gNo1ioDYNK9g10iv5yM76OxZCLtSmtw/UplEM1KZhBEExKuxe0N9cZkdrcSmoTW8fqE2jGKhNwwhKoFpRc8//7LexTYqA5h4GoDaNYqA2DR8sPJeQfWh1qH+eLY6j72j1+z8XUJtGMVCbhg0Up7ial/0OuK3RV+ERkkDIWwVq0ygGatMwgaD8eMGeCXt/ttunwUTf3dr3fy6gNo1ioDYNAywGzv/lmkfM9ONfucyJ8iC4sD43TEBtGsVAbXrroNxr8UyNDYV5n+/47laUikiIsCQxkLcN1KZRDNSmtwVCty8J46/l4o3tD7f4/n3HlxGrzZBfhMCLggwXUJtGMe9SmxCU4PJyjx279t57v4wx/ve/90SoIKvd69ziTRMKDn3yk2/y6WiP+Pcoep1pyLABtWkU8660CSV48UJmloGOw7YbM25emFCRfHIskZxs6RzR13r8+K7e/gLL2RvT3f0JHheFwjTMQG0axbwTbUK5lJRszLqp4b47v/3i4NUUu+qSkxVGhvVjh4oKoxNTb1yy3nguJK3Ng8iNFxIorMwNP1CbRjHvQJsIHiUwWFXw7bf9ddPOnNNVT8tUCtCTUZGSUhlLSLFwfvy1Y/EiIQlkCfJugNo0ihlubUL5Ipklm/K/21tz45ytP4ufG58r5HNJisDHGhiKwk5M7xqoTaOY4dUmlEdG6iQf+THfob2RyRVycVh6IW8TqE2jmOHUJoyLRCbJ7/yb7w119rVcqEuQtw7UplHM8GkTiqGs0hWtn32dfCeMR0JhggwDUJtGMcOnTQRPWn1T1Xfda0MRAoetw5DhAGrTKGbYtAmhSPMVzbsMj7ZhQphNIMMD1KZRzHBpE05IxS12+7l3tY00Br+pQ4YJqE3vBhSnSC5fyBPl/gEiEY/+Tk+8aGKOYdIm4DUJome7/MXtujQfQ2BjE2R4gNr0DkAwjCFjEafmqK6w4G7inj2Jv8WePXIbQtL1tTUU9aQQ7LkuN8OlTXxhwOaTOw9vURceg5kEMlxAbRp2EIQgGmMebMnrdA7u8KvJcXPL+S1AVHWDvfN+S8Np95xUqGe/3A+XNgl5SqdrP8pY7USKYI0OMlxAbRpuEIrQix7n5+s2tzwxxsy2rUhTM+C30NQsirMpW3q2cEKGq1F5qRT3aQkaPm2KW5v/UfM8bahNkOEDatMwg6GY/11j36CZMYL4a3ySeGq8B8XniYTcp4IIist7j5SNNWyqWq3NpMdSoNij2t1z2jQo7o0BFU90oHHpeW0Sn0e8BYG8LaA2DS8oiamm3/CunGtDcZ9SEQQjRTyWZql2qD+RSw98HwSKCaX2WLnUXS6VJgm2lpaKZMrqZ7UJxVEVgQd7KJqrEZY0SGlAgJ7RJhYDwxkcAYcFm8UhbxOoTcMLJsTUCq1anO81HnuybjWCcuOFUhr3L01Kdi6xMpqx0CsAFYkG6RMWL9S+URtkctbiGk85wXSeg66WiPu0NrEQoVDz/qY5C6P1COKNRQPlssyTLq28184SEU9rEwsT4aXLbqyOdZIm32ZFEvKnB2rT8IKJMLOV1UEnrqvyBtatRjAun5S2ib110tnSZE154ob1+252dTibmMYUIXy+ZP1YlEeprS3JOJkd8F6uQH+17yd+6y0YGDZImwgcZbUVtnwctDyTQ7z5GkUoiShvn7j3u2IFDwTDeY+1KRcHrpnj9ENf77+SxYLa9KcAATV4um2B/CMoYmjnb4DaNLwAbfLZ5Bc0YX0jrU0IihMctaM3Kqqr+vce2bV/n7r0e/+Ll1bymn8rOcLeeFFCEYOiG5CANmUusveuWBYg4vEpmxvNp5znx/FF3CfaxM3FnR7UnEpd3sYlh6ROhwmZC4pdWifuCcsVDtImfryK19aW413XtYRwvO+fAPBmwhEVPUWNtJi7exLlfps9iUuX2MQpe7AwIFCSg98QqE3Dy2BtAu8YFbVs49Qc40WB7RqlXpe3lhRUF99WDxP9ImIr6uvM3F/QMDPQE0FR7LE28fgkX8rGofunvsI2Bv+azIA2Md4j2ZkrW4/YL1NiCYdmZUeUS/mnz+39Yv85PTT3mKxYm5yE13APrxMHD18I9MTh4JWxD4YjWmmFRvndtak19laWnV2/SaelZbBffm1td92cu0VM/A1GDyA04q3ntOlxDORtMFibcJwdIDe5/5PDqRfnl1lQIq5MqdzaqZY5fhMLDULV9qzaX/ntkZpFjh4Ijg/SJhShuEXWDS7Vl9rJX1UGtAn/lWEwu6Cnc30Yf8i8GQTh4u03gnqTy7N++b+2AW269qte0oX+ysm6LOEQ+u6QEQl4JzIES8YF9/fVj7sTo95uk2nzO2RmOqUZBM6/6VfZPflOG/P163ZPvjU/q03iL8f0BuSt8LQ2ScfdmWw1MzE6e6JbfsU+XboGJ6WUuLIrqLWpYP/s+9H3iju3pXuyCGKQNiEMnI8GJCXvdJlly5XePrnKbXYZg1C/cOjUpARVnD+E3gzFZWtYp35btVCPp3jb7aOMTWpclSvhR1x3t8uQcJ6UMQ/Kx9uuTOqumZuginDFI6f4YoSgji8S0YOtRCIeD4SL4XJBsBCXLrXu7LM6rS/NpyTJvAoIgTaarV+enS7gAu//KW1CubjsfVPrDe4cAjrsb4fB2kTgnNDrkywfhMaTFjaJpy/adxRfun63fGZwd8PES4mZMu/hCVM6Vyg8p00MBs5TCbzQXHBD31N3WpXbah/lhMkZfTPKEN4QPzaSp3xvf7+9dWhbds1HQQ9sFXUs+yNOh3IHmvEhYxosF1+ytSB1ZoJAxH1Ul0IwHEOYUtIyWoKwMH+BB0eFDSp+j90ZhMjFS890eneVq8ZzB4JeCYTC/KNuNH2XvF0GwzDuE20iMAxRNLX7tmZdqTQ1NI0WkGd5Xps6N9nw40kKZ4WZL7hkWXm1dlK5j6Y0yAT899hyk16sTSiJa+nP6jl0Qqd8fET4rfXLug4Gnc6UJiSf9YYMnIt4yhnu7Z93fVvN8aqZ69em7i3RyWKRMHeMeehWToty+6aTsUpSkg+yCIpjUp7aGxafnjfNuCS/1i/PZObu29ejZelWh4GcR3ffM5jl3TyznYWBKuErg6B8NHrLLpcL55S5wkHaRPIYNg5+h/vWKvIp2OY0NCAYQZFcrsQbBoj+T6Q2LvwZbeLyULAnJSKUjs6e+iDGX8gHbycGES/1tDYFGemE/ee/Az4077/xkQ8n+lX71TkHh0d0GF0y4Fy7JnGvh5Lc/1Dap/P8cgqCmr3t8oPHz7dBf4mXxA0dwEL0kggvmmsB8m5AcYSTeam2crJXGAOn3XEEIxme6cuL67qmXlp8P8ErJkY3JLH80vTkhq45SeYciqKdJwRHVdwLc1JObGhkiY96VRCSqxcyt//wSTkPih+vN6BN6DESlz1td7DhjBqTBzuuDAUITuHssMhQjdJMJ+12R8d2gJO709HJtRmPtMn8qEnn7lKeeCgIqFFn7Rl340y0uLLNYBDXGBvGd67WVRZrk9pp+5a6TQkatnQqdFpOoUpn93+14/vvPvr7js+3hGS5a4NwOnIIAefRzpRVO+O9Y8c/vvnbjh27djtmlT66laFBfCuZpe6hsgH+LJKLw4XgRgYD2pTqOll3QJswXDr0yoWgnJXRFlJiESIHlsdiark/rMjoOB2lhxDIgDbdrul/bW0CnhOFas9uuZpcHpf7q/+ANpG/MtU3FZyyL28U96iBvCkYRaKaXstNrBpqcvK7++yCguxo+uxSjh/2NbquKuJiGNNiw/iIqUuoazwSQ1AuJntu95xCA3+SQBCCn3ssrLyrY5y2uPcjZbsvfNd5l5a+PnEqYqqq+lp2ffTlT9/1NPdVDQofUoLs+qqqgip7zh86dDUlo2/w+YcGYJaq7vycmgZnE1NdTQY11PVSyGvxWJvEfhNBsBXPXuhLnbtdExcSoLqHSqtaaNH1NozL5bTftsqoW+uohVGY2G96E20C72S+is2ZhlPViz1+ESRNtKteYUbGZ95K6b0oV4RzXzNNyCAwDJeyWSdfm1+/svz+doWodjVb21KARpZG0tRU7wlHG+kGRpKMvGdob1IoZ6PK4oqOkW1ibRKI4nmEdFHZw9mdHTNCVPgYggG/aZF9c/A4g7Y4cTID2Jrb+igsWJDeruE+KPQtoOE+gMbQnwaYxcZM4e6VZeOMg346YnVHi0fBqt0I4Cltwvlc8+Wd9nMTPflCsYvPx2zWXdqgNdCXjhKx0xzywqclqPCIIdAm+r2sfLnBpcFaNixhUlDEaVtB+nRX3y26LL5k8DnkDQCqw1ArrDvVPNORypWsLYmJIa+R2rsbBtqbEAaKIRzzs7O7IkpO7D6aJsA8l55eedlHGo2MyZ5ZEd5QbBqtSu/zqF94/UPPY7mShAbAcQLwKPG3Bn39YiS/hxaQLsEVEh76D0oyOlYohMF2pxHAYG0iCXbkRueMSdFMQjL6m0TjEtdHyQw0ktOjG4oKa6pWmXmgXPyNtQm82LlIQOAk3+590XcupnZs89ow3rV6n6MMdKmHAFDrlta4XdPTuT6LST098BbLxdJW1gQVPx5PhxJCroxN7JyKjv2TVl9aNcVk2upxsybYl1x4sF2RIeQOFNPH4+mKROLvdGMRjE8Ilszt79mSEIbALizvnEHahPCoog3zLIvLlXMluQ/BEP84d03JPBUMBh6PGMzsurjYRkpEDYE2gczAY0Rvra2q67Lab+XsbN8x6bqn8HU6JUCeBSXRosAZBX7W/v8TPtO2i/EwtcIu767FjfGP5yFAMFLIV3E/t824uqX3eG9Gyc3bupooj/uk4z+Wy9We51Y1KQk8obGqTcAMQulzXS75a6L1cAI2eb5jntamtvurJ2/aoMqXdLnFeLj+iqnrw0SSDpYYn6W9cNrWdWYqQ6RNCI6xio5afvSXvS7Hv/zRe5E5RrxOlwTIc2A81Gl5V5XhZlURKQl6BEphqtGrqrxnazzdgRHBuLQ+BV423ZyuiQqF1OAngWA85oa8FOfLttLEGB5hi8VTZjP7+vPOpDVqyTBBxVgSDhkOQMWMoki6w4sYIfCRQve5PdKmpFlGW89aSHx9BnaNkitp3uT5i8SXwUUM/UvGF2/rS7SpckuMDJkrkiT1WvCv/ZeSfVhx6l9/855j4CH65Y0SG0pIkqInXBitmRMTIVGzc+wmntV7TpsYGIo0rq87XLvWhi0Sger7oHsE/hMv/hg9sdzgQBTnxvPDYqb0ukwpkx7T001iItzpUkdLye4YDXfZMCZ0nYYPlKBYgoC20FJt/bLo6CWAsqgyXZ1JLS1TdcMYXEqgXRhcs8ldKKnTYceou8He2ywk2oTguZwrlrXTtgcwhLiK+5mI1pLl26Oj1Ol0Xpvo6LRSM50bxlseBNrYRA1c1DsnOjrKsVSpLbJRhRJSyGjs7gK0SX9etd2JOy/QJgQhcdmNRimVRst8zBX9GfzcY8fif4tjx0SUlEWchu7uht6CmSH+3DefNW4EA7RJe01Di/MlXY3S0qwwKRZUp+GAxSCEXGntdRMj3Bo6SvZ3WXaKsezsCk/5ruWWAf2djh723SFfbs4mxe3R4ElFz5iwWC9XnL1xLtaoO6dD/o6WkCBQFff5dYdPpTp3WUoSem26uiwNi7dcMM7r7JKEvHMsO/fbR9S45dddWGsg4Imw0adOv6dN4B2F4qzQh1v88murUhusKowmyP8mE+QNk4NrCqpS84NvLFDFsLH9AeuJNpnbOmW2+TPh97phAOHyPdQdjMP9DGcvvJIotz3EK4bGSyFm+7Itrq6034RjJF8repx9QfFZZZQiUPpjj0V7lJIKgYFNCufor/arHX82CxXSUw+6n/Hr7XhwP0RBV5zQmMIrZoHc9cUOKybl7GpKvmzLEI260Vu/r00gnsKllEujtydtXHh608pVq+b9FqtWrV6zPHv9nhAzpTAGRYxKJ/LlGaxNjo4aFlCb3j50R27z7OCeqlmBWShw4XPpqQVoco+J8Ljlbq7jxX0vEQRjtK0f75YzaaM5m+JTGApAUIzgctHGmNXOBZ0P9GXAXpIxK5UXdaWFx+IlSY0pRLm5PCFXS/1BxHcpc9Vl6KUmRxV/pE30cgD0kioiIYWymL8P8Jh5ufTiK+iYH80BtWn4wXho+6L9+SdiA/hCfHBbJv2dzmZcretNXX/xmBWUoLBGhf9n70/gokgSRH+8MrOqMquKAgVEUPHikKMKFU9uOeXw4Gj2/36/Rgp2kQKcfft/Oy3I2TAc702D2N0z1LSsHCK13EeDciyXCIICooAo91XcDwZGLtmZnvllFqXirYgITXz9fCQrMjIyKzPqmxGREZFHYno8YjT3KfswuBwOj6ao8OjCiQkX+x1tPmQu0fFDqLrHXTMNYXaf9JxuVQPh54LHKtue1L0pzW5h8P3a4b1uegYxFfP7WD+NLsBNKw96Gba2HLDfp0vnvVw9gfCCUWhpcJDUXD0dW+hiidfeWHojWSobxxI6u5I6k5I6vbpGLXaoKmQnQkRNDwfmwoklpzo8t9jQlzQPwVoB5nPUs8wLAw7q8l+8kmRN8MFuAiwGuGmlgRAYCd2dVJgTpkd9rb8rUg1nnJh2uWgjxn+Wi2GUy4UpAkVbA7Vxrcz8jBKnYXV9GsZ8/mQZ4aOVN82dR/f4Vf+qu0pCGJIYqFI15fDIUZHNgtZQ+QG4aUkAN600eMVNzP3C5KCcGV5xe7WYA7uhTntavaT2KfJbhO9QEUK8zJWY4ZKDYUweMesl8/kafBWvmm4on5Agf0PsWbfMXycQitArTRymOp8qB+oqshlr55EycNOSAG5aaQg3jZi+xU142UDf8cxEULn5vDs7MT5RjCG2CAaDwngpQMw3JCRx2FozeGpym7IelftrbW0SQrgpOdNhKEklOtDAQNePvmay6ud3EwRBMEy8doJAFPaBrN7u1sBNKw3hJoNTb3ETYSdM36BU0nnIedReeusu00MH3sohzUPyGy08vGYKRw8oh5JeGtbwK4Rwk+Jxwk0ZrgbuTaFiNOCmBYiXhhFPcVFiTk3inYUf3GAOwRiTu1qHvQA3rTTvcRPxG+TSk1PGo2ZPX9ixRVZW7u1slt154OKe41n+uvqocArMXzWL3eTu3pSsv2aGWH1WN0EQjaI3Yq01P3/8Xta49Q1DHffheOqzCZvfCURiGcUap8SKrc5HKMBNK8173URkN9GjZKJH03sQRVwHV+0VNykm0oGbcFBErGne4vxvfvDsKCrqCB8cGgofOzSn6ytsjhPV8hafJ1EAHgQzYfVo+Y7aQz7Cd/8SQSIWIuCIPgtZ+Lg4lFgmEH1cboCbVpoPcBOO6Kp/IKKNft0AN70JCENDUi4mPOnYmlXS1FRimL9nh0P/jwObvP04HARjLrw1gcPEEGEncqIOJwzhEc9TOIhemOxg+XYNjInfDbl47Y7IjxD6/G0LTFHpC1qoLuLJYFwOcyHXvkiK85lmpgRuWmk+zE2A1wBuehMQiuq774kISjgTS2PyORz+33hNFzq+Dj+sdOeymE901O3U02fPZEbrhpCIUjjJV8lQa8/jx2dU7ylkk924oWFyA+G7fDg8JjNk5IaCE5vO5dBDbSRM9tTtP3s7PyWUeL4CoVwSu6nZMEPBNVspPSvMkU3GrwXkG6sQVXomtfS4dkUI8jnarICbVhrgpiUC3PRGiLcBR1m2d11zpDDdeBxeC01nu/P3Xqez6U1nejumXQriIrqmJ2OO1XO5XJquqpTnlanazu72cwOtqRVifhLXZ6Y3hP6jWuB/sKZcKqqSTlKX2Bns3BlpP9bYPThaHMhCMNjP7GxOn3P54GDRxFjApe4DZgKEw1bYENl+q798cOrHKRfNG5/jUQxw00oD3LREgJveCIzQ/ZRlPD1jZqONjc1uZM0ejDz3c1exO1tt26RzjKqGmJjA9VpRv5W2PilER7P2qtcpa/dsjbldnd+ckzOzzZKeKdqvpJ6VM3ClY0v+MBeLVbUI77xvKBBjseda+7uOOPrql2zoujTYULx7X+qWrp/+z+8CTqQl+9rujjg/E6Oq4Njkv8e8/InDIz28WLbMVwO4aaUBbloiwE1vBIZpIWXbPH/3XbtzbcdA0K0ffh60L87QQ0lKe29aj/g0lSgfK7YoHCqYT2ZUHAk+13dG73JuSwtip3BW02Sk6eam8KCEGI+pH2vuR7O5TB7ilyKRZ+hu66QmMbul6HyHfDrb4FD41dHH4i1//e+/xUvIDP4YZBGVLK6a8M2lRtOb42HW3vMHg68MnIxWpy/3rN7ATSvN53EThHCZokbK18FXEt3JmcgHDF2nQRivxY3zLCqNBHN5nFXRAwa46Y3ACCnE7OTglU4Z0yOn61Jno6wDkxkIlwMLSrQOWLl4TYdP1pT/3G9hkswI1CzqLzgWcodHbCUWa1Dpq5i20fm7P/1w6Vx7wiEdWi4TgSmV/qmbJ5JqnSe9ps9d6X5oJlDb9GTmQVg8n4Nx6eJRkkFP4jKzHYsHf/vt1Vvnzt3CufLjk7E9Fb605Z6DE7hppfkMboIgWmKlq0KZUwjxgqBXgGCYoZiSP5uqqpxNfjEd/ltAuYyKrDO3o0MxHhEVQlFBs/cNW336UjRADAVcvhf4ADe9ERim2ilvGpzcpRaP8LjEVCt8Joog3PismIDJhgsm2v7GzWcaZxxUhxmxqmNTtZqOJC6Hy1K6J3PXtEzjprmnp7lWWdTG8kLJm+KkvzFdTwWXj8rumVO2ccw3HwiQ8xeUPCw8fzdTHb+3Mcmxx1v7C2PmQnX3d3/n2ZA6rp2Vn3Zz34YddSkU5rL3YwFuWmmW300QjJKd5mV6LFJ9EKKjyktAMELXqHOY6Z/x2mZIEb49/F39Dvh3BKU1//Vt31MdNn50EMznuO/w8qhzjYdfn/71XekQKiHZGWTs1cn2fUekjwG46Y0gCGs4TXKmyNQmEeHgl4w4JcQAluGzRefHTLLhvyFNu+PO3UpQMQ4hhWban+9vyFTCYMf9wd/0P9QRz2oYmlYR/MIpKe47NymfTiMpW1zx3Bkt9vdcgbJ896V+q7ZKxbSGmRnLzFhfSnLYwc7vfpo+qWzHTj/g1R6xf8SX06Jf9nTCK+amH7LsLzIEblppPoObIJSscdtquu+wO8wUdsYUdcokWifxJTGFjQEJKso6GmwaoZuFFyyib+iviZeSKLGZUlf/5Z9+d0vKWyyXC8E8boq5p8dxRTLGXUhYtBHRPfSldPCfw7MUiXUwhPJJgdfiXDa31aPYsuRa4KY3giAUpXuSA31H3PWhF3VvmCkWvdVr0CvO3LygynMmfNK5yPKsTUh8umbfUH/XmEPNVOFYaoWY3V7Z8lrT2JYWLGTvxsF+y5vJ2fMW0+GjDRslE8o9Jztry4Nl7zk2X0voH6iKcOgLP/f1X76uOuTvh2Dij6TKg5z7JiY626empfc5MpavfeIZwE0rzWdxE1Upf2dfY7EjgthVpLgOG/km2tUn67HFqDATSg6TLxoq2lwXZZZMYyJUtrt3naamSmaKHwl55bcNu7nFPq393dflPd1Xu/eE3OHgbsKaczpkjKkUv2Tx7Er1RDIuO3yPCExlG8zVaZrujzL2w78GTGOwxXWV7FhESYocEpotji8KxjdPF0YeKYlnUfFNRPtYOsBNbwQ/B5R6tbwbumK0RacDv0KsUGOtC5tPyOwq1XZtSn9UfFbCxxdFQ5ok9m+1ath6VtvWF0PJdu57tUcSieksKLGG+eOu8QhZSfmM/MbrJ1W01HTd586qPDLU0FCI2n321A7TMya7d9acS7rmmgjzUFZyc+apBw0xO896G/iRl6ls/BLATSvN53HT8Ph9l8YNjijL7GBEcIG0tOVYY09EnNwjdxbV8bTHue+vetYUqNiwINv5E1XhztPTg+VV5vt8YM7iRyt4DY5pfOLWrZi0QBOH9gaJUDqK8bklmwdrZA/mRPaMJiSM9h7Ki00kMSGjkt3XO52dncM9y/tkM5tol8k2py0j5ObwGyofcnp0IsL8uIFOXW/41R/OD46pmAmob2gI+1iAm96GUAyv2QFGERolMSSRQUUwLkynUOg0ovqPQnSxkBAxOn468XIu9LwmRtQDiUcfRATfkHh9FgnlojQ6TKrMkuvyMp93TWbQbffd/fnnuHvqwlIyhpJY+iGJYnR8k89iDeCmlebzuEl8bltCY3EFk2q4ufB33/5cfveQqsmFMc+ZXlVblt49S+fI1GZdP8qwSW9/of1+syZX5f0T7cHX3H2hF4eAi6peYmNhoWzgHTczyW9/6zKr18J34zjKn/v3b2dGN9e1Sdx+0P1z+0ZtSq7f8d5Cz7sXMyps8g+NDkbUKTF9tTf2/+yhWo9wqyEbzdqfwnfp6I3slhqc6pJ5ZFxPWQ6LADe9HaFYXkNY7yYURDjo2aDLhUBiOvqFOM8n6RNOsyJcWIiAfyDGqqA0P+ttRZeCOq22nmztuPXEIdUJ5ggzzbOU3rTr5QC4aaX5LG6i+2g96PS46MSh+ssG/faJlIlTIgw77e/70XOnDoKqbfaSVmYxIUFeTEDjniYxlMfj6d1O+H5I5gar+vl8dEgupnb9p//7g/3ZvCj5or/8v1OaSm5uLXyNHbf+19Xr2vH4jZJq5y8X7lLqo3HUwbPxjJMYzGQy7Y7bD7icdVfU3jR0ZWwed1MLrJHqMdWxwwYmGR+oKu+dzYbQZXEIcNNziJozgejjW1ji2Xl1KwQh+Wrc2zFW5RxeFLnzni4Dd5ho1ecFuGml+QxuglGWwRmp7olUJR7L+sTUn6dPOSI8Dia+r7V/QK6MBJU9qImxZqH1Els6ane4c9wQmNuiP2f5/Z977jEui9wEIRA9u3T0628Gu726qroDrvzm54nbGpTLuRUP+78ZTbXluqEol88uHXU5InGx7/v+B+kkPp7OHVK0eeHMCW3bMPMnV+Iy1TEuH6nM2jjdLZ8CQ64bEsrjdivBoC18Gd0EIRiTyUWJyVCJv28ttEAo92NmZhKdSqKf3GvdPohCF83Xr3I4NJ7+/InHmyBKUhiX6DiyHBkbuGml+RxuwljGxREBE0fFeQyJmPN/8rrmhHG4iFJp3NTAyXRowU0UpH58Z+30zhJuLo/nVi141PP90EZlcrXodQrcanr0plu/Dz+lo+RuXFJRkXb9yT8H3a/4+z80Hj75c9XpWN5lvhsWYigb0DjbfDvihyGZMqiax+e7hUTdHWg87V7vv3XwlsO8Ood/hzl8TNKz42EzCXLaYx/uUWcLv/TS7CUD3ISDYLSQbFeFsLaoNu+9ZYGxAir2ZgHRfIddA7P1aR/4EGJhFgIIJte7qo0k+1JfObMvZu156ymn4dLEIDH1bF1d2+R46jK8pwu4aaX5LG6iGB92aY9IVeIwJBpu/dnriC2Tx4R19wf/OPgwBYbNNnVbhekjpHjlTeWT2/I09Pxs1UrvztScKkmEFnpjEg0LyXWTfy58WEa9zEEQHs835XD3z1VnK6GmXef/73eW98T1xfRdLyb82C+jbDdscrfda9cN3Xo722ii3eqiE0TOjmoYnJTPqDcSGBy9e+n37TvTyVDynMxk1fayEBq0HN8TuAkv25L1Mi44DA4VhhcVORcOtY+ePO4e8qzrgKiih3+AYIjuc7GqY7ux70IeE61ZdLpEAcIgCKWG2igE1jNgZvy9gtqGm9ks0Wt+nkd59km0+Dr4Lin1Nm0XGkZrvPosTOd0E2mfqhLgppXms7iJrlHaUDNRZ8sh7z0R9GPPUXEOn4nonh09N3nIFYPTN1eZK4vhhW2/8W19AwFdHh5JzoPTvakVME90d0Mxhu6jsSedt9WJ+VwJmG6he7p+c+mkTsXhqf/489WZUXNZyU7PjphZxxCUH28tH1w+HTzh0Bkw2G111JXCwRC7uesB/UVxDXFeAeXnv/bcWiYGs2xVLadr5G7Gkl/trbAU1r2bIJhJLbnQeX6g9aJ2ia6u8dwG+8Lf/eRRGkslKlp4Ve/5dEowLjGnp92DmzMENLyGtniV8IwtnsYJLy2hd5CwuPa4zGG4mqQblqZQySARDeEIJpr9aWErorqH1yURYgqn1+uSGC9k787uczPB5vKbXc79FPBQgcIT+m3pADetNMvvJjyr0eKdbhzXUhNwIZ+0axvmbeJR3DECneOnZ/1DEVh87mh+Nn4bg0g0oxGtUw+spE7Ip96oJBMWWkgBwSjZ1irbHhvAbs9sxWT5ZF3Y/qipMmubzI7tMg2SUpJyZ/dmiyEo0RZqFJh5YKOV5Kb7uw2TyXgiEEYSGM9vb7AvsHxw5GbmhkOZThQ8TFF5/86DxzUo77rjfijr3U3Ey8MEWpE/Dj2Ipv3y39Utl+/AtpknEuKeNrNJHC7NSNfwpuru3Y/aMpwSMR7C0ijuDthqZgThq0JizdL27d6teu+GRgjCJK662HDZvdu7j86azDUrkrmQr8G1rvM1O26OGLHYTTaOob40GEbhRCflY7f37D4+PsJGOAhEyS7LMLDTt4sd0UnR0GM9e+4nBIK4/NAzNb85/0CBRU1/WP59x8F0Cu8TXQLctNJ8BjcRQ3KFv34aTThC9/n/i3+7wjDiMTGdoa/PoJNeadTEl+ks8ktTcOOLeBpUihiDxRJLNIrXZ9HwjRZWLaTjS8HTeZYMBFEpIQJBCIVKorIYRH9LIlUamcKiv3+I8Qew7t2E+yJ+zuLqN5Ob6tryrM3cQykcbnyTwTADP/Ohe095zNya8gy69XOh/RGdEBJV48Jk+EO1RAgVGG6YaL811V5468f+yA1mdnAL1DQrOXjpSW3VZOG5AKnbuqE3Nnv+9PV3Q5M5Wu4S5t2W806sFqx+fHtfUJBzt3N//+ipsniIy466O9C3eZu5R/fgQKflBuvhlzpcYnyWjUrjzGTOQwvnIa/NxysSSZ86Qhy4aaX5LG7CwTOK8NIRf0XX8Pni8xAcPIsLx568dp2f9295zkLfFzx4YQjMyw2hr6cjajAl7svPwxctfiqgvQnCIL3oizkJ5UHnbz3x9LKX0Zwt80M4HL5Y84akW4PS+9INRrSLCzz7W7XUYd0LRdPbXUlkx9MuV4IsS81GDG7styyfmpivJxtoTv9ccyBvJNugbUfNt0NboivmZJ0vBUieihppUh291FmnwWCUaE5emnx4zzjWdd7cOWhiVpHnmx/3p//5mydJ1w9cu2DV/rPX4WYB/GzsOH7lYUGZSuSt//i/vxm0Si3zg91a3jotxocC3LTSfC43vcJiHf06WPduIrp1czkQu6ks7N6+M0/lG/r6r84UpJaw+MmpVX/+2WPDXIZydNjsye5vPA8G+mocLpo0dUL9VPv+9P2oZn60crT2I/mun2bum6ld7HuScFtQ3VLthtj5X7x/1ADjZli02x+r53xlNNt3LuFotpGhXLmndH58S/XlFrLjtaogybB4wVzvH/8laGc6ufqXv/kcCLjksUcXWeiESUxariexs6a/YyzS8+dyWW02VXH89JF8HzGi3WrJADetNJ/bTRCMEu2cTOHc82/v/vKxQDDG4bx3ipXPybqv06GQvm6bqebNYbTlzh08JX2l6Ise59s35WUHFgf815+vnjt37vytW1euXOq/+0hJzN10svtUE1n32vR//e6SaNWlq+fsTdwND3ZMFcxR/8bEk0T1fQJjWXdQZanBiFR3llv8vMsTlz0+w6p9Q3czY2k8DC8d649bzkTcdlKKivvu60gTv2q3llzxa15Pek43IQsT6SAIZDTecOt7j92uFcck+69Uycg3BHzdft+VihesFw5+KQA3rTSf1U3EeClWvY236ulrKvtn52xCyR/0orL3gdftyGwnwwz3N00QRWROLufzv7lzvbsJr0AllpwK/2ZaU0eMz0EQLp/PSU7tulR1MdDxcc334ddPp3nfvHnPZM9T01IbX6r7gVq83AQppnr91G51pC2v7WbU8dJrmkdL2LGqkVNFxU00jIORxW8+aD3UTIPV5CaDD5mJVesfb5waPRqraOIyZL/PicZnMjGGxung9hhtwfB85I/nG9rUORy3ltgN3U8iU50Wyk3EhUm+1zoU8NDfiI853ZYa+OE3v/2pfKMEm/P6xDofAXDTSvP53IT/Umn6Fcfk7b0GC9vLy9sLPbssL4Qlw8+1gdfzXvs1vwh6eaVwkQgiFoRD7XZ2uhTrYqIJooRrREsk1rChd3oo7UUb07N1y8q6r9PhRVcxM/np7wZPpIkzYISlbmOyZfLS9EMFffbeBwHtrbeVIB4vUWGDfZV5mh/LeFt47SlbJiP65HSQw+MmGseNoXOxoEYq048ZejviSqH5zWQObeRI8NdDJwN5zJJDSZObsoxyfY/3nEvYExtifKCosFGlRJ9KV0x70DEUWVrJtZuP+GHKPMuOw+FzHLcPnI+btRXV6WCYS3I9NP197TZrI4wWmifT/6//cWvidIkYE7hpTfH52sJhSKBwuLF/pmfH7jZrf0NlrWs5k/21D9qyqUwEz9jC4QTY8/dRE+3WRNjCHEyitfjSwkpiCCf8bCUE81ClRwVX2rcZEG56PjJB2BcKRcnJadcb5dVYxMbCdcL94NXJ5c1K695NxHsyyZVZMs632qsiW1sdEqafTHVtzVKiMyFGxZmx/qHuxrixPs/zzieishkhZiedvZ76QAg1drZ1Zqq2Jy5u1PPKgNW+ClY1U135YNf5oKSCsaKhmYmzNqyvOMP3Nk2X3z3qKH7PPqjxjAYFqT/WMNBPJJjUfq7qoKERCfM7HnmrfKu1gMnkISU7B4KstMQRpigDYxjLVut6+LnyBIexyD7n/qmZwv6EU2XsT5qnF7hppfk8boLwSn9ISp39THnDoxEjCDcHk4vSffbFdHfuMGS1cFEau2J89wbN/Tdt1OnE8zWyXpNuvV6T8qPHqVE69SxWpdn8tYuz1k6JMIZwIXHrPHcjPZ17R08fnQv0IyMtWOztsSsD2x25HASFKIrpmddOHa7LGmFTYZjqV3K2MUDq5rAvHYYhsWTjtNTDpqdvGtczcFsuY24CbsJBUKqf69zpbeZSkjK7UvPVlEJoxJNRFBZTit69I0dK+uFpbwMBDYPJfsZZee76eFkLZVUqzB40l2zYcjHN1Y9O3E8QUnxFfrFMr5TckXFdfZhoFdJvyj99UcvVr9IwP8M2kcblsup1olS2nHhwoNS6KR7iIgirKa20zdWPTHR9stPJn0tRFFvU3x9G6XrGbafvy23VPDpn5mpzbJvMaWP84ICb1hCfx00wDNMdL/b9WLgpLJHHJfIfXrxBaSHijiO2bIjja5Nq3tdRjjOQtHVcj8Tls9ukk3rsiTDPga5WacueooBy54GAgroRfeQrTOF6eKfU3S7n2tra6SKrUlseR/dxwg8D9zX4fLKituZYbcDA4EzhYM31Y7p+gaWbiq78cL5Ier9CaL3/hd5O50HPmRnPTvPHZqH05egQLgK4SQhemoXpYiFG8foUKsJ91kEbQjCExgiJDxGjIkSRFQ8RPthbWIUSq+Lxewde1BUGEbM0kfWN4n3JeLkXJqZtQhAai8Eg04gtidOKb4VBZN+QRAoNxRMkQml0+qLp64gcJloUQsysAtMZvr4UGoJxMapvvD750/q1ATetNJ/HTXjWClHYGX6p74gBTTgpuBA8D+L1K1TM595153KL/Xk6BmEHu851yCvQ/sou9frn//jO07JOIv+Ux9Bv/1J4Isq95HHCn751MDH6pdrf4g//46eeC95qBja37W/dssyvjy0d/aH8YNMdvqtp99WA64/Sbcq8T7nM1OzMCjQ+JtNROKqpbeB+o9hjsEhmt3aKTZZm5Ez49Sw92jJMKicCuEkEUW/GK85EZXvx9ycuNhH6LHBRdzXCRQsbiAIWEnkpCA9A8G2JpoHnCRDzM70UY9HyG8rEzzcgUiFGJojClwhw00rzmdyE0owMTwZcStjvTnrJTVyMg+ie7nlSu02BwmNyaPXass59R42+Mprt/Pd/rjrtA3OZfvtGz/edHiH/g1ciP/V/hkxDf7msIPX7fxssVnJruVw9fLb797e2lfjMjv7obKqL2e3zmPK636bmruFUkS8z86fB7Sn6ySatNQ/8Ia6GSs03Uxal+LqmEuuLEf3BdU6URXNYfyLATR8C4QXR4loHuGml+Ux1OgRilByq/br9pAK5ZeHpCH4XoxqJ6/qECtJ3Tvap2CRyOfidEZdLY9LF+hbBbNJvvrfSpn/Fb2GlOYQ/UAhBLmNOdX1fz2jW/5KrfPdKh6maPo/Jd/Nrs7pya7NaxeOar52fOtkpn6y9NFTUl9TV1ZlUE+7p3Lqnie4bZt4lk0GCbXYMfPtz4WRSUmdnV9XkYK15VDYL/7rCA/x0gJuECOdlWlQAWgxxL2IymZ9cYnkDolP9rr0vN8BNK83ncRPRFl7fdqL9UucFnURE2PWSiYi5XnSYHDutY3Z/snODsS+vhceDjdS21wafMfqKfTvpj+c2RpNzeXxGW+RgjEQo6TJWcc3rT+2mC27qLjZmVbdcvlx/NOl3V3YaV+yv/aNzsS7DVbNm5u7jPO2w8XGJe7fPPFL2CYEYGRu7NmVAmOvB8B+cT5Rq7x0f945SPXNboiL+1YmAPgHgJhwY8hV3d89mk9/01SGab6WrYbRCiVL8J09Q8hI0CCWMh+/TN7vExkdAWehi8pkBblppPo+biJITlW2z3+PceRdNa93hZEVxRwnNiKkhj2s2RrazY1PlOVq2bLtQNZXGc54b91L/zi7t+vNVaesFNzUOjR23pf2Vm7L1/P8S1ukMpX77v4e2GrL1jbKPFVy62pufXLFh4LeDmj6XEWXzoEKp3TbqAj2fLLmkTtm0YQzVkZ2MM6knV7ZJtwfF7TEe9lN3zDrg0bkpLZQGLVuGAm7Cvy+HW3GoqmhLXijGgV8RBIpSsvMfhP9Y2Cg3X8Hi4BV7on73ooonbEl6EYD//+LTwtKi9EQBC0EwwlBK0dFl01FMd0Nf0kF/ddJCn7lFcQgWJ7AMADetNJ/LTUSBnjxsfbi1digooCohuMbZc6Cr4WJ0PcSkhxoejhwc7HKIc5memTQ3cRLjVrP3JfzxZ6sw1mUenzJXMG0ukQx9hTVvOf/vg0/1frnjL/XdH4PKayMkezsLgyLPanCYjocnv6vdEHvZLTRse0+5Z1HjWITXgGfPgb31LCbXtq4xqGqXmT7L/UxvQPtkY5xHVXl51XVVdwbRMCo6vk8FuAn/vhyu46GagJx7lRgf4wpnahJOzUuUaZhMu7CtHe1Sbcm++iw8KoJxhPMvPZu0iTiDGJPD4+BVPuFWeNkaX8vhYnjwQsTnD/24zGfb4lkU4t3x2+81vTVawOSH6LRl2fixiHFyeP1xYX4npmh+QowoWyF4rZJD1Co//dIAN600n81NRNaFafpKGWd2Nli09jbIXLgXqE7BcxHR8CQYidLM6bWw2nomo5ICoyhXLGXPds2oJjoH41Kb7u0ztCMhTKj+xuNDdf6+/80Ls3eWa8uUt+y1lNbM9xGDOZidzvH9pYYCok+lkWvmAfO7BRY5h+65x1PxjI7fVsMubCn2N4JIDB/vwycsW1vND+5TqyfjhyQ6tGUAuEnoJqdrHl0P2pJRuN5YwZ1Nic92tylxUqdjGEbTeOxw61zPhfGS2HgSD9PX9U8zmVU9FuYYgmIol9I0HuWdkRHWlm+mJAj1CTQODFSYO348P9qg3s9Woc1kPnM8UE/oNC4U32SYZTJbunt+rrkSv/VQ7fZuHuiPu7g3m8God3eNZeNuQjCSn6u21r7b8/lm2RQuXo6K11Bozg5J1PNxNR7JDiER3a5Eh71EgJtWms/oJhwIhmESWSwkPsSXRXtpqhISlZEY4ov/noVZhoZDpb6Y7kkUTfgJvYx6R3Zfs2uB9ONDGMJJFYVrcYRzQuEGZOkbGSUyqM8mb4IgGktMjOjOgq+lMxKJjjOL3+S4LAA34d+XiemenejcdFMRTvSWdg7ecuiBQ014eLBV8d5KKiVFs+abb38O6C3OsKOyMzQjPPvLJ6f7pxJOKQg4f/c9FnnrXHvQuSfBhxVc2+QjJzuKpgvPnwsqT2g44TB4vn2gv79rZ54ekw/F61wbqy0a9YgcLRro3K5Axmz3RJ776ZtLngkH/F3PRCZt005GqulNJpu6+9s7OgaflFs90mWgcFNx53Sv/E4rl9qByUg5VWMBdVF1bykAN600n9dNOLg7hONRXqlNEcWnxYFEQ8Gi5ecLEITeQbNGZ+R9uMyFziqLVi0sEgZcmKhJ9FkYIjKYcD+v7X0ZAG7Cvy9Rborw2piWjPiOx/z4n3+51RWz/cKhmPKfvYrdGXYZO2qD4kzEfcUSAy/U3KqVuZ2uazO/KeCJx6zfHbGoiN//05OCp23Nofq285JBv/2PW3frlPfu9/j23/4wcH2foeH89Zlbd+cYPDsJ2cmOnJvi8WIhZg88w7enC9gjjyeGzledUBl30jlYPiV5c5hsFHZ95nzEBm9Xp+hihxlnWWUKz/ba9L//x0/tEQ8OFT90uTXV+8iJsTDr+FIBblppPrubPhmYjwRe3K6lSFQHRUGrAeAmwk2YxuGEGlnvUFRMW/rqv9zaqEzJ/etXyde6n0w8yo4PfNo1IFPyt1/0lXdMzvS2sTktuXw4+2xVodScEbst8o8/WllD/7hzGRU/FhN0yetUM/mXX4aLnf9Ufqgp9+98xg3poA7TEv1EjfGb2iVK4gb+bRsihjyltbLdfok/XRW+JTqx2s19R3lhjIR6ZWZBYc39Zppbyx1OfPSDgVpNdzHd/bX/8fvgOh/kzi9ImOW5wk15YB6CNcaHuomYeITH4/P4bm5ufN7CE9wPBMY4zE/pVgSRyL76rz0nhrk8Nz6fx+MIX4+2dC3AXGIiKKKtlilqRf0wgJvw78vDHA96dW/dqw6x0yxufR9xe5hfzasWlCYMNZ5xYpdsqBo80Zz7j8q6xvK40mxeC0zD7sDave0uZ2LV0yZ+9jxpSM1lcqDsY5JTgztGIG41P/ZI8LngI0ot1RhZR3amfKe/Hc3XQGuXVaNXR21Rx9TVgYb5WN4vgsdJAeY3h1FOxcHwQuk8RZvt5QH4QWBEjzmksq5zYFOYeGBxx2+eyCrQqvl3YP9N7TPSaXbATWuLD3EThOdCcr3x3L6jZ/bsVp3X8s4YUfQVjnx6L/impBANBTVxBp7Gkq8lhLyyLwiBQyr2puV7h90oMzbw0fOF3iUW4kHPG6dkJQ7JyNHQrIlNptjplpTYGtE++CiBmwg3cUe2dUzu8BdQQzPjngTltCVjPI6b+pngochSH6OSwwtuUkz1KB87Y8usxvBaueKePk9Jbzb7psOPnlv86dWEmzKlhsJNbTk8N45S3eitosO6LbkoJf3BTIB8ir6iSWt4jeWF+fwMV+ttte2Wj2J5/4jfZz/dutsJdWvaFV4Yk6dYcj+gXG5cD+NhTCi+bKdz0akRdqDm9E/OB9NZPM5lknJOUPv1LOCmNcYHuQmByMNpMtOXLt0aKpwpnBmcTrKXuThX8bxL3aK2HxHPQmAYprhfuyt9fJj8WtciIs4HXN43xIJgJlJx2Ot8UEBHUWffqEdBzsMjebaUxU1Oz7fCNSY2bJNh1mT0vFJIrBMu4UdHNnhaYHE2MMQv44JlzFlXCiqcGvF5jLcD3IR/Xx7XYNv09M4bfjS9Y/ZPZjZ513N5TKa4yuRQQaa4kc0FL8/ram5/D/HX7JxxuVYSAqGheTs7brns9rvjmxnxc/lDM3oLkwkNt+X0lx9s4jLdOOKlDk86DjVVX4ZDlKWDak9VsEYeBp2Tzrf76y9U97qIc+c96iq4/62fllObYGqMtDTtCghq8NZLzm8YCM/REieTWBq7LdoHNlkzUPcD4T/VHmom85nVLO/W856bw0Cdbo3xQW7C41SccegftCiO0pZI01I9/TDC85zX9mgjlHhkj3GFfVqejx0gBlYSIUQQgpL0dXZUNZ5uYkB4BKJdmoiFLzyL83xAA9F+LWy2JkZ9ikKfJ4XX2oQBC+BuglMeBAX1XthtYjJ79OL2hpr+mcbDZiFclPADnvqzrYjJnriVWjKjFo81SFxcTsIUhcdLmAyC6HrNcxI2bGp9vkx3l3yZGIqI3p+9EEO0wzcA3IR/Xw634oDXpFyYHsnu3t1+Z/loP4yDkio0O9pzvEONbIqTAjaqMS9jVCUTq/D2yYjWuwmF52vkrUOZ/+17zN7T5WkJ1Y3LhELD5AbKt+F1OjfO8KNez6oLTtWXqaH5FoVJZ2Op9TdzpsuDG7ZsnOiYCSjqGKiRfhQbopE6MdC92TvbYMNku3RaJYka+NQlaCBprHWiZqp/ItVdDIXdD01fDb5WQuZz+Yn37M9Ny0fHc0QvjV4awE0rzQe6iaJbWhDe89SYldvCxTBI78apBE+PuiYKjWakoTx/+umGunvNxAQ6+K8dIau7eh99evj0vLWjHxWDxVLud3o81qUgTJKvnk9FLJuKkGhilTpte1QuXJzV1gjBD4HwCY0V4hearJeoP1w2nqFhRycmk6PZuXqfObyhTkutnr7oVeEQzEFSHgwWaaYLECYC0RiKZqmtQZ7mwgkYEYTK1tCeVdlwOlMhm4GLhlVSPHqu9mG0EZ0Gk1jqrhKzZ4uL90g42lGIjgVi9bZKdjRY8aaMV8IuNQZCoiSnpJ25tkFl1rrCjkKUoEQ7fQXgJhwYYrtaa9skM2CqbdbRTBsBmejiYWScn6ZWT2EJKpTzmtVhDNc9K7lZ6/Bm6U27zuS5s2kIymXFGo6b+RjheQ6BKMllj25H+xEzCIqJp9xQaNJHURJl+IaWhBMDhhjZ0Uflza2uH9wT5joyvv/AWe1sOmKXrlq8P8/HzzEvX63SF+bAiU57S++fyHlweN5fyRfGS79sPM0wJ7xoj2BkW+V74yPq5E+ZLRy4aeX5sDodTFba1xuedMgwkc/HMA43Pl0lotzhsaOdY6ZcT5VXV2dV92TE9rBkOor5OqXddwif8RwsD5h0Md894suyuZ/kcFSJTmK4l5qPxqnY0KqNrA9OdFZVdSZVdXjFlI6EwBwSeyRTvtcjojGyVWqsxjMg5h77r3z16GLLqvIBT88Zz9oJzYwQHleUGwg3GcsOduyIVsfdRJSSeBTrnKFbcbPZPB5b7fEJl+lyYtKmbntT/+TYmw+qpr77uT9hl3Wln81R876qrs6uotruApUy/KdBrdhz4vrpFDvxm5tqXEx1BOISp3q7JqfDA8rLpyPvz8VS3jbDOXCTCKL0SXx1OuvFGRC9i/C52CGEi0GsxPgQBk00nxOx8lk/Dzw+mYxvTCwJu5YsbEujEfcOoq2Rrs+2MxKj4omQKGIUOpWEl77pDF8GXbgFsRMIXZgVKpEFLUwKBZGoRJLPdvDiUJYMcNNK84FuoiVHxYRPX380oheqmO2a97R1OqhqV0Z2Sapln+QZNY0mR++dnd3mx5QguOJIRGHt9d0Krgo3i+0HvOS1bdU0E8b2uNsqb3CYKbc46uhLY+hsr+o7leGoq1RWnHA+YKsC7bLf8d7CII+Dx/NU5Wq+/80//XvAfvX/JklY3roVeViiREfisWRh+2Y1Fl5DWzigZ266oQcJ2xCQaqbrjsLfBhzWQBMlNpYXRh5qU1PzPi3tHH49rcng2ObJK572T82Gm+7JJgXLzBtrOI1EnaiaOGJjBFHKHnbXykpUKrVtqul5quaq2tvuWXBEWy1QTTXHq+ZBWj2T8+YsCNy0AGEY4nvjUnmumhdhi8u6eBEWxb0kCsHV9Px8PRcSEfzMIkQdX7RE1PKFSiMSEamLqP4TAS8SxMvZi2eAepHmoqQ+AeCmleaD3IQXhtXzZAKuDk0HRzSOBtdMlw8Eb7lnK+ZbaRZlMu4eGupktluy/EmfyogYW+L65Og1V1+Mz4VC8x/mmEpUpF/o7I7Z2htwtXzjXDIdwUgMpfE9j3T0/IYr8rZ1/O6b3jA7paMuU0lnnSgIlyZo3uD1l/90PjqcfTThxyDzqJIKpyYfg32RV4NkJPRQpjA/iNw0LX9DDxa5iUu4afqIo88j+6mgu2f8XZucNGweWXh2bLkRqltq395lWgIx2cZt82llTqGKjsrXHAaLTuZVUilqO6pqToYpKt3c2OVxMaVC60R3e63FoX3RgSX+eRLpSr7IWzrsATetM4CbVpoPdpP3xoAnk3dPml7YcHFPlHWKrjoDgqkhFVr3JePGIj1cvNrPDSUUu8Zn72vttspnCyccJPvpOvrUq6ecqv36x6D2oasdB22oTKLrgXr005yCMYfIiGDnJ99clbJWyrP88VKDIXqHC2OXScqtf/i3DtVY5dY//eXH8ISe4K6u4L7uwvKxa+kCZKFWJ3STnOfg5jxFCA/B76stJDOZ/ktx93zKts58/eNMTV9SZ2dSUtGgc5yKcfywllV45yEbiEn1a769U0p4vN1DT4pk07JJJFfN4KqTYZW2WuZeEYeNxXx1tS+e8Kiq8eoK9jhRZ5jMghHhOXgN4KZ1BnDTSvOBdTpSaFuOc63MPSUWmUGh04gSNV6gEM9/6FJlv+tYdErguGZEAO4msr71xtouTbV4bjUHtcvbZrXjpmvZBa+ZiYvex+S6w2NMYjF+SMrZOOeuB7e1m93NzlgWnpeyTjaTDbrVG0a9zOfxqxl59ribbis1y175fflDbzPtubm5LJPTZySUKLiUFg4Id1PJFs/BBxLqnGoml8ul1ytvq/W0mmOLGR+Y/q7dfDZsHN+ozeTM0SwDX0jd+mGXl7wajNnelqwJjnnalmHj6r1tNHjzTSUIcT/VJ3TTsZyaiMMpifr1sbo+SrYGCjcv9NbORNQpcfhvPivATesM4KaV5gPdRB8+bjHQvVNbwGQKB6fhwCjddUPCoMdTnUSWusF8Q/v3zvL+iZDP0YKZgJh5jXh1p6wHHZNbw3zSD3T21PmQ41OuuRR2aeoYKZkU3OqXzjOi6Yf635/+w58cjtXrm50s97zepuGXOKzw2LL9D//RkRqKNJ3qmLo7P5LMtqt03R1X8yA6hCYqxOBuQkvkgp5YlOoMV+oaqEmkmk+eGzRvU+ehRjqHk9odzprZ2tmJG5dK9uVoVZJ9HVMnJqWzjFhqD7trZY5p6PsOmx2JHOqPS7XRp4+YBtfISgz7HG+YbFQxVlLWvFtwUFvJLtFP7WxcYceuCl4LcBMAB7hppflQNylmWk26nFIw4j5/VgYhNEWJ7aPTwTnbt0l7eNXUBMx0S982EOj5H3YoH6yyvzsaPjiqWZZIDzzQN7ZbiY6i9W0bp9sb5oadZi2day22H5KL6/LqnD73JPiUmqKaZvDMQNLYWEKNc/+Pv/tzVardL3zHiz1B/dONd8eSnAsHW1WHUa7o10+4yVHT+btb5UVJnV1dVXgF7O4hiWEW7i4mqWm3VIdnx6j9WN90e8DdOlcKAhn5b6sKt1AdcTfJ6Z72eHBfrrevu7ZjcGB0W5aGTnFP344bybbHzZPu1o2wfbS29A2G97VKS/VMl3dumdPjgrZwAAFw00rzQW7C8XVvO3qsOZm1aO5niERjZGtffCDZanHi4O2MFO/ijVvO6PhySOopj7Zb2RdYyu1J96PCUOjeo/tS4kkwQhNT8lY5a5jITSxRlZfubbV6UBxmUPb4utSBvcn1hqpP5Tc2SMql3lNJ+PqbCRO7XB5M8Wk7EFPgYC+1uS4jWTiDmAgIQ9g6jy5s2yyzeeuBIyZ7A4eNhJ2VcGtBMDk77OlGS/s4Kdn92rG+VLyAh7Cbd2+VPZvO1ndK0zSXarV4UByVnq51aPOuKMdY/9uzGZViAtc01XvN6iRYTDFd9X6Oxd27VnJHrLOJoTaifb4CcNM6A7hppfkQN+EQfU0W5ksSBTyDRhaLFxjp42YgUVkUCplOJfxApSSy2SEMfBkXGL4VMT8TvinxaWGWJholUSCIZ9DxEDKFQSZVprpMPrjpGsoiC8y2O19xSR1hMDEIRiC6r5GdIISBl4hefgosTJhOp5OpVOHrzF56Wg3R8YNiJxK6InxB/Edn6Iux8IOkkfWNBEa+ZPxo6BQGi44fjgg8Hfx/IjIN35zNJiaEevXbLgK4aZ0B3LTSfKCbcBZ+569C9KATmgGH6EUijPIiUBTn+ZaixUUR8LohgnGN9j6cvDqVsLXu7KbwP/80kenHFI4+ISIKx7E8T+AFCzsU7vjVla9vJYwrTHBhYIxwq4XjFW0vDHke9207fQFw0zoDuGml+XA3fU4giCpIKZUtGPUq6px4cDq6XjQ7/SpmTbsp5WCXs3QacNPHgLvJfUPCYMQG4KYVYnW4CS/OIAhJTE+juaxEXJ+GL6961rKb4MALo86SUexq4KYPB6lGAw94eU5cVABuWhlWiZtwiPEIwrEJzyc0WNWsXTfBPDjWRLo2clZwmScKArwfJBc1lO4fvL6vWbcJuGklWD1uErJGft44a9hNTFhgdrC2QzOWw1kTt4HVAH7n5BodH71UoylR0lQB3LQSrDI3rR3WrpuIpv4QCSnPzg0pvnw+KnqcsHp49oBj9YAfETcX9ZltHajZNu7u6OgO3LQSADctkbXrJvzYmZiRgmZXYbBmWIU6C/8m+I9v9YAIH5KuIhAEEsu+8TQyqFy61NDdydHAALhpJQBuWiJr2U34kSJwiOO97RPTA5ONDVtNz+5WVZ1dDex7tOeUbM6JHftnH4lCvjCqs0evHdwU1xnQP1OVc3qvAWGmEQODimyjZxNSAz4XwE1LZE27CT98GOVCYsNlx65tf2AV5xC5ShiLcxn46S+/OV/jEDchCvqi4CdmIs5SetOWg6ejolMM8OqcAVFq0hAXEFOiis4l4PNAuGnEFLjpoyHclJw5MZT0dE26CYeYjA2FqCy2bYqhv6GhwmpAx0ZiV9K5QavSMpt0UdCXxqxMLcUmcMRRQ6MCN9PIyIhroIGSETGiAfB5wd3EcLww6SmrANz0UeBuIlfOe0wlXfNfo24iIDpuICQxv+wm4qf35fHJTleJCJreeFMju0kU9OVxd8dLS7iTcPDqnLtGtoDy+uAtwLIDQQgz3sSlUHIumY6tgS6PqwaIibLNdnX038000DAY0VijbnoGXYydHOv05RFPTjkSOdPxIN8n2VYUtKrwGVYPoVBFJw3wuUFz4QzzjolUdzKfKwoCvBca3MIPjYoZqN1iHesz4rrW3bRKDh3itAi0JJ2DTQPhltV6owSVuZUD4cO6ty1rHR4T74tmPnsLBuCt4PUgjMnnc+K15Tq7Nt1O121a+25a4It/AZhX/cxN1avQTUBLKwzRsyzE+kS584lZtWG7EArEqb58ORfwFi5fdkPJiQK/ikdWQd91H9yroeHu7vorcdMXZy2UmwArCcTlUnzadkx4JTlIycgXl96by8oHvAXvrMy6XZslHZI6aiO27jMUdnhxdW2qFwPNo58OcBPgNWCMwxSraDtyf2Nc0uS08/Rqwbmj26urq6Z29RyS8/RkV09BjMzBPRLGGk0aRH8Xg8BADT3Wp701FkAA3AR4ExCM8XIvc8SySwxvZBiuDsrSlec3bLt/Ok0h3UwU9KXxN0wP1PCJjbV10hB2xCNKTSO69fo00E736QA3Ad4KBEH0xHpbx5ER99WAbnZZ8eiVwhgTx2wNUdCXx8BA2NVFSGCgTaC7rbovFYhpOQBuArwD3E5UX0FofXLl8JdHXeC+J659Ui6vUpAsClpVVCom16vHs4iTJjp9gE8BuAnwbogndzCJSv/yoDy7ew3hnbt0qDySKGhVIXyPAqjMLRvATYAPgJi35ovDqTZKi3HuPGADV6OioFWG6GwBlgXgJsBagdnCbiPcZAyBrLoeAG4CrBWAm9YXwE2AtQJw0/oCuAmwVgBuWl8ANwHWCsBN6wvgJsBaAbhpfQHcBFgrADetL4CbAGsF4Kb1BXATYK0A3LS+AG4CrBWAm9YXwE2AtQJw0/oCuAmwVgBuWl8ANwHWCsBN6wvgJsBaAbhpfQHcBFgrADetL4CbAGsF4Kb1BXATYK0A3LS+AG4CrBWAm9YXwE2AtQJw0/oCuAmwVgBuWl8ANwHWCsBN6wvgJsBaAbhpfQHcBFgrADetL4CbAGsF4Kb1BXATYK0A3LS+AG4CrBWAm9YXwE2AtQJw0/oCuAmwVgBuWl8ANwHWCsBN6wvgJsBaAbhpfQHcBFgrADd9GSAYxbhMDo/Hfx88DpPLxRAYEm35aQA3AdYKwE1fAAiG6PGVFc3RcyZnLj4tLn76NoqLVU6XRo0b2vjoidHg5dATcBNgrQDctOJAEMYV7L0fWdSd5NBrZb7pnZzIkSpo9JrskqoboXMQ6JPtBNwEWCsAN600EIcjUJYvKkzQzDOuiB1ODtV7F6GK4j4GZSYbpwsd6gzIfEyUyJIBbgJ8NBAB/CEIY4q2+mSAm1YWCIFJfjcLgrw26CTyct34PM6bYXKfweG5VSPJeRs9Ax7qMPDLL0ro44BgBN8xsfCqm/A1eI4ilgCAN0HkEKI5gUZ9DzQabjGhoURbfiLATSsLzET8bpxsL9zpyOUgMH656XTRlV0EHiaKvgCMuZG9J84nnTYQY2Iff+FhEkPgF0KHCAe94ib8LkdjsO0S6UBPgDcBYyT97JTxY6VnT22T3ShqaHgzMnLbN6Sq3lMeqafA6HJkJ+CmlQVxQyrORgw6zNr9lS8wbtuz/9rF13l65JG/kj4JeX6BkWrmyP2i8Jyb6nzOR191mAkna5+KOdkm4HFfcRPiBpdskNw46yrG/eTaIuDXB4ygpFhVyemByR6pB/Kahze8iwu7dp5oDZ4e9JKT8EPQJReeIBhFF3L+q26CUWyh8A/4LCAtSKBmUrhkVPwvbiOH7Rt7G6RzcqQXk5MT03tX6qGJI5mDijYiwW5cDRWXgLv7Qt14H33NIQxhOG6Y+V3wcUUqhi1yE8aFfVO2Xv3TRJYeFXu+LwBABMRhVppIegbEZOqy9RkUCuvdUCiMRL/A0w4ztSetQ3hLutnBJLHQ4dBEOkzY6WU3wQiNIahUFJCXq8oIeAXCTabB4ZJa8b/wde5LHYpOFqPSKYshQ2Ku+3YdfFQB32lhchcKx7ibKnA3tS7JTcTmnCbT2lsudbFMPu+FmzgtFOUHg09603xzuaKYAMAzIBQmVz5yedKoqkTmuL2tYZSD51EEgREhKJeH+bqe6uiP0RbQkI+viOFF/FDtXWOSpYocLvSymxA+SW1HhOWZEl8mKOJ/Hl5y08GGw+lGEJO7cGFFcFsgjUcPN2/Ics9WElcXgzBcT5/oJgjDKLp1Hb9xfpxNbfmKveAm7CssMUP6u+/Nle0gJqjPA14F5iCh4w88y+838Xkksr6RnZ/d6/jZGTEWN45CiBucITnUbaoWwsT18pFAKEJWehz+245UHzKXy3nhJi4TDTHb/PMf74YJaCjIrJ+HV9x0wcyO+sq5RluoOqaN05PBDvYTHq2mGfFc/M70aW7CLzrvst1s45MizUD+L0YLbuL/Eq/V2z9wUge7DOpzgNeB3VDHi40D9qp+f20JvVF3/+Rm2dfYLHPycFQgnoeftwPhxfGKw8HllsfreR/fNErs1C37bNKl7gsVGF7Ef+4mTgtDIqa/v0GCcZkpiglYbj7ATdV0w52dNZIb0gznTB0CimSO2bKQauanuYmEYjS/ccsfCzVtmfH5Dc7BGxwRlrfDdwEqGgxkCY/+AL9+kBZ05EJfuNQxwS8trqYOEw/uHzplqrkY0wuHTuZYye0OpLzUNNp0JCIg7rYif0lFfBSjKpr0/bl9gyOl5W/xC25C/4ay90p9c/VBWQjEBaWmz8WHuelhTe2DvbRfcqH6tAdJwTvD4v/eQrSFf4KbSCTuV7QbGwfKt5Qpjuc4913UUCp1mUo4PVzdAh59AN4E4abDCeGWmbibUg40HNbR51a38BbT8hUnu+2CpokG9t9f8TkLZSfCTRcbAwpml+YmHN6dxLbeqQFZBe4viQtu4vzCfjRxbvp+CfcOShPFAiw7H+wmmXGxaiaXSR2++cDqcf0/cj/ZTTAKsxw1B4c2ztc1JHnsmD8bMWPp7UdDXvRUAAAWsdhNxocaTBX86K9mVR6tYla2QW5/m8S4mQ9epsFL4J/uJgSFfNNlbj056QqH5OU4J10wIOnfjPi+9rE4fXn6TQGEQAjG4fPd3Fpaqhe488sd3acJzkI3Nd+PUbGhuP31b3fu3LmcK4pQ/dUvPOPtXpNbDJm//PLXO0zB+E7pMwtuCpeK0v/lH88jfiQtLXd++Yd+2Mma/vauxtHwIecTbXrVv/y1+tmRfTlaWlrc+HweEwOaXE18gJtaaCkHuvpnuiMLxnoiH84lQ8Km0U90E4nGvQM3y3cENWiLW5+YDlYxcDpd9cRjd3J1NQxKTcsELiaUHDqSEZaXpmXyaAGTqHlN+/JBqaiQX9xSdnhYmu5+NPv42tOLj2/Pm5jML8RQPTgWPpBwYsPpuqOq++p2TrTuCf1HbtO10cIi89NRx4TJLJF5rUfbwv/lf/yf3/zX//4f31jsacsUhX9J9j2aP3bT2zpDraKewuVhJJD9Vgkf4KZqmsKWgCCHi2rZBlkXLFxi9rj7wtUcp090k3Bgl3jd5JTk44sxCR4nzxRHBOQohxChgGUBwbjQ8E3Z0a6+nsixuFYLSyFSVpY9AedmpO4Z/dWtcu7Cg9aioZ8vnb/y3W/+PNUZZykljGJ5t9H56h+//fnWlatX2ketTp410/+rm9PF0an+7jErSVFCS8HCQkoyRto+/Jt//sO5YClpKynLT0hsaVhYvL7L3oKJxqTu6dqeB7ttQrgckANXBx/mpq0d5de1qb/cyUWddptPbGnz+2vuJ7uJRIPd+EZ7tzr/dLV2NKnwmyeS9xTxuqJoJeDTgBCExja7MOY1sePRDbXmEgMNXR8fXZzY5Ng5uZpySS1BCw+iqBtkyjhsjnKsGH963Wq7iY6SuI9u7LDT3tMykidL03Wbz1rGHbL2YZPhFiZepxv0KE5XrBQms3RslXxG0qP9UzRilT4xpeUBPy1N7iXphjcy7/fcuhqpOkwCLWBfDOE0As9AqzGDl9xkR8VQ0boFsFySwsnpQek531wOl0vP1opxKM7+x50FNyW78RemJVgaMJ/pc23y9//5H//yf763yKNcZkIvH92XRHS21igwB9Y42zNVcyAQuZxb7cZ73qvW7e9uFYf7wnE3uXEwLswOk56UvoHwlUpzejVvGFVf5nHc7nBtj52MOaTsmys42tNlOkLBmJiwf1O4xXGjv3711g66HwaTyeG3VOOHxGGKQr48PB4/904uJm4S01Ekpx3CQ0nATisOhKAYMe8F8xn8v7ppPB1dcFPKgYYLaiFYixt+rfAMKIrh9ndu+lbnAfMw6j/uVLtRlTKl7a+JL7ipdd7vqzvP4i0BLpPn5gbb7osJ7tmmbcTk8z8hrWVFODcIhi7XPLQrDoTBDKe6pEJJCQHySg97pAUp0UwKt4rC3QTjNej6rK0uk+HTRX3XZx3FSBBen4FgiGZnpmKZ1B3uXFOg0qyPwhBeoNW41lN+V/UTntOtcmgIj8Ma0XQOytH2o4HRfSsMjCJkddc81dSzxaa7ti9w8NDBnKTCGYtj7F+qXU85OJx4uFM2x6LVMubBw/sH7y/E2J7TV3i+vatAsmHTFjnzyEmPx4r/uOOzvydoIOLBgQPCSEtnl6nmw02SDQ+2m2p+YkrLxsFDG46klh6XME4mEw8l1yB4qUnRe3NtX53fZY4o6BkwH7Gd7Q3o2aOei1sGlxPVKNtm71yYTT0Ze9atDEK5UIhSoFm0mYGiGF7FwY1WzSx5WNu9VZvNw8u2v1bQXHhv6/mOXf5sFANztqwgCAYn2lxzCKjtibOU3ii3decCOx5KVgXhbrL7ys1O7dHhTcGFQwE1XoM//lTYY77l4UM8xradMq3dt74/5+zV7Tk1ECH7NMpA7I6b7v7Gfk+XE/LyzxJaIlu37pTffvDg9m1b8aWV5017PSkj3RrR5Vw42Lfl5jDCf7n5bU2AuEEG1zw6LI8ZVb/awx7CkPgUzdp2uUCYKRwMCROdDDhcJvelVhYIxcu0LW48JtGhAy9tM/XbIocm5mNZv+YSBVLNtZGf9Lx7Wkcv3pcO6nUrA4ShLCWtnMka2Uxjcb1QPTu20QKJdP2yXUkBlpnqbhyE5Js9t8V+W4YYuem4/IldN530GfFGiRS2cenWjRfGk0nqUeYFF8z0WDAi7ENQPvFYg8WKF6X064Ftp5ecnGzQtrX2UremTiL+axadxTUD0gIZH+x0jmkzannNTTCMxM+1Pqk9ZBbP5XMxHJT4710w3SDxtJj+ge2BdGSJ816uCZAW1OBw32DEBn8np2wjMN3digDBXKrx9u6ZgttKnFzhK33wHCnMkpyveI4bEsKljuFuwjA4/sbGjoijTZXRpgWthw2NeG5cjNmCDWdtl5IpLals1vSqOjVCQTCif9ORiICCfXqXc4XZ+1cEcVqIiWj5bmJlpgkDcfvq8YrdGsulhJt2vdlNeGZgYnY3tncPJR3Ks9FVVBew2YK3whbgoh6uSDc5ER7k8Hhk0bClXyMiN3kUG+o2aYjbMWhgpp7PDoRX51xVvAY3luFF8pcLAcTl2DAabnFcvYUDkVBMv2RPTmd7Ye3YAW09BBX+JiEYo9pqnWycLgzoORllS+ciJLiF2XStJ+Cu6qf0IVjlwBgGDe/pehJ3LHvNNTu90034FeVyQvxNx2rbZ5y9euIspIhOP29GyrJ1om9yoHCgS7pUg8b7lT9cf+EmHycDRyUjKuhM8NmBOfBw28bansd6l19VCcxDhm9eD++8WFnNx1dBEERlJYYqZftRiCnmn0VCYBol0UhgpM8iYuAB1UzjLdM19zOMmL/iplHkMjc9Z6h8y5wiCV5bjQ/vcRN+u0EQkn69Rkr0nNaj2dLS22+jtHTW5Oa4QqCtHQte+iyna4UXbrJ1cnXVtQNu+vwgbvDI08Zpy0xBy6uPbSAMEWs6WzNllcHCa3r4pcCzLYrzyuNzYShe3xEG4yUKTGCScG4sSpH8q24abeEaaFZ5OmwwHFY3wq0sCl4DvM9NOISeCIjXUryHhXjroPUFuGnlQVrgEs0kZyutN7gJr7GxFDYPzjRkKsEtfDc3N9Gbpt8GEcONFXg2YqpoQxO0UOv7lQK7YRUqo4ONp6Kdmnz81pKcPsBNQoSdTD8AUfRfO8BNKw/hJtPgN7oJz58Yl9E0W1Do2Wq6+6a1go6xjY3x28BXqfmPZz6Wd+kPkJlTpDF/1U2jhJuejg5GXMjQdaqwDfVdO02jH+omwEsAN60873QTDuZGir25vbVzsruqr9FhbOKtjE1E9iTVTHaPNhTvVcfc1mDPn4/hhZt8nEYMbNlrJ6sCNy0J4KaV531uIpqQOFxqol6sgY5htLLyjbehrJxhZlwhbudLYuJFpl/7ZBIv3IRn1UAnPKuulb49wE1LArhp5Xm/m3CI5m6My3zfAEwmcy0PNPsogJvWGcBNK88HuQnwKsBN6wzgppUHuGlJADetM4CbVh7gpiUB3PQBvNbF4K1dDt4U/tbuCV+k3wJw08oD3LQkgJs+AJjolilaxiEmCHvjKwEgBA9/5fwR85m/8ZTiqXyJXujATSsPcNOSAG56NxAMU5P3ptblNYWQCMdAEAyxS9oeH7UeJmEvnSoIg+tvHL+nU0+Bn//cIYxrF/ZYKxZ+dawiHjk0+liYrRhtpQtPwE0rD3DTkgBueje4Z3xtNL2mRp+W0PkooSqUHGha9F35DmPYDcFNRYx2gfHyDwTzEZudAf0Wx0P5LSgeQvzkIQ5f6ZTLRjOYR8RYGEJDrIJgDup6f9RCtSIREk4eJVq1AqICblp5gJuWBHDTu8GlQbPdPXFryCrLiInLA4YY4loWU7fsVWNRNwyGaHQWi0wlan0ID27eePX3NftjuVw6nRg7jv/oYURfoyzQjiS02EJkOg3CI3NwkXU3HjFmQ7jH8KhUfBW+BiY091kBblp5gJuWBHDTe4AQ1Fdj3ipgcktYPZWJYXTH1Ilznpu04/ECT7zu3jPyOdJyh6Ns1OmIG6qz+dwfyy3vXzgof2FftA9eCUQRNKRE2ywUxhcYsdZ1D3NiHtw/E9ZkROWhNg+rxo4ahMBcmKznOrd/m7n0zrPjFQLyZx7aB9y08gA3LQngpvcBISSW0+OeW+0bx0OqOSS9NKmhc63H66s5lVnbepwHaru6JgPKi3KOJ1/ml2w5/5efhqb7PCJ7agL6dqX7oryWWNPRE2bMaoajaoNz/3RwQlKN82Dw9gxfyPhhVdztCn2EpmuyMbijo7uqxtlzeuLQeDYZL2SJ9v0ZAG5aeYCblgRw0/vAa2NoouGBrqngaxowqVJiS+20TJgdlZ49f7cwwHyfTX2y+/iBrhn743a0kW2X/vMHyZvibCO9vSeefJ10VoP/99iH070ZLXc0DoV/Pym/t9JP0WfuRPlgTJtP+o4ki2PJLL29O4vae05puycrNpdKhw9YaSnSXzSmLz/ATSsPcNOSAG56PxBKYxtfS2iPOO1e73/S88e+M5UttMD9EeeC4q615Y1LjM9da7x0q7Wt0mDXrf88v6Op+nLuV6Eqhf//31gZ8n5Rkq+V8ufzy3ICWtNC6RiXw0/0P3Kwzqwy/WHwiRsskuuB8G+nCi6mSYRpZ83f75xKOOvo+9pjvWUEuGnlAW5aEsBN7wdCYNgobOPgrcbTyvvGvvveXsvoK7L1xvafrpQHuyRVVVV1eRX1yOD1M9cdV/7z3HYnt2q33GSVwv/395b+IjfxeIbSHZvSySgCIxg9uSQ9MDQxfUvnphtkavNWPJ3BoqTOri48JS+HXeOVLFBu+nUB3LQkgJs+AAjGaNn5cpOFXZL2A+c6NdMZl6k213qmpreOV2i4u48YW6um3qygIq4Pr/zPc9ubCDcpFgf97z9Km/F+ySbc5JZrvHEoSCbPj3/58lfs+dai3tsGCg+TTtygk2y2l/8w+XDOwNHd3Sb65tGj+SNGVOLtnp8L4KaVB7hpSQA3fQjEa4CNDB+W/+YPf/k26YiBGMyFGT63HQqLHkbpOGk0e5v2BUjl6yOuW3/4f37epkG4qdL0/P/z9YkyvNz00Lk3g3dH72bD1I+dxWa6ujpnIp9M71BQNJT1MldmIOraWzqGRi+EBepWKJ+53l17Ij+UBspNvy6Am5YEcNOHAaGwX4bpaH+/w1lXMgeBIIwmnr+1s3CqfLJ2oHCg72R+shuv4lTt993Ftnw3vlvy49HBgt26vL8rbS+yMkTcMFL2sevTU4NdSQNPPC12a0Cw2pa+B9GJeInMNupB1cxMR02HZ2FtnOl4NuuzdsEEblp5PtZNxPjNl6/KawHPeEP426K+fcVLELt6hihoSTzbfunJADd9KBCNVW92c26E/exluBDNzkbr6faTOw+czXePhxAUZo+E3QwzCCHekyHmZKjQJCCjTCOFzPFh3GwoTE423H1w6075/eO2YhCGhPq3RQ+zSDAMkUPVHh3esXPbqd17dfU/94ztwE0rz0eXm2jPf9nCDzDK5TDf8HZbCMa4r4TTSAiXyX3DCE48FYzJfHmY1ZtAuBweMYOdEC72zv4sxEG+efWzvUH4IS55ik7gpg+G6ExAjOV9fjXwzyhMJdNp+F88GM9QCIaJxu8ScYlFImOJfv3EiGESnYiN4CE0YqzvQlR8CYGIdPC/n/3sAzetPB/hJuLHrl+Rf/bpIzU/SGgdGKWFNh8/8niuKYT20gunYZQ8bHbsUV6FLx4sykkQKSRQK3VeYZjykp6IUQliTdqZ98yGWYsy8CtAMERlj7Tt1zyw65DphmunS7VuVAhoeN5+ywaEGnF5veYd/DBo+Hc4s9s6Vl/fx9pEK12dtJR8Ddz0Mbx6n8Cv+cIIueefX0R4trBoE+Hou+exF69YSOflxD8PwE0rz8e4Cc8ebGX5yUtFB3QYMCEdhKuf8TDge+cdZSEk/Kb2DBIJ5egrmLpMNkSpC2+NeBCxsfrc1taTWk0MLi62hZg4MH7XFEic7HE4lBHCJS64KBxHtF8CCIUourfHrnwzVNsX0ZNUFDAzUGV1oc3AiLRwE31pKwil6uncO5qpYwQLy1aiFULwwzaKPthrvts9PtR6a9foYXdcK8QRihAm9n6Amz6IjzijqxzgppXnY+p0EITRbW9udB7s3eckhhekUZL+yJHG/g4571D8/iUcRE78+PG/uJvMLkQUSd9TxwviCHHXI/IoRSAem2xEoRGmEgmB2AxFBdb37QtMM+KJatrCLXIhmReXH3cTQ3d33GDNSa3AbFt3G//8I9I1QwENpQaJxBwcxGbCBIVbIRxq0z7pqoLd4qiw6vZsDaFPPC2yUWXssBGNqhi2LSGiGHcTUSdYiEIc6MIO3wNwk5CFmZfecspgBK/W46XXZT8z+KVa+Evs/cOu1ycD3LTyfFx7E4rQ67NOTA9IqTpRuVymr/HZyJmindb1NB5t+EaqfE7v3d5NpsdK7OAWsfQNkeG1Dtc35cTI7Nif56SP//AZuuPH81Pq6UxSveHRbdKtrRY5O49I2JKZgrydkQWHDUO4KCymO/dUNqa1VUr2iIRuIulZxibKTba37wb0nSrzrc51c6tugdRvbKuZcSlWS2SiMEtJe/9W6d5Wy40b0ioSyfGutzfVzHT0qmg76dPjK7Iunoyx7O2N2bmnzA63IVn8xjEthWT9yryTCQ7XNEi0+rLbuzZK9d6VMpefTbGjPcv67wK4ibgfUEObvb11Kn1ff3hPnEN2SZSK6VNV/2HW+5sSPwbR7QtGjNKPRTWHMlbk3YDATSvPx7kJLzlBsbO9MwPSbfU0DPbZg5dktoaxuaymTJmu9vKkMfu+8nODd88a+yaWHPGY+vr78AK5k1ZJ5ZNWRwMT4eTjlt0TR2yMjNKLHQY9+yzNGxoDgoo2HmtSytvaE7fBzJfnm3K2NbzQ2SVuoqp9qsP8kYYYaSEPPHNT0oFoAYYRBS+ME6L8sGrayiSZyzIobagtDOiLs+9sPxfQMKtmrLW168o3P1yp2pZmUGKyqavm7slTTw9JetVIz+syULb3pqIu+ehQRYktCfZ1I+LKhxpnCrssZE+aJ3iW3z1tHE+0ub4H4CbiSZl+umbk6Mn8SphJFDsXLtTC/wjsq3tPtuZJ++iDWXcKByWMQhRtnzca4YvCIq1oI5yFEOIDsbTIN8IAoY6ITyg3pMxEq4RNR9HYurutZ20ENGG1noglLP4SkRaSXFgQ/v/JADetPB/nJhKEYb4GZ8YGa7b72zEqo6zCa+UkkmnkksM97Z1btdz19LIVnjqEB+8yHHatixjylFI1iKeq3zCNcB5LbWIozcaF9xQ3x97Y0TXdmhrI1k9Uyn+YMNnwSGduq0fvxRQjO+stkzMeh8N07eor8nZ0DYzV2SRiCznvFTcRbV2+Otccpgtu+/ilH+gMStqeX+EXqqusmTDgcsHQKf10a1HEoRuhgqa0HQUNdYGJFJbfuFyXlyxe/bS7aRVQu8W6XlFiq8vd1BS1Ix4z3VvmnPRChscPjkXuTFOE3vkEUAhwE+4mhKGzK6H7eqaS0E2EP54Bo1D9+I7gbitV10o9XxruDPz8UOl0Kr6VUDFUMplOPKigEY99iTIQ/lOnUmnCCZ0gGpVKTO0k8pZoUzIVX8SFw+Qn10V6qKQYwZivT7OOrRFL1EYA0fD0iamcFq7dSwe0yHRLBLhp5flINxFZhmVwMaI9+LBa7N6tHf2NdU1kiq6qheet6QIZ+YP3D2618AoakE6zdS8tCBhVCWRwv+KE5m3pcjllHJI9b1Eb+VTBpvTuZOsed6obh4OJKTXvNXPSTZPzsDhto5hS7DL1pEZKbsfB+/IPJsJnknZo+6HCAZy4m1i2s3fLOw8q2wnLTRCChWQcDHaWzKwoORM3c76jdTO+9x1yBR2Fk3LayeL5m3ukVJM5TJa6k026ofa9VE2ZiMEnAdfvVZIE+eYdRVv3JldKnHQpeOwemq5iHxAePCH14EBqmoL7cDz5A+61wE2ED1iBxRNJm7SySeTssr3ptuqh2U3ujj6KRnQIFjN+2vPkSXfDtbkRNgmjhcRGH92x6cGu2wqVLATjhvgf2VGsqvXodOp4JZ2RrRad4rr38baTF46n1Ps1SZw9uFX+tHasGO4tGCWFOFkfPXRy4/VtZ25k47VHOtt/62Ttxkdl2YlGhJvYFOIRse+wzrHDcte37h/XEODaoApGbmSMVOol22q4NymFJuIHJDrqpQLctPJ8rJtwS3Dj/Q8Fe3oc3mca0R+wyduIK1ZyxGHo+/OD4eHhAQEB7YPBMsd1BRW3W6cjzrqLIW5IZb5sVc8pGzG9tpgaBxUFm91xuJsMWBwUhcSSHZsDs21vyvT0ni4Z9j/Yee7HJwPCZMIHyxvv5ylREGFvBbySQBeftyiv2mFth3ERBOWiZKc99gHBpmbZOioRQz8Sew8ox7ca7DvZJq6vOP6wJ+60D4IkOh4/GdE92V0V0TrhFdB9PWoYjs/bNFmzc69idtbmPvuzTTSakY9C1MXNY17OAx2NG1PL9OjP6gNvB7iJcBPZ9Vpc8KaobEpl1KakzlbJsYTgzq6+CTkTR/2QMtOkSz+er7W4EFapX79X02E6vKjTyzmg67pqE3zZb7bnhx+GBgPC7c9U1PubRnj2l09P1xbVlocHRyZ0BBR5dXh6etTZ8ltIAsNDowFeHvYFY33hXjsVyMzheYuZq1cLJxu355k9bnU4aF1J4hqVHZHs7Kit8qod7LCsM2ZTWQZn47ocpFo9RoO7OvsKDuSJs0ifVnYCblp5PtpNJASjsdMPJ0wNzZy75YmXO2g8ulKUdMekzLHAZCM7vFp1e/9t//qQptneWo+zjgzEDVbSOuHVWGxA9muTLnJQafZRlu/qkFK1pTHdyCVnLZIaZs2iZEZ7TwfqOZ6xD0i6r62rx/ZL1hivU5lPUacv/OiFbjKxDKjarmzE4ZLIjMTY8UMug0n3/dn6PiaSzjVbsirq8a2c9u55ervMjiVQONToscGA5pt+wcPL8rSOX4h+fdi2hKKcY5VI4jM3pcn0xdVVGA2rjVsbCMgU/Vjv+6PtVVvHk8mIqGfCWwFuEpabSoodOjfdE6eH3ovp/90P5Q735721DkUEBN+Prq83NO0pko4S1/cNcb3WOON1MqpC3efGtYnyxrpYKLk06Q9/mH44FxgbT1E31PT63f+6FHNTXHFO8pv//eeugxIGtiO3PWZ6rdHcZBMp5+DtN9QTQ+wMt9QGPw2Mp9jtlevukN5jXRFqbNrVcSJf3MjWxKqj+/rtstj6ktKGjslNaaF03TON3397qzbmyD3v3Zu8OnqPGggbvZYOcNPK8/FuIqpT+mqHRy/9179enThtE48wUVr2cfPpgDiVGxruGXtyvLolb2sINErjAkYvuuNuojkeJTSlC9ndk3Ie3dAsYJtpjnp6yZqk2+RvSxpoLFYw0Mqpittv40s2ODs2UJuzWy3WwPuC/XSXbJstCxNmKcJNwyatQe29R8LU9mqlHrTqKy8P3vjIgMGFKU2lFuUBFqcVbB21L1pMFknP+4j5uqo0dsdk+ihGHxitbT3bnOyjfKQ34OqVPk1lxcr86861W8KGbY+ZdxXscYzNO1kVHqcS5j5skCnr5dlzqoxNWyisvQPgJqK9iZJi2tgpm5VMT86UGvqmdntGIgozbDSr+l3OGuiVHBkL3mpG4rMNL7h0NLSpwxgTQ+r3RRZ2Ftv4HO/57dd35yiXeUxIoHa461yNZlni37/SkL/6P3564Mq7XH1Z/EC488FmI31b5basvWXGZWH7tnVOBWy6qYTkKp7tCd5lqI5gGheSJmW8xTVuF4Q3Xkj3xbg8kp//jqQETbVQ99Se73+OqHP3hTDBnEyR10nrRDeu6MCXBHDTyvPxbsJzJQYluu/b1IeXzx0pRJMjSot3vX2iqnzAc3DQucui+IY6SlfK2mH54HgsC+FRbdMOmsu3KSLxygelNqu6iuEhWffHJgcHBgfCE/AaGN1Pe1fOw8wKMo+qeEPFotvTE1813fOgNEVAPG8hdonvheYXrTnRXdvRUdtdVNU5ann/uI0eGYYhGKXqpT+O8RokcE7IOWvmByGQXbRmZNHd082xzXvMkyarOju7kiZipMc6kxpS/a03SMbsb9YbHtc033azksY2OyLV2RE+Pe0c0OHxMNMgnmhzJXb6DoCbiFZtfQX5vqSHe/3I2bP2Q+fibvugbijZ8VpCf9IGm1CbIxNJJw1pTJ/HDjOdF9yxFhRG+b7eUkNBm8IqjkX87qdeCfIdDkYSqGl2Tx+w5fGreRXbz//vH7Y4tuS25CoeDp+SvCdOEWQUWyYkNHqM3Y0ImHK+nukDXw4941Elm58NcWxV+rpl5nzUNPsiisv8IAzBEKrP44nR7cq2airBVwJkx9kYl5moLJ/UvdE7pAW4aY2xFDeRIBJES6wXr2Q/61tCFGvYTTcy9+zW8ncS4MZAaJT4enFFNoV4kRjd10hgJEYnkfGgZHwbBEZI+uLNabePHstwMqLCMD0+GY9LJIZALD1XCdXU21nN4om0Z89chEA0ipGiroGNsY2rhpJeIh1XosghuLjIggrr+TO328pi4/H0IAgmsdhOhnt1FFk0Rn3JnOqZ+bARPV8j22Z/NSc/I71hRTsGnUUcoYCF75Mar6SWpUpsrhTyYZYBbsIvOUmwd0tX8PYMO3LsboepIKnj2RgfoYwUBxe6HHEl3BR80pDKyd4nNVC03Ri909LCh7PP9JQXqOoqzbvgbspjXWZiJDvcTbUXKnP5LRyNg1P/9oOcAZ+YLOVUeLtMtMBpf9dQl+wjHVs9gc6BmgHJeR/mXwWzE+Fxj0dIbtlHErplvG1TLgRXnfROxqpbctF6ic01PcUpw2WnkqaqDmbEYxhmpL21s0ouLBG4aa2xJDfh4D9/4tHsiwuEf0bxnIAJx6gQn/GAZ+txeQgtQwSJZLYotmiFyDOvprMIfBWCoCjR1XxRTxaCN2xFhKDCcTQLq4i+38IgPILoMIi/RGRhlMWH836Amwg3sffK1hRtCVNnEW4qbNCqZLrBic0Ha/ojUh3VU55GeMn603kMp0zJgO4t91KanMz2be30HHukzgk92vVffyzwZuUyUVLIyLWq6QPZbvxqjsauJ//vtxtH3C67VSsdLC9SUaKO7Jy6crfU1cjOIOt+188/TcprG/EEx+3PDchIhGC214Knr+dnD4dt6R5wKL5hoDEyd7AxoHO7snpI84GqoWBTsxD8kvqlmU92bs/QB3W6tcZS3fRGCBOIFj+At8f+uHSe8WnpEXE+fKfATUSdTqzZdMLj/l49uuLx3nKv+9F2XB7km6LZ1329TZztvtvKYXs6nYdCfjdOOYQPdnTVhHt2TNyfE0dzBfNxM1671MgtGAyT/I5FdhyMdePxmcOP7vZ37NLgtfBbYg9OxuXR3NS9ZSeDagtyWvu6vTwKkmYGWndr2DmeGRvsONEW6/jYIWG7cjKZ4Tgv0zVY3u017TkwuvWYhj6JbrBhtEPytgGDi6J2WRv74i6miPEw0YEvCeCmlWdZ3bR+AG7CgWl+JdbaNskMkliT976bJX5kBIHo6s1pbWWVYuR43YwwtXoSMcySFlLhXbfr4UPNM3mO8RDx0rkmZW8Fn3ii0z+E0Wxv7lYWcHFNsfwcb1iXGOHlXKaR/yNvcYSLkPzKSnft3LL1wj5/peH0UtOLc00MNMTGROWst1Ooq/ecjTqDGGupaPbosPzDHdeiUuoZMF7XFzRHHVfWjSd6fYrZRudrG/jR3zA5z0cA3LTyADctCeAmAhpJWG/Gl4h37i4UO/EwvGpM9I7FK8r4X6L3t3CRRqUuRF+YnUk0TRPB8xIrMbPTQnr4GRYuCLckkVlk4WRPeIBw6B4krNHTiLmchHtd2BWNSiP+ErVyYpWodr8Q6wOr6m8HuGnlAW5aEsBNCzzTCvH32Y/1+eKLIHwRFjbyvRaHAF+5KKJocdEC0cwo3FTYbkkEE8kRSTyPJAx5dQfPE3i+uHSAm1Ye4KYlAdy0zgBuWnmAm5YEcNM6A7hp5QFuWhLATesM4KaVB7hpSQA3rTOAm1Ye4KYlAdy0zgBuWnmAm5YEcNM6A7hp5QFuWhLATesM4KaVB7hpSQA3rTOAm1Ye4KYlAdy0zgBuWnmAm5YEcNM6A7hp5QFuWhLATesM4KaVB7hpSaxpN6Xc73KWTgNu+hhwN7kXJwxGbABuWjGAm5bEGnaTGxR4YXRaMooN3PQRINWY64GqwbFrCsBNKwVw05JYw27iwUqZ0rWRs0Z3eKIgwPtBcuGMhqGBTfuadZuAm1YG4KYlsXbdBHNhgdn96fCDTRj306cOWSdACMZLzOz7sUhToqSpArhpZQBuWhJr100kGEYTxyVnakx1yF9d5n76rGu/diAY5XJ4viVnWjuCt0uMODq6AzetDLibbA51OjdEATd9DLibNK65DDaeWntuIkFMDsVgf8KTyR35KbHxNI5btRuf77YawA+jpTo3lziedx4QvvqN64nwF4gCCUQhH49bSwsPYuiNpG2v+T7o+rGUJidHAwPXER/ixeai0wn4XCBusPt+h+neebtqDjjbHwzSwh3ZVeQZd1HBp2mtuQkHZTKaog5IBjtPV43lbD20QUXl6WpA5eLhHTLS108eUrn4zgNSwREtvgQR/gJRIIEo5GO5dk3lwo6NvT014TPhjSf3KVTo4mYaGTGoEI8XvfwM8BmBOXBl1uZJl8fqd3jgbH8oENICRUudG3hg0uyksQbdRIIwNz4tuTktVXNLTG/B3dbVgZSVQ/mf/uWfbnX2WvWKgr4o+EH09krmPHh4KvWmgqOPk7sBjuuIhjibQgJtdZ8diAuHlGwoat9YxkIRUE79MCAMQ/VUgy91btAObKpYi27CgVAmj8OFQmx1om9Erw7KmrPuJ53zlNzj32woCvrS+Js12xhUOOnqNuFFJoKRkpFYNh2UmlYCCGaSUuQnw6+n6fFbiNdSwoB3gSC4mKBQiW0JtXcv+mtUuLuvUTcREC8oITHUYzUqmpo0vjyxlc0XPQqnZdKcKnVFQV+eCkdHd2GBiWDE1VFJQKGRgJpWBoxLUvc2by+8e/h4tGO9L51EA7wNEo1iF2uT9dRy5jtn+TD3Jg1hA8SabhqFICpLLF4Qqlg5/KVRFxjUTbR3bxlXZCeLglYTlfV+RvoMOqjOrSQwBiVWpB2Iqy0snO6ckDLftPHE6mDTRpkHD2Q2iT69jU04osWXIAVpehsAAKndSURBVMJfIAokEIV8LBtlNkm39hQNFBYO9MmcsS6p0MDvpyMj7k3DIWu6aVT4jiQajfqloXH5fsekwpM0bUh8SBS2qqAJz5XorAFWCJjLRSjqTul5s8U7tsjKyq0Otsg+2HT9+sbNcltEAV+ck/IHiutU74WZBVY0VSw0jbpqVMaT1/69lBDUFwbmVbOjJJ2DTV2RalQUtroQnSvACgMjGMZFyepOJcbGxjarAQMNwzqrKpedWiUagaKgL01JoKuBu2OFRoUjXmDCcXUdcRRf26Wm1QPEaRFoEW4KhFsQURgAsADxhlW60bBuk1OTRsUXx1a8+Uhkf/gmLQ1xJ1HQKsCRaBsV4oh/0k1OpAIxLQ/ATYB3g//SqBR9tp+63pfGyNfpdqtn90ltdV87UdBqQl0QL0amrv3a3KoBuAnwXkS16y8Np9ooLca584ANvEqbHwhEpwzw6QA3AdYKzBZ2G+EmYwhk1fUAcBNgrQDctL4AbgKsFYCb1hfATYC1AnDT+gK4CbBWAG5aXwA3AdYKwE3rC+AmwFoBuGl9AdwEWCsAN60vgJsAawXgpvUFcBNgrQDctL4AbgKsFYCb1hfATYC1AnDT+gK4CbBWAG5aXwA3AdYKwE3rC+AmwFoBuGl9AdwEWCsAN60vgJsAawXgpvUFcBNgrQDctL4AbgKsFYCbVhIIwZgcHt+tpfrdtLjxeRwmF1v+t4UCNwHWCsBNKwWNhvCYZPVYx5SMvHvHTY6/i6gs5WYDW0UBA0KX+aoANwHWCsBNKwONxOTTxLN2jHUmRI7F3e19N60F9pE9CcGW+20YGLqshSfgJsBaAbhpRYAwWEyjtKCwveDQ/N4yY/cmJ6emt4GvcSwxiw7bHRNeGHktPX5ZXzQD3ARYKwA3rQhoLpYiXzSdkynOzc2t5nM4TI5b7mV8gdeSm9vCE/5x43Gew+Pf+btb/N5NgwMPtENp3E++NM/fpPW6m4hV4C1bgNUHcNMKACEInHy0s1DSWw/mYUQIwiG7mpRqV1IT1fbtU7CjqSuXZhr7keHFL1ZHc+naOeGdB8oYblxR0NKASCxfMRqGwcTyq25CuAjLl0EFegKsNoCbVgCESUrOM++fLs5G0QX7YNUM741SZzVo6vPSOfsUSbb7LWXzhynI4rYlxI3kmBo5EzEfcpkpCloSMBOuj667f8Tfl899xU0wH/V5dP+QlrsYFxXFBgBWCcBNKwDKofrsm7hVNSv2lcgyuJvyZKXP+EB+x09szAyFYutiHkoks152E4eUHWVxvraO/RVHFLQkIC4SknJw6FsHbwEJRRe5CS9JkSs0h/7scjybDtwEWG0AN60AhJsejd2qui10EwQjKJMPKfkbisMt5IobanpMt8SSGyXxGBfDQVEEFtawCDfdWwY34TvkozYn28/1miRz+LwXbuK00Jt31V7pURW4YaBKB1htADetAM/d5Eu4iUZn6IfEG7EF7PiQEPyPUQjxh43/iScI0adQIVxPy1ZuwuXEZPraaM78rmreD3a7zF5wE3qHS7bZcunruHuVEB9ce8CqA7hpBVjkJh4HFs/fFdNa0CslKSllaWkpJfxf+EdSaiy4prNg87XMaKcQCK9+LZebhE3glRdrzvXUObn9YrTgJt4vvmEPBodibpCqQX0OsAoBbloBFrmJX42oPUxy2bzhTGnp0ZcpnS99mOTZJ3Noh5SL1W5HfaQFXjY3kTAONdvE47uA/aEt8WlWzsGH3TEkw/LHoB1qIRiTeIAHAKwygJtWgJfcBJttcdgZVk/losKeRS9AczGdhxMntdkUn/lNY1vHKX/Hls9NJBL3MiWrt7DmgoHeeI5z38Wm+jSLoG5TJ7cWYCbAqgS4aQV4xU0nJ3Zqv8VN2yZOjofSuHaqkS5nEn9hLqebYC4cryA3NCPvPRtT1Xgga5/9kx7VWBYGmsEBqxPgps8AhDJ5PD7f7Rl3/s6rj7p7fpGbwpLp2KvnG6lGm7fZy/uzOOzxkxMyc4x/cLOjem91l5J/+bsooU/j8i9/S1a16ur2Go1o7OrutEqt4P7ytxbRytUCn8fjcbjLPwEDYM0B3LTcQCifSVGscLVpLvOPvnEjGsffTNlEvuiHLlWx97npZHDB4cz5HRMTmhmhUC6cHSU55Pkgy9iMSOXTyfA3CzN1/s//8Yfvv/6f/7+vc26qKWSI1qwObkRnmDWXGDja+tG5PNxPNNGZAaxLgJuWF4jLIzdlbnVIGnWYmJgYW8A+bsKl4/vfdZowCDcpbJl4aF3/BjddZqbItp/rSBp78LjMiMPHmKTse+aeP3s23o0TJfTJxBXcte86/0//9j+/LW+Mi1u2ZJcL+wmHyIjRrqSxk7fVQukwKD2ta4CblhOIz/PL2+niFbll/3zauLKCWrMQ48D0m7uqfqxSxet0brCxqaWcli3U8vJAFLwe+BWyt9dzrLREncTnYxBN2L9Jcmrw5N6KwIV0Ph215pSSZm2t2X35/sY2+Kcvh5ra63vXaTa74a21b/epu4XfzMhY67sJxx4C1inATcsHzESMzLYPnJcaN+JW5wrnrlyg+itu5bECYXsTB4NDXFN7e3YqC9Dqr7766s4CX/0tF1FvLrUo7Ey1u8xHhI/OFvpe3po8yvjlK1FCywLPrTo3t4Uv+rS6IOYEvfOPy74KD51nLI5l05nATusX4KblAoIQnm9a3Mzofkf4zssP1lAOVVfV4UqXKuNvTBLE5OqNH5AaG7OQPrFx46YFNsrk3B3t9rK/P5dN4okuBO4m8ZuWt6bPLs9zujUEzMeGj8WUV11wwpiLZ2YArCuAm5YLGIVYFaYBA7sq6MSIk8UgXFr9+PXCyYuKTKLjAIxilOyMRyrbT8rJyi0gK7vV9EyamW0i6UUbC8qnaey294x4FP9p8xCsPSAuyvLZ03neI7OSjIA+DusV4KblAmFSK/Ot+r32sF8bOQvhlbThuprC68oCGkYMEIFQjhufC1HJLPICLBYV5Ve34DW+hS0IsMskw61dPYfMGPz1VrOBYS5VIWdqYMvNEXUGHT9fonDAegK4ablAOXSn2cgrnfOUr16fCg6pJkWbl1cdKqNU8xFYCIJi2MLMA8RfLoaKwkVgTJTieqh2JiZNnMpcdwPe4OqWCrmpJw2lhhU+4kZU8MBuPQLctFy8000wB1Hfu617pufpDV02i0a8deXd0Bl2zdccZjpkw+KX92UGawPcTRpyU1Mxs2bujk31YjRQclqHADctF+90EwmCMEhxfEdC0K32otG4mI0PZDa+DZmNJ6TvuhSFe/Z3y+WF0tD12OCyUG4i3FShoZFtx6CBOYPXH8BNy8W73YT/3BAEElN09ffO3H22+MKpUxfeBr5mw8Uz82nRgcOJNGR9XpXFbqqwDdWnvv64TjgGUVQBXlMID1z0JQDvALhpuXifm/BfE9HGhMIkGp1FeTcsMhV3GUZEXp+8200QjHIXWuiEv/M1BpELuEwmVzR1POBtADctF+93EwGRN2G8CPUeFm6vom3WIW93E42EMJlQorhBur/13M1jmccz1xTHj2fey9trqGOAfyka9ukv9/o1A9y0XHyYmwAfxNvcRIO4PDTE+Oj1qsGZgY7umqquNUdVTW34QPtAd4SciaMYfhsChae3Ady0XAA3LSNvcROE14kFbRZPzkVq5tvYJhuJUfFSqLCitFaAEZKYnpNNmfUZy6Dvuk0DITfws3sbwE3LBXDTMvJmN0EIM17ievuQpDf57y3oQtV3DYIgKM+NFmtiMei1K50NLe5vC1gEcNNyAdy0jLzRTQhGU98r0+58wJUBr/kfNPcOpHMgqXajMu3ZOwsBrwDctFwANy0jb3QTyqG474mbbtiL/G3tD+JBeVTdfXH9XvuzIRINr+yJggEvAG5aLoCblpE3uonrpr/3pFfNVrNfw1urYIxkVCYfHmSl5SrOptCAm14HuGm5AG5aRt7oJmZLYpa0c9X9ZlLLr8BNKMRwLC4K6lU1c21SUmdAwhY1wCKAm5aLpboJxjh8PhNdrTmTBqFMzvveLQChHA53OX9cb3PTnPl01Xa1X4mbxAwOdwdZPFIbGRmxNRJ+Q8BigJuWi6W4iXiqrO90I+qmQjYDXpWtuzBKjvXfG6j+xloHhHCZGAJBMMNJeTzQjrx8o97Wl5vc3W3tKPjpFK0CLADctFwsxU0wTNN3PdJ45VbkEeMQ0osRKoSzcESfCF4PeRYm+iDiRdCLpee8CBIuvSE10fIzIAh100+zqrEsdfXFJfRsO2E0fB3FSdvb2I4KQYr7LBwupBjRFyYTfmNSH8d6c5OPuhgVuOkVgJuWi493EwQhCDv9WuST3//myeiuDCPmwowDwgFXBCgxYOzNIfi2orBFcQiIMJTo+PPS2neuXFiPioKey0vYDwfjXNbX8vjZU3aczcWIgOcb4gfPSWxr8NhlJqAi+o7WEsahFBqe3rOkUBSPs5D0Qj+khT+iHb4P4CYAcNOy8fFuwn+vdMcjEZ7hXX014R6nfRBM2MeZFNI0vqfY9FRdVFl2Iv5zF4ZInNlgeuFFCAxR1Eva9h+6kDpnwMYLXBDV1y+7ySnWXXv3tdT8EnUxgWNY6f6zj6KVGLgRaPr1SrZKSgbapSpnb9r4sYyarG8fOTurHEshXkSF2wP2VcpQVTlkujsjmUzsjwQjEN3Ip3lvWLqSrmrkpcHNEmweytILnNvz1PSAipaxHoNGopFtT7s4S2caqFPE6ivcK/XpeFIw1cgnep/Krg3zZYpixATDvuLGOj5GDH22Xr2ewPdDq33ATQDgpmXjo90EIRBDvC2nNmF7ZpSmR9EJ71A6MU2B3t5DDh3tgwHhAeE19jvSYkkcu727IsLbPQOcAwKKxna0xZL4NL2y0w1e5eHh4YPOkdvnhuFq37KnlsFeVV2T5YPltZ2Rlq0uHeXhA54d9hvKGH9DUjQ9qpK6imqdBz3DOx16C0Zr8cQ8p+0vZNhhTAypz9rSNx3uHO45E1DwuIKKYUwx90cP7/Z5FXV7jY5On7s6vXWvwDdwT05nd1dwcFX3dN+2vYkc9rhsx6Ufh7o95DIVjm+W2mCmR+eSK45viSwKDxgY9Ow2f9TEoNHFj52ItHp4MibOw6VxTPqwdiWumff/CD/BTURB7fkOhKU2HLzASZT1RKHvgtjiQ0t3b4YYzI3viih5viMh4Kb3Aty0XHysmyAIpdkeN5/u3qrMVp874TwplxfK5LEU8x7UOks+1i4xUE41r/W0PJatOI6HxBxVDjRQPt0QUNh7T4AoHR0LCrBKLdNoztzZOWg/r85LzJCf/P6/fu/8MMtG+8DkH/7jXNxF63QJFYepSZX6f3ANT5z7/W9/N7NJy8bwosuf/u3b0af+I9qngr/rPzly569+WSc8zwWbape428xLzbRLtw2zBGGytf3BJ3dr+2tt6/rh20teh5qHrTcXVW16FJitpHtjh1fSYQOGWLL2zhpPj0PHbxioPU2Y3pRXr6/oLVc1bb8hS83d8Ij9QO3mrGRIT+vulT9dbe/Zevq2inRRh6RqhS/2/tnyluwmXAg0MplKvBFYaBkaJUS9vl6PrU8h0+AXldjXgGCiEoov0OgsFv2TXihMo5PpVPwPlU4XHsebAW56L8BNy8VHuol4v4FAe7PnN4UFpvtmd7ic/6Gr2ABlVs5tKap9YK2PcZmQvmPplvtpaloyHdMyymIcJpekX3Fbdrt3U/ORxvKCR5VUjIORslNd2sdu+9gZn/K64hmjpUT6G9077k//5HWmvpqPCqIcBk6UQbR0uSd/OSedpkj6qsVV5rv/5WnqVP03mpKqS5BV+uWvSjbPhD+0DkV5btXx3tcLp65H6x6P+O6W5JwARpkkgeGOyfNdh3VCNfL35adXKImPaF+cKJzeop1M5cdnFlTJateTqbpHXCZlxkMrbzaEe+2UUEe4fCR5fKtX565m/dCbUlf+1LEj2o8FhdzAv9umtFAm53O5CTcTafj4zgNh6nQYQ2khsf57HvRMdkzXFiUVbEm1doqnv6UoA9FYvr4svLpMtn0kezIqm4wXakWrPgr8hkPV1VJJvVGpr3jj6EWTZrawDPUGgJveC3DTcvGxbkKpycoHgq/8OFNbVFPTMfDk+36pR0piPqqtg1WHAmE+UbNghTbpDhvvjxyqPRiIueEBMDm0winZ9WzEk8lDI8xqFEb5YvmtU+VbDetLLhSdizAx4vNaKBKtP/0m4RH7jpsbbGg1cDfNiKK25fw/l18MvdyS6zay+effdz0Wr85FGYY55RbWFPaxyIAt7lwOAmM8/BtMzPRK2BTP/JfnwRGsBUW4LYmZkUNdh5uNQgJnt96NjPRobOycuTotlzdMrdaP6q2SmRumY/WlDkUyEpUVZxuDdyn40bh43ZQs/qigc+uNUKfZuCdDFiaVKJNHcj3VF96rWsnhvfdXuDQ3QUxeiOHByaEJ1UoqyvXL29I1OBje1RM5MeHh0llU3j8ds88xkYQQrfXEAwHc/1yMqOpBCCbIerhVK5tKC7G5aHViVsMXj4WnR0ThEN0kFpIXVveeIQzCIV7pRcTCkyKeBHDJatt7HA6nqytpSXe7mKb4Er58A8BN7wW4abn4KDfhGRZhW8t1DI1q7q1wLymxST++qSOoZ7+rYrpm0nRMvh3Ka0HFHM9clzUxy5evCo/JMuLy3VBfg8fSclEZdZFTtbtcOV/x+RxufWmPp72qrZ3OqaKpsZtiuRw3Rp7FT78NnvXL5fMhf8mB3rlEltqWc38JP6t+x62a5/rgx78UHVFqqYYT91qVN5jBiZkRnhtTID6PV32HoSw3+CTnhvvp6d8PnUxBqnk8fnXIcY8r4dvNdNusnKukr82ljziVXUjofpBXSbpMybcqspx1ZzDt9o3VPJCo1Dg76vVQWQ/i86uZAsODnZ270vVGTkcMTcvOheI/c3rKgeDphuOKn8tNMITSUx4GFEoet8Uui6ld6Dw/YH48UC8xHodtJ753e813UzH56jCVkehLh2gUI7169XgWhJsKRbJPj3YdUItHuHQjPfUQolKHiwmmh+gNZycbkWFhZZDKEqPQUC4XJR5gClUk1BWJIUgezhYPjWcRlxVjlW3v8TA1tGMpzbZOThzRMULe2K8WuOm9ADctFx/lJhgjsZsvJA1G7C8R4zERhIv57d1eVYh/VDQ71DXTY2otLtDIl+8avJupGKK2q6aw8fCNSnZT286iwtaoWPczDp59h82y1dUr8kxd2iN2JzN91S5UPYnU0m/B3STR+/U/de9Rv8NHE7PsB64rkGjNO6fwcpPeZcJNG7/+vzOnfHLvUCuPRRY26Hx1x/Xh4NDdx2qhglDbfOnCKQstcbaxadGtokMZsXbxijYm5uXf9ctol+z38szRqohnVBoeiXzyxKGuOd6NNZ4z2CHnrY75qU7UnsirT87bFF7e+zglObS+ZI9F+PSJm+K+jvt7hiZ3juuhGCZmuLVoUiZL7zPV6SAmapSu6dVuJREPM1EDzenvuw+l0HlEMzgOl0m2PSbVHi5rHSqepXlINX/+8InIpMhN+5Vj9ekCg0dWA+1jF6LSY2PNMrWa1ckwE2EoKac+6AmfqWk4bVZP5UK+thJ1j/ObUzK8b97LV7bJDqGhMEy3G7l5Kma0KHy6UXZWR52GMFlm8i4TGxTYPMSxrrWqtc6djL6pVgfc9F6Am5aLj3IT6kYvuRgx4HG6iU7ck4lyv+/Ikcb2JFO1UI3bDd3t0wkeo9ODNSdMdEl8/ZQ6y46ZjgSPBGfPmhPHfUjM+rTNNZ7hfRMRXuUBSTImulAu2fG2/UyjSWILh8/KkAs4Z39ckMuhhZp4dOxwuoyNFBf9sVyl/rJbC8dxh+ePPWfEqy+TY/d5eErr5H6VqHO2t8Nz0sWhp9uzPaLYhoFrpD5KeuD84KiUZOTk1Ne//c0tK2/dvXK1nknSDzcXJHXXToYPdm3MjDVyPDMx07HpplLs/N2qLXvVGeyUuobu8u4eh9Ha9g7JVON4Kt021WMg4pqakdBNW7p6TpkZcbmfxU2wG9O2LjLAITW7pYXRtDuyv+pwMxt61u4OwygceySpP+KMgcHpqu9+fFLY7RCzSbJzsNtcNcXm2AnnS1c9R2M096nK1nQdSA+BqLq7ewPKkwpipO2dh7oOKLBZAv8DSU+GBgbLixL6isprrWZ1SbBRc7HHQHevrPz9nb1enQ9uKpF5dIVtoxMbDNl8nsDwVI/Xg3E/2psauYCb3gtw03LxUW5CmFSfuf3FJoG+RJ8m/J6PVw7EHNuOXIxyZDEput7XZCVbY2SvjSuRhS0cvk7eTzdLtTbIqoxn0/G7NYmsrnZb3lxScqPmo2Y9KgIj1PiKqA11ahQOilDrU/Laom0pXARmuN4+Mm7UgtkZPzqwwdqIw+UiArWb9xSUxFCMpu/+6GmmEopvwbANO3uywbJB5vCcri9eMYEQmK6orHK9YMyhdeNWGQt789PNIdRk62syklJSD5626ZRIXNu667hrPCmkec+OXY8CFQMzd1sPM0goKUR3fP+WmIaYLfvHdUOoCALFqx1VOTYiIBOduZS8j5qo1bM+YB7apbkJS5HrSDJVMHJzM1Igmp3mlSjQswoVBGHM0N2jU31nK2xnu/75D+E7x4epLRSzXUVPXPZkkzWKg2t2GNrpV+bnBNQcTGGF3NjZHd56ZiQEYrIlZCcDGo6Jh5RcHP3pd/0Fp5srK3FNOfeq2iZmZ+2S3WAtYGI0vfxNXT2HbthxqGbyjQUX1eJ5PJaSVk6XxWyTL/yGB5PATe8FuGm5+Mi2cBKNivPyM2aIRCMaOnBZURmJ8fpEP2tRdQCChCEMKh5AhOAuI9HF9H0pVLxAIIpDoxKPrgnwYtjzOzUN/0ek/HxfxEp87cKnhf3hn6kU30TiQZWwYQWHCBIz8tMT+LJ87fTsEilUXFnEMSTix4BANBaFRSU2JtHJZPrCEv4ffnAwvk5MX4wuPAbiC1Hxw3q+M9GhvpcluAmCuYxxiwH7Rz4MHkd/5OzoUFexcTzCFbVE4/KnOql0Fdrvs3VKrfq28MFefS6TD4eObyyfPBhIGd7jkXSgWZ8q2Lu5o+pAs517cULVNut6iMnlQcneMs41B9KzDU2Tbg1uylJnMpliezcWuZxSsKMaVdyIUi3dc2TX9aQnt4q2hYUyqWYPeyxSS/R5HJpAeWeCwzUdNvKGgiJw03sBblouPtZNxA/5lZ/q8wCiGPVyZ8HXQgij4AGLQ54vv0j4RYqEjxaWnq8kFp8v4aktTkwYhCDE8yyY+J9Y8eIYiOgLkYklYcBbk8I/L1p+vvhuPt5NxF7ZN8cGW+8Ns1AMoTQ/HPyuqjiQxMcLpsR6Jp8UOx831CFfhnunZsjhsTuVg3EgdWW58Gn5Eho7827fdkMBXV9tR03nIQWfvVu8xmZjWQiKcmA96y0dRQcNHfPlJmccjqQkYhiHbHiyy8XUX49t81iypmO09frWbTkuRT3yEvVcqsJOl97HJfocJqxfdt/F44KCHcJ8/VsDN70X4Kbl4qPdBHg7S3ITVyyvdTDOxJaBoEyevppp0Y9TvbPuYryW6urcXDe667XRn6ca8hP54vtrvhncouzrdvm/0ZGnnec7j4hXk7OsguUkkskMne1eXXi5yeBwZ8fmvFDe3776iqp2KHigdZ9TbP4mZ8/W3e4MJobGS5zwirxoo2i4I6nqxGwFncPTtz4Z3Ldz3I9PM9w62rrgpkSz7aPATUsGuGm5+JJuEpZVhKUoUcAiIITL4y+Cx0ShhTrWxwDhP3fmyuWQpbU3oWoPnDtNFdgYhp8Pkt6NQ10//lz1oPjosbSbqhs29p2/klCsJuD/1e9o1R/+61zEwUdZbSoF7f0O+43Jf6VqmwdMynkPs8vkJ7u3N1MS03d1eladOH1Mq/R+Y1D49TZx/eS5TeGevaoVFB5GH54vmB476uRntq1m2vLIXmPl2Z19V/54dfRAnu2wt0xXXJ2NqE7X56DSDOp0SwO4abn4cm6CMQymUnx9fVmk15qZ8TqUvm502722NBH542p4pefjrjUE0xjJKco69UQDmCjs87I0NzF9Tje295xW4vDw40QQkpHBvR0eg1evnh96cvXSTI+cqo0RhPJy9VL7+sNr24dm2s+dm7ZKVfOjIzxSpbdcTdGmexUlqRa9qRUUiDxs/bQ3/PytJ7f6g09qOeqjpMSUC40J96P1qEyUpj73YGxLXj0rJPCMVc100WTHZELDjocFtUU5j1JunLJ6mGZL4XEYPvNWXq2lGqAtfGkANy0XX8hNEAoJUo5f2CItZSG56f4+V9/FU2hCGNMow9QhYCjIc4H2mf6ZOBNB9UIPozc0/xBBr4VhXLEKVangzcpi2BuLZsvPUtwEcdF4nQ1Vha1toVSYyMwwykV9Y9Ml0rSOabWNmzkZQVwEgnjV9XU93dJnb47n3bwnkVLJwEucRIduVmWzskKTXYjiyEilGA1CUZK+kpr3vZtZ0e4CGtHiRtOPbVZzMqKTcPHR/SpKmvwoJBTRtzWbizp+07pEUd/IyTDMsMlOEOvupC5G4qCh49s6azZrC0jCo3kF4Kb3Aty0XHwRN0EojW1zpjegfXTTru0xk7e8rvmgosZfAojDF1cp/9ffVN3PbMs0wZnfd7s0zUCMi+K1QBTj4hCDNp7FJuZ1IoLQ56UvYXs4xuczRvb3zbRmhaCr2E24VzHSyK7acxF1FSTOwnFCCMYUIfqmC26qNY8SR6t5eOjCCF8c3GTCTwgmmoFYOGKFgJjaUxhA9AkXPfaDMe7CeSY2I1LH18Ao/hePiysRr1+T2Mpbq2ob9unSQN/LpQHctFx8ETfBXLpPZky7p3lWvV6GfPm3zsW2GPbip4C7Selw+798L6PD/BsTFUI8aCOUQxO45qduMD071+S78FANRiBGdoZq8akjjxQq6cQPD4Jhmpi6ro5/2YijWV3kgMXc6nYTicTliAXWjXnJRJNFbsIRlgQJRB85LfWpkV4y92JpTNwji7+N6NOiMOF2L38WLeHLor+LIj37iy/h5tF9FBMhm5/NwCuXbwC46b0ANy0XX6bchJAosY/sg5zvykiPDoT3prqKcRY1bhDlpqcD//pTjgLJjcQS88URo0MIwiW77m+dDAgIH5zxDN5xI4SJcVGK0tx9j+nygIBBz5qGVJtEJhfydd+32SOpyqursy+h+8p5qbzE1Vynw8HNQDeKNXCyo779KGGEUjkSqOuH19tEIZ8D/ED063WdKhOpxPIbAG56L8BNy8WXcRNMY8TO23/377//87mx/en1vjQC0UqhmyrPFv3mT+0R0idirCwteh3Gts7ZtZBGrgVfaY95lB7oqr299nzwtRSxy3DZTudzXQ/bAkfCLha01+4wRrCmusYnQR6HoiTmbp9M+uFfv7MK01/lbsIh6qovJl5/IxBeTX1elft8LBzJ23YD3PRegJuWiy/gJggm+zWf7Z32LB8c+v6cxU0BZmd9zXTemP3swRDuJsUzwd/88VZAZ1/faE9PT3Dj1vHEr0Jud92KPOpI5vFzMYMLRd8X1YkbKZ/wDNiplghxmRyy/6bB2u3+tt6ShV6aGeowl4M0ne77489W42vATTjvP8JFVbMvBXDTewFuWi5W3E0QhHHVb0qe/z7hrE3T3JaOqwHmjx83lAdszE9GOQslB4jJC3008dN3Y1GKRsmKBPUCColss3MgQYtSjcEID7NT3uIZrqKhJnvrm57jibkcCKnOtT0Ufj7imnedR7e8DQVGUB4/PkPeOUhSYm24aU0A3PRegJuWiy/ipuTS0T99ZzEO/QP2OZ4T8OOPV7+Z2ezv+7wTJl4KEkg8KLxqEY3e4SJCUBRm2Wz1TJr3reZz+Hc4Po8Tfpw845Mue+XrHpOQOy0cXjWWIjtQKx9ms89hUCpNkcrjtVTrG+5wHrL0Xu3tTWsI4Kb3Aty0XHwBNyFYiNmFrlu12zOG1QVN+1qv/OWf/hCgOULiPquzQCimX7I/4VzCrCJEPNYWhnGr4/clXKm5P54dIgi1udZ1qfZAc7zdXpnBduk2Jz2jUBuTE+UDsmUkUrpc4fdVhxT89BP1Mg50/+Z7i1XfFr6GAG56L8BNy8WXaG+CSPTkObmawvIqD4eE7gBnr8mpSx1yc8nIs9nbEISurr1psOhCoD6EiVqIEQ7NVkumqj2gb2yszzlo+kSaHoLxqIHFPe2DVRMFjbWeAY0Hbhi5cdjN+1sHnoQ7SEtHTPf/8E9/jFsF/Ztyfk1uct8A3PQOgJuWiy/gJqGdWHrNt+VzGqw27TgtYVBicrJ383wswhPlc2KgnZ31xVQdMfRZ1xscCKXpNe+7n9NrGbPzqJofFUbwaJCYbtaFTZK9VnIqWRWJeFwIRULcozRzJjwi7a8fOLXJ4oACXltcmWZkUG4CADctG1/ETTjEsFY6Q9+XQry6kkT2TUxk4EuilTj4ItGr4KWMTyiLRBZLDBEjQ/Czuh4MEzNph/iyaKJZTRZiJfqF6tklMhjsUD9f2kr9ft7oJszNN+N+cJGcIXwZE8VbuyBckvoNOc+ZTXMG7iPATW8CuGm5+FJuwiG0sjChEq6T14s2z3srvwS+0aszFxAyWjz1Eg4RQvQlF/5ZuR/PG92EMlm6j3rL7fPpvwI3YS1Q01GHoZpTOtkargbATW8AuGm5+IJu+vXxRjfh1SDKiGlH+wltP5S/tmt1MMJkqh+TCq/ZfDzQtsJ1BLjpDQA3LRfATcvIG92En2MefeTI6PluU3ek+nIun8/jrEF4/Orcy3zB3oeDfyzfYW3g6GgA3PRGgJuWC+CmZeQtbsJrmFBISqpVV5LkqduZN/P2ZiiYmSmsJczKDPemmRy9tuOu5w9TBWcNfWIdDUYCR3z8GCvWlrdmAG5aLoCblpG3uAkH4XKQ5PFT0nGRHh4RER6Rkfjf1crzg8MXnuEQ6dEz2ufVnWB+xLvZvcLdwMBgpMQ1lk19U5vg+ga4abkAblpG3u4mvPCEYBgtXrzJVWHu+L5H86sYYsKsZwsi8OXMe/neeWH+gT6xToSZDEZGDJqSfaFF3xAgBLhpuQBuWkbe5SYcXE9MHg9h+In7OOn6rDF0dZ1wmvC63AghJldXR3EjMv6dRN8N8AzgpuUCuGkZeY+bFoBIdDGBog9eL8J/5GsTdw1bRTt9OglU6N4AcNNyAdy0jHyQm4iOWyQqmcJgiDHWKBQWmSr8GoDXAW5aLoCblpEPcxMB0V90LQO89FaAm5YL4KZl5MPdBPjVAty0XAA3LSPATQDgpmUDd1PTbY9LnSYs4KZPBq6u1tgy9aThNnDT+gW4abnA3eTzaOx81z6xO8BNnwrcwjPYPNWfs68MuGndAty0XCBcml2GrGf3/mTizZSiQMCSQGBIMNc6NXl/ztjREbhpnQLctFwQ8yBlX5ue2dLsC73nJUSAdwMxmayK/TVXeo7quLu7OwI3rU+Am5YLiIS6sSSkZrp3pSD/uPziXdaAjwNGmTwexfjI2GCXvHZTk4EBcNM6Bbhp+YC5iJjBU+fv+x6XadT7Im6XL1e3VK86Wqov3/nqq8u5q/DYiEOr5lJ9lcLuh//ztwUmNo4VjiMjwE3rFOCmZYQGuVUnRh+OifSq7Yx7oHlWNVNLK3OVcUzLZPdZlYup+45pHRMFvYVjOKLFVyFWPUcUJkQUtDS0orTmz2x4KD3W1f5kYOzUeIWShoHBiKujkp8YGKW/DgFuWlZoNO7larqT95Gd13sjEhIiVt8EHhP2fUG//c9//aE20n61HVxkpEeji4uHvcWJg7v3OmbHOhLD5FwDNRQT6aLTC1hPADctNzQIZbrxOTSBhsJ4Vn7W3CpDW/n4yZorhXcv5inniYJWDVlzEsoKOq4aura2ThXCAbwjIyPuSmw6qNGtR4CbPgsQMfM/w05cV0NDo2lVoaSoc8SjsONBmq6ijyhoNaFR4ejoTiiJwNV1pCLbjgEqdOsT4KbPBQRDVEaiILRSXCl2FZGsV3LWYaZW1jtbXVwUtErJHq73M/JlkWDQIWN9Atz0GSGmt6ZRyWTW6oGMMPWOW4Z3HkihM6misFUKmU4jBA/KTOsV4KbPDPFyuFUEzMtlR1k5B59yRaqJV/2uckQnEbAeAW5aX0CcFoGWpHOwaSAMLjhgVQPctL4AbgKsFYCb1hfATYC1AnDT+gK4CbBWAG5aXwA3AdYKwE3rC+AmwFoBuGl9AdwEWCsAN60vgJsAawXgpvUFcBNgrQDctL4AbgKsFYCb1hfATYC1AnDT+gK4CbBWAG5aXwA3AdYKwE3rC+AmwFoBuGl9AdwEWCsAN60vgJsAawXgpvUFcBNgrQDctL4AbgKsFYCb1hfATYC1AnDT+gK4CbBWAG5aXwA3AdYKwE3rC+AmwFoBuOnLAMEoxmVyeHy398Dnc5hcLoos02u3gZsAHwkEIx+aVXnLmVWBm74EEATBNEqIeqWPQUqZguG7UFCzqYhNtvMlL9NbJIGbAB8FkVVZH5ZV020c8ayqTyct0wtPgZu+ABiPrnvv0HWL1t679mNjExNjb2NiYsI+7m7rXUnZIzfUMd4yXCHgJsDHgPKpPm2a13vxTBj3nqw6NhZ3t/eu1OaLyqHoJ2TVF29MfYObwOtUPy9cJl0p02qwMOKkymxbWIZZenrZ20hPV7iRp3XG1LxmqGhHhh3MQUVpLBngJsCHg2fV7KiGgaDGLU9FWTVdrVmNyJhqakSuxT88y7zp6WZ4Vt1jesJrqHubst+SsyqNCjH5HJhGe9VNNBLK42M0Kr4C8HmAYYxldtK53eqREvdObjWfx3knPJ5b9eXLLJ3i0aCE07EwurT7xovXd7/JTeBmBHgTeFYlq+2cnrHcZ7uQVXk8DhdFMA6fw0UQLv4HQ1CuKKPiCLMq1UbFpT/4iM+SsiqEQoKSvHs3bOmE2l5yE8zkso3zo6J1GSi4p34eYC4SYqMZcM48ncp89SRDCMbkcJhc9JXGRAjFmEYmwVc85pVYGLqEK06is6gYj0ncjF5xE3Ez4sF0MrgZAV4Fz6qJgYedz8UoUHEjCUN4iMb8Y3/KHcj4aGkJcsf3xmMTH5SzKEfiWZUbcizhkouqLQXDPjqrwkzELmNr4TnzMjKKwIvchMII6jfb9X1XnTuDiYliA5YXhI/43C5oDz5dX8176dJBGBcRE0/Rzssw0KNjXBTXxguQam6KXMC0XJiAx/zoCw5xIb30zDP3DMg87BU3wTys3vroHokmBvbJtUXArwyYj8bu623vPFL5LKsil7GwsW4V/V9g1c6E49xfBKa1BRnM3JdusXA10+ZkePhmCTvOx2dVEoxwWdZ3fxiSVTbCqwwv3MR0g21nI76fOeCEvHrnBiwXSAsSaBocIKXFbll8v0G5tNDo4t6khIkxjySXjbddQxDuotWwG1Pj6Wh5675Qt5eN9iHgNyOB/9ahn638xWAEWeQm4mnv8P6Ab5NKnVhccDMCvAzSgo4cTgiwyPR7llWRO1heT/kF3E1Ha2v2cX+xuz/oocy8/LKbWphOF3vKC2YV+R+fVfEbKc8tPmzT+e8LwsS4/FyjBTfBuUxs+GL410UqBqRcrigmYLkh3KQZHG4VJXB74SYIwuCmw1XlFnXWBropbQf6BuO0BNxFT2JhN27FtZ6Au6pLcRMJgjlU/4ZbQ5vy7Hj4zei5mzgtNPf9ST9MHlFkLrEdC/ArhnDThYRwqWPqwqwKQTDaghqc1hxn/TeicPhpOvZ337lDjzWYbgiM86zREs+qTUciAuJuL81NeGblIiM7+281tCm6/XfIgpu4/00d2V/1Q+esgLlsnacAr7FQbgqX1FrkJgjD4lNSr0ufdcRyW1qqc8X27pB8eE+XzHx+QyLcpOISsLRyE74DHi8kQ+7c1x5ZiRg/l73gJjSXCTUdCPp2dLcuXoQSxQQAnrFQbgq3zBS6CYIJBUHkxBAGCf3/2rsTsCbyfOH3qaokVVkKZRNQUVAQgYArriwCggvgAnLOvW8DgfdFKuC8733eOyMoQQYG8DmnQWz7jJnWq4BILqCoKCp4EBVBaEARARVllR0uNhwBl+numVsV4q6tIMG0/j7zjB0qSSVA8uVflVoQTmysCMVZghR7NhOm5+jXJtOmPdWRYx030cg6ftTkgX3pd4Q/p+XqBKQvLCBzrA0v7L233ISsw2DNqMq8s00UZbnp6bSL89rk9N8gqhSzXbPYcNZmzsuPYT+xTfTfPJKsuRm6/cHJ7rp/Oo20SfZP0WXjhr0+x4XyMaxfB1+8V9okIwm78ws1NadU6Xt4TNWr0jPw8DCg/zPVw0NfX999fZ6b0dw1l+N4FIZ8epvopQi517LGRz7PMtpWnA1Iv+gXW2Ac0H7YEZHDoEmV3tUmFoZxI1acbei7o8HhIfy0gkUljUuCpCwcVV7/yW1isSg5329rybdh12J/TLniFhCzw4GUO+te3e6+O4KUv3gcAF542aY6uRzfPCW6cO2GHS4LX+fissRlbfzpAJ3aKjedJY72YvKT28Ri4RK0e9WDqxVLLY675/fucNykO9gxwzVN9vIdA1TgnW2i0yFxOu7e1Oq22PfxnqneJdU2mTzJK8tZn94mFouoS7nT0tViZhoxSSeg9WhN2wm90A6PAgrKBN7p1TbJsMtanWtvsxAOR/Aajgjhz77VceYySzrPqP/wpR7hFon/p7aJfmwJy1UvP32dlndCSJ72vQSdOxlj+dgPjMa724Qw27Bxu2cvfzxr2aX5T6KscJLAXmnGeLQJk6GVT9y2x0/edVInv2XDnOPa2/KPRglJ+JWDd3qjTW6RVQ5yCY5jr8EJCem8ttA9asuW2MsL1uqtjvvHgXFoE4ITiOXyhH//t+/qu/74v7YZ12DUy6UIMC5G9uEmSeWWs2Kx5O8S68mpr7UJxSkCYQvt09JSnKza2tqsUmLT7IUiFk6Sz38fI22KX3fS6R+/fGBD8t9Q93dJ8IaQGJ/+xISQkP7+ezcPcn45MPbZjSeSpCi6xpDJz+cdL9U6f/pF97JNU6JI8Zuf5yKoGF+pEznF7+8/aqwxcr94zumXUrpN8fdWe/38CS9VsVh24Edu0J6WH/7j36N1rlSKf6lTTldP9M+N+n3VE8UJjO1U2Z2dZFtjPcK22/+4fn7hizYhGIbYh8+btWPmNI9pRka1DKNp02qNJ9+9kdUtQJUb5Cra1JmwZLaG6fM5jV6NbbitxdyG//V/fTN46F/+jx+mzPP0fPG8PqcaW8/s4sqIWBFKUdhr25yCiaJ8qRZrvPpStT01tbzwg20inN078lYVPJwZUzJtTgQvR+a/tLqzZcOu7E94qTJqPLN7rtis1dwzz1bDXzlNPdWEm3ZnVEZIMbns9/GxEj0cIgVFyxfqaj9gDjeg3IPbO6+vMfTqBe0bI9teIhiV5uiSOBCWcGvqDGPjmyOMFxvqrw9sHvKZu5mDMxuO0G2q2dP7aDAgMC95ZD5j0t+Xl9eX2vHN//o//9t/Xc1P8M7zVl4xcfrf2pWd/to7uawsb527y6qCNtZYdsoBnwahh+gc6xsLNbVefan25Xmnd16NXrcqglkXnqXVMSVIJnu7TTIy2GPwu6GYmHs7VpjwSHoZz3Zry+Cj+MDkT3mpjvDOK7t3ryz501+mb7/s3mHst6GfZ1nfg9pnPU68V1fFqCl6hMzNmLejr6JRZ+GCY49P3n9y/vxO2qQ5k7ZqB3Ro729j2oThPCdHg4bAaxEyuURGDwyfk9GvBr/FA/mLXdtQCmXaZH20t77R4M68TcxcPsHDTU+uTZ5hvHX57hWKJzTBnjx5orykRP9Ycpebb5x8c21M++lIj10CMcRpYtEvVV7lucl9A023bBb4vvpSfbhRa6hT0aY6eZR7/FkLTE5gr/12EEJMCjdp1ydcC65MYzF70NEvVXrcVF+ib/7JL1XGeZry4qd462X3LmO8zaRJuWt85xrr3Ws48sjnbjBbQqr32B8RU3Y7p3RGrzveRtWVypjl0RHyn+V+S1qfr28iSIHDnVq9Y0V4HcYcDuAFFkKWCg+66BrnmiJiRZsU65vWWP3y48t5jQlF0eGTSJijaSqnqAGxrHQLaTXHKL8z2SyYL4MtQScQ/VKNmKRX2HXvRgRRV0q/Lp6T/yyxfto7sn2TTJaxRjNv6rMibt2Pv2z5ccSWLVtKSfuV17UH+pfZbSkdqZZiiF8dee9ZxJZPfan+TtDvKFImqZPwe64H/vX7W7s4OKrGYyeEHthZ7veObt3oIJK//jkYVocV2DTG37ox0iZZ2uyjBjOWezIBeh0hFt6+PnX6nRqWbGTcpNhJ6RM+p1N3eB0ZMcm9PuBmlAj9HQyMvxT0jzrifl50454ejlyxBvQFrA4P2sB8pGwpEdO3Ejr46iQ8MFg0d8FSpQULli6p1WqtaDF8ks15vizOjJsWJBR6Xyr+lM/pfn+Yj9rZmcaNAbfWFKvzdjkoidqdm16Rf7FYQr6xgI5JsKIFiZHed9py6F8dhouKV8454deGvLUgg+Fsk8w5J4K9WPRVWKk42KZpaO2ViDdeP18SBJcLckOuNi2NEpLUm+s1gGogJBpxYmZF8wbTV7dpUcAkuPX1/si+x3bMcQhQCudnzL5meDjPx6f/hTIdw43HN0fwqBdvRrRUXOSSPqSzP+5r21QSEUvsdxk2XFjriJYSavuRMyZHaszuVeQ9c8oRKyc9h5CY5TmjgKFFnnRlEBYPwcVyGf2bfXsJlb6KpK9iPrhCMAnrnPZw4HUH4Zd8vAD8ALlSvzD0lrlfmohNf9fKyUCFMDlqe2ldhbe5V45MOek5+qUasWvmUMDNGroyzC8DpST0H1RB2isEiPxA6asfTiGoBDnhVt+6NUj61R3agiA44eaJ25u2OsRZcRA1rRNWhzjTo7vD953qSOWk5+jFPW6GeeqhlmfFLDH5Uc8fwWWUIMim8JH7LnsEe+2AFF8WZmO/HTGdIUtOhJtm2PNga6cJgNWhBRtiAtyWt9W99WcUQ3l2a3r3ppp388Ri5W+DXnQhXoG/sWock1Echw2R2w4fTGN9yS/Vd8JwXtsm9+H42lO3/brbBFy1HPszbVrc9M420b8/ErP17W8fmrKzko2JZR84KK9MLicRYZGZ94VIzZ1tYvxLHk3QbXKYnNoZctHR39o/I5bNggU7lWPatDD9nW1iXqq457K+6HjdUxkf+VJlCfwv5Q0Xns31IomvbuDLfOo+R3c4YPp5Z4fgmkqBWq4S/41xEw3FcLbfRp/64aESHzf9mTYuC23ex2Whca3ug5b8yAtD7sfj0Df+Sn1pmDYtaWXaFO4fbN0dy/2yv121wLTJ5d3jJhr9UuUXHfMOHQ4oSXTTm7noAy9VzXXV9Es1YO0VEwT/CncxodtkNc+dadNmBwe/7jQuooZ5/u020deThMhkZe6yuQtnGk010Nc3eB/6Ko/amzsW3NkU3IaQFPJlbzP9sk2e/kFBtl7QJtX77TYxL1WKneF8atbRj3ipTmVeqvN3B3uxKAr9Cjfvf7VNwUXZViKeGg78P9QmxXpuMYWx2MJYp7bfZJViTy+4jtz6S/91Q5sm3ofa9MpLNe1DL1UnewH/K3mpvtOX0SYFBKWHzK+tWXwnHMcUBxT88kGbJt4H26QAL9WP8QW1CbwB2jTxPq5N4GO83iYNJ7X8MAfaNCbQpokHbRo/MG76ckGbJh60afxAm75c0KaJB20aP9CmLxe0aeJBm8YPrG/6ckGbJh60afzAuOnLBW2aeNCm8QNt+nJBmybeGNuEoIRMLiPV9xClCC6WvTwv9rvR3wNzCJBxA8t0Xy5o08QbU5sQhCfM6LHYnGQlUtMdehG+pV+BZ9o748Bki0IRFk9gUrAyXDp+e+TCuOnLBW2aeGNpE0rxKue4+Aw1u6/2Z6vhhuAIivAr759NmLq7kv3W7vEIS5SROdtaSGL2fnd9eieHE+N2HENo05cL2jTxxtAmBCPTds3MP/KX/2xfe0WDg44sOSEozpyBg1nQe36op7em0JMwgjmWiphS/mqRkfNvkmKZmMJRlLmHTEYqT5iAYDiuvJJk9oZ57UrmehSn6JnJxK+cYIGeRpAyiptklrq9ae5me4qiH/LF06CvRrhxN7QDXYoISmRy8JLZuYiRw0wpn6tYecBKBCMI5gxHKMrshfNi7r8Nlum+XNCmiTf6NqE4InVYENIQ6N0Ume5xPJtHKN7yiKA46/idO2ue3Naw59Jf0+9xQXfW8fl31uykp/CYrxEMZbfVnNhvvmaFQwQbpVPBl7ZZRkRU2mZNOr7buVvKk2Zb7Lyx09UzhUdfyRW22UV42dlaTDo+aaVGGlfYvfL8/lOO/k5cHGPRM0RRdlzB+dV39h/0j6WfFD0iYs4GzLHzdwgON6m5FjJYcnGlvUzGtfJ3PH7n8fwrrkxHcVaaw9HyYfddaVwWL1YjPE7EPDGcYGesPPXMfNWJJCE9X4QrsPP3t+MSLI7UXsj+2AO+wLjpywVtmnijbhNCkMLNG/sjE+fu31MW0DT9RCz9hkeRtstLtctDo4frI/P7Zi73i+Whba571ueHtl+ojyzvM1wenMKilwRnH6tKaKBvFZ9qsMbPHsHtV16foqV1L7Eksj4+VWtq7ZS8ko76joE8l0kaHEIUdffsPe31iSXxoYWN6/SnT0ku6RgurEi8mRsuRAmEbTJnyb2wwuHh4QZv40kmqBjHRZ6ndujm9aant+StS40ebNkTFWvvYG6QWN7cPDA0FHP4WA8HLb6vX7Fv33CiwdJTjsuNzlyv4eIU0v1ksXd5R/2FC0M+Nuec5FSsg7nmPYONd2ecWf9AS3/yDYdY7CNW+0ObvlzQpok32jbRy0yYhvm6wpLFu7o3Lw0J8J5VIyDkHD9zrYCh9XNXPdlp7tEaWm60O6no2a0hespyxZTOMKMVcWlB1+9VhB2+uGr3fpu+iiaP85ZU7Aq90L/9tG9Ac+sll7KOH/5wtXqG+f6tZ8ICHjzWEPMc9Qb/+x9ON5xZeu2iVsD3f/iu0eNxrpl7c33iVj+81OthbX57eZX57ieXalM7e5c42wu6nxiUD5ecnWx2acf6jr/9xyPvY36V5/QqBnQWPMy02D1r7VDjHg0i5fbdsvarJbV3Hp44ZRgfrZuF4HGTDBqiW2+uOX9+vn5FV/XGYHt6YBi47w+HInvPLlqomTpcMfVcCj1O+9CrEZbpvly/3SZm4f+DLw8wSqNsE7P0052rG9DeWnstd79LwvDQlOPZLHHGycMNjbUr2ghSxrW9UbtO/+Ts1TrNMYabrChSxrfdP3391P1B52xamtfPqhEREiRjk2FjmMGKiIiD04f2deqsyhbxus37r2578CyblHsdNG4Nm+bKZmcZ1f/hkfaabC7PMvdw+97EZdZYTuxB4/SGql1szpyqgAaP3SaIhESLzfM6mxZa2C4v21Z/5kYGghH2QWZl0e3el/y9oi5NXhNklyaMsziWvK2z1plLD67utkZWZfFQL8fpkfX6t/lWV+51DU17aEnJJbj/sb7Q1qW27CSzxNM/DU2f58UTmq7Ji87fcNuJOYftb/sKxk30mxDDxvQu/Kg7MrPHFZj1kPTtx/rze/5oY366b3pvmxTPGEN4fD53ZAIYL6NrE4JQmMkN94BD3w9GNgxUdGzbty+yalIEK/x6f7Pb4yI2SeAo20qjxlZj856QAe1rRVzx8ynFQdd9mt3Ma7hyisL5GqsfVCQv8ys+aBgWcGtNhliGWN5fN9xQO8eqLkcQbJZXfmZnm9R1WuQ2n2Wmshws5WBVZ6fm+UoyR+Bw6d6AzvkMh60+YQZZiITACDFn5eSQ5sP7XedWnG4x88dzSAoTWG9MHfa5ZmtvtfnOIl3tB8mJqc3bvgmtzRJiSKV5S6GuKxe3L9jQ3GFw2SvIpSL+ZhAbp3CxOO32kqaA2iCh38X07Z1TdlrKSinR7WmRHVU7M9C3TiH5pq+gTXxBipVVmmj0b0OuwCnCK0XIV375HvTsI+IqM2hxll5O9vQP8P3DESYK7+kOjy9kHk3A53NinVLo2Sinf4J3tYn53IXAES7bKeiZ4Zmb573Er5+LFHyaUbWJOfNK2zyD5kJvm9UPV+zenfv4ZnVn2PR5GUknD1f0Gp+IJcVytPLcRsPJp1yvuQ30Gu9KE5MyNOPc9ZlLcufsSWg+uyoJkYhllMDvWH++zo3uuDm16Y3TJjnViXlxV9YPD3nsjpDUSR3MksvX0m2aPS1+WOukibwOsZqjGVp/NreYKBX2zLrXfHZFXNDc6pLaAjKHJEhx2iaDknL98xZH80+3LvDDcsQkLgo3C4wO3BgVvrNqoHmd8bUnu1fcqB3o0JstwIiUGz6h6887sQR+c8vpNlk6Gzc07AjHSIqSyL0eegyEbfBLuX2z4lHjjiwrQowKL3sURho8rETJr71NGMU32bRo3dpLfvastz8dYM5G/h70m1iQOdft8FFHL5x4b2twTGSywjghMnKgvLE1sLpPe9r1FdYRgtdn/PwiwmKnedl5xb6ygd3z22EY1+r2XLczGwtSLHc9Pas/q0c08ukrfYNX5jQ6b7SpjUWSFI6IrDxnr7ZZ3xQZ3+Qzc7eVDNo0nkbVJpRgaZzSryjUXuNJv8fpQTeve7VWR/zZ+37OvmUBTUbnTdPYGacMygNurSoKmnVPOcXklH7Y0OGTmycZNebr3PGXcgQmm2wSGpLv+rNi59XGNE7d2SYRs+yOr4/u1HxiJ5ek3J4bUl41R8pxnRZwYd2zYlkdknJO88Ij7eXZRGmaxZ7EAc2DAqfcw/Fhiw8WC/lOtk/0BwJ0rnSbnNesH+w38xfyeSk982+FDrYufDhnQ37olBUZHCTW+a7P1a5bpzL4YtHDssGSPcFSUc3c/NCqLE7cnZBt5cZzKrls++xVWh2RUybFObnObHiUusc5hRDzvB6uDR1YPNtrtMt0X976JpxkhzN/hC5ujn29TcwAgjnzOkUPkpXfMT2qUR4KlTlcKoaKwp+YmR9MkjJTme1BmFOJvT7sQQhcEL5Gu76rdYrL0j0LPW6FhHUOl5y9VOCEKJaf6EV15jFGHgSh8MonxjrTl5tiYvorxeMzT4AiMHqoxZOG7/S9tsuOnbHTKDDB2FXKbIqiuMHILUYecFRebVOPg2kswmoLPr/RI2T4UL1PrdkJDSmfzf8qD0StQqNoEzO+tppXWz7cvzGYjzPL8TjJ9Vx+JqBiSq6p6e6Z6Z0D/WvPJjcXtk47bspB7SbVpndW+Kxd29dcGDMtN9u+zWJpWcNQr7b74ZCK+MBpN2w5YumuRS1hZ/dbysWI1/m18QMeDyMkkoiDNi3pM5wxZOXN/NB75hqyOjRttkd859njxUSd064N1eV6u7Acu1MeTR0DiTru63sHInsXn0gjuV5ZF6u7olvPGNbeSu389g/fN92cF3XywfCQlsvGJe7VFcOPuuLLnu5y4gcZDx1pXJKVEbynqbNqJYpq3KgK6xxIdtdd31s43PK0gI85ZS0aGEy8ViOlxPzKXK3QmI1+UvS9f/Gf+9LHTUybVp3Jr55b8FqbUJTFiUjqWWlhsdk/TsijXyV0K1B+rF13dnFlhFecqadJLJsr9DIxiZCyOU6VGhkpIlGsXUaGZSyf2ZBECcFxUff9MxVNM85ZMmNUtjR70uLW9iHd+9kcjEBRfopGUcFKi8wgWzshC2WlFdx1i8lbctCOw8MQQUSSQ2bW5cuZwfRfBPr5cIURxRltbFbGqdqQvg1ZHIpnn1ETdDsry6LAujiFjXzor8zbnrdpsqOGhq3f7YdmBqlX/7y3Sf/uvCQh/U0wa8jU73f9Oze6NrGcsrYaLbzvF4uO/CljplxeYHh0TrGAHzF7o6ZPYEyCzpKd/mn0n02WIMNxo+7zKfYo/ery6tm/SDuhpaVsqpmjhpT+QyiyPTXX+JhrCkmgIs/zs+6cyBZQRJr1k6Vzc4spPDt3ycytBy0JEuWabDKbNSdbipFC20kbn56sYclQUaWrr35Zda+P1szVm624KIZifLvbs6oSSsJKYpJ1HrSm31oWnOK0eZa+d0tI4roZ83c/2aq53uhGkkDoeWOaltHyYM9zRxevMsEpjF+8665ecmpgovbi/Q4pLArnaOycUXU3mMOcqta+x2z63Msp9FsQ2vR2m+jFfJZT1DODwIDOwvr6El3zqBQMRziVmWtmrAvsTbx3Vv9wS/X0TV72Pb6auhtv23WfX7zOzeaameE6n77DNquc4zjPf0b0Mh27+PjaipKZcyxxGY5iFMEt3n8rvkIvt5j+vSedN/aJr7/QPtgepjs/OCL74YyW4SOPIhMXzslI879h5NNYEhZWMdCkvXVlGsaSRl131/WNcjLZaZSQ/PR2SsTspVrlhYXx8YXx+eu33nbijbpOI20K9dnobGqxZkNZ/d6AtcdOmCAHft5y4EBOaWkdGH8HfpX47YiJ/8h14Tw+xz7WnsN9ZfTKYwukUg6fXnzhiWItTborraQvVnhyRWkjU7iKpRv6/3yhlV1lXBuzlpOZQs9PYC9VvId5PC6NR1/kcdkcgYjLXCmUCkXM6XF5XD6fr3hU+hJHwDwc/T8e294rrtLSScpn3iE0BEXYKZWm/v6mlW12STVJEQL6byqb/gOuYRJhz2axOE4RbULmubBjI9rSRHw2h549/SWdWFFaREaGnROHN1JdLsc+Rfl98PgCqeCjxutfwzLdG21CUEIYZKbdEJ8wc/X55Rv6Isv1nmRIMzbNbK2PTDisu9a7edtP/7HtwTXruBNGzQN6k7o1cqsCfvjLkY705PV9jYWhCRczhehIKF60yXCenWLdHoriooKL1QHed4OFEZOm5l9o1F26/8oxo5DOBvc1FvMWuDUMhjbp+Gb17F5UnZ939ESRf8FJ97BAl6wUbtsKvYF8j01xJpNqQ+4tyNq8zHt4uNr4+GWL8xtahpuNHpog1Ch/M4o29cYnGG6dWfKXf/tzs8fqXZszL7vOnu3o6LhrF/0PGGe7Trg69OROb6249XFtYl6MzJhd+YUC89ZWTGAuMB/8vhxfvDWFmcB8qvtiFoo7v7isvET/VznHd1zJ3OXF7UZm9soToicxHz4zE5l/6ekjN1I8JHPxxYyZOzGzUtzt7VnRX7/ygC++gd/09Y2bUJwV6zy5Zeieb5BAIieljjN6G6cst7jhHlCheaVSLKec5kyv+NPVkK0FJo6GYeUGD00ydk8N+P5R2TI/RC50fhoYkHfJn9mQlp7XW22iu8cP2pMY0H+d+Uij4ULgwieZNbZB5zbmdTRUTcoofuLRd/ZxOCm3slhzbI1jkldlkeu1wxXNmrkm/JR5BuUlRvPiTM5P77vlu7Lg0r2OyLKjOx2dHbKWb9x4pcCSh4/yV6NoU0hYScCh//tf/8+f6stLmiND64eB6kS3h7Zq6zzobdL52DaB9/ta2vR0cwqLULQJF7NrnrmVe89K4mIETiJJy6sC+43Nd4RU3Hpmy5ZRYtTkiV58V+9RZ5PZM5rCpj7USLpxuH4w5HqUsE7CqTF/0JBw1DkFUwximDaZ5J6tCJu+SdEmenkaTTthVD50ZpVfwbH+C6ePtHcWFhZ2hLYfGUw1PhGXfWqaj9bGID7Jiw0/cWeD3rrqxuaOvUfi167KFsWem9bURLep+8m0fjffnli72b56iWGRw6ED3rXXHD1TuGNbpgsMqNZfWJX/5/84ne5hljvnxJwVk3Y+ASpyatJs15Meoxg3TRCUEL/YH3gEglFi+Ste2YN4FBCcVOzzqxJfTZsK0lCSwOiBJilnF11bX75udSWK44QM9V92q1d7z5Wj/Q3rrhWxxZSM9Do3feBC9YKoDNeb6SVTJ2X7P1s3XL/+jj9HLhMWXXtQkbhg8yttqtypW1FOtwmT0aWrI51m2zR2Jh4L9go+1j883Kp7c/GMGTNuTtfVW+roxLKbtzix38WCjxc/qa0O69Wqdbn+zHdKY/nak56itBO1TY1G8yo1cqcmal0P4iACp8qkqHl3nk5fnx86oHMtKpYelY18Ux/p+fqmBZlJrtfPxIRVrzPyPVHMrfvH338+UCeXARWo+7sseMdHb3s5MZjDQ5n4+RXbM6uVnk/i2lfWFFhkZVnQ6H9X9nhaSplVUaOBoGxLWz/PCAFrDFn7sK9hfdNJnYb8qTuTpMxqxlirNLbI7uDMxqFbz6zZpZRT5tzEgb6lt/0nTc0P0Lpmi1Dc7ONGJUei15nbWrrOaCwxoNu0en1o5Jkb2Wy52L5gY39F3ixrKbOjtqJN/Mon7hXltfMicCyl22HXmumBnYXrZ9WwMLs5MxqH1t3xRP7xD6x40qKztauSRCkrn/qkTp8t4t+eETYw5UnEz7+SJjd0AjrW3UniSncZNTVNm5dheqMq4dayoGzHrUaL19SgW/4u8bzrc6Gi6n4xf2TDhI820qbOkIuzTU09k/ydb8zwGWgu6XXbkRsVx5Xn1H3oOIZg9Ea3XfiEQDFE6Hd3fbLNuTgepfiVM+u4NU7VBg4VFkbGK0TGp7qbZTrho1mliSC4uO2KbsuZx9ZcmSpeSl/8uIniZx/XLPz2ar6P1pnDt7TuJWtPNbPwvL0xubAjUHNx7bry4SEdc2s2L8J1R+9wZF/VNPeEzn1/+eOw+3ETK0ej/IGqndm2q9cNF+qer+TKxU5ZO2Iiy56ZckbaxGLatFOz8/vOhMOaa+9Vl9d3dbbUri5o41IEK+X2Hu/Q+pi1ixe793ZGxxhOimOJklZrBQxUHbcOMndrLi8zXDrXIKRw26OuyOSFx7OeTCvPn7rJxPaZW+P6ZQ5xmRcDBwdb1850MdYpCS3XX1UkfWUd5Ud50SbFtpemAjGVUrNpz62wjvrogL6ba2Zn8yUSnAdbOI2niWkTgiqWyCRymXJBjdlajtmEDmW8fJnQE3BCLCekK2fGb/NZVsSX4cxkjOBZzTaM/C60zGjD08k7aAttLl5a4W+P4fQdKBk94+cHXmIoFv/oSa8sFDKbApKk5EDbrJK/Rk9z5ZcSyivG05feJgTlCbtn31liOE1Pr6pKT2/KFI8Na4JSeCnB93ec7esNWW90bJNtGotAOXZRuQuMdPKSzxgZ6TRGB0w5bynUmPP42m7bWKugVXOXnrIVsghcoLFrvtmVHqfnK3+Y4bLGrscbputr6uoZGc81u+IansLDmCVwDOd6RV3ZcLilPCzkzI4bznZsnEBE3XOuT/M4ttIrwnmNsVtiYMgtw+s37vsa6i06aRE0x9x8XlJaW1TunfvOlgjqtXn/kqq83qb0Ps2j52vSeOiY1je93C7ci0uQklI5L8Jv5xLtks6r3w3GLDqRAvusjKuJaBP9DmVHFB28v9p8ze4eSxGzQCWy0vCslDLbHQg5fBam2ASA+YiNJY2z9avJ1nA1HujyMXvZJq7dJoOhIYMVlTxSMYU18heKHmKx7YIernl2fLZnGjqyfpYJmd+8/XdObvJrYzYEpGeM4Ri7Lcmhx1Sa8Tjwu1Bo09jaRKP/krAUm3YwpFKBiMtj/pxgbCcT0+4IKYugCAxLu31d8/CMZys17OxTnOcGtjfPnG1P/yRGtgLhcqRSzsj+eDw+m/36HrL03yoWX2Bvby8U8TDy5aH+mE8E6eR5afjbFluxcfpBRm4rSrGMsOfhGM++0rPGM06KULjIKaJNKuJyFY+m3PaE+QOGc2Pp29iapPCZ3fBGZjoKb7WJ+buHYOK6OopjGZy743Ce0Skv2Rh+ouC9VN4merleVDl749mWsIGBhqHmxOn3k7iYqHvnTTddl7k2Bmu1blUtmm8RwcJxLNZh/wZd797W3v4HyQPbLpS9Om6yPOfREKC325LIkVGKfR7onmGI1HTFXLeSwgsXQivKdmwy4VP0XLxcF5zpja+PvhAQOO2+Bv33mRB171pW+yAwvTFE61bqhe8Dai9Dm8bYJiYJyiMFKIzsdaIYlYpJihkJsxCc7Xlfr+JR4T0b32sXbzV0VVTd70ZwxW9M8X5+sQk188foeXuU6IHz8wMRvLnUxQSGlImZlfDKK5iHVeyCwlwlFjNHTlVOYv7L3IyZ3ch8FFcwB1Clb//6fD/OO9ukgNIDfTHKiU0Z9epP8NtU3SYEJfk1z842xUx5PMfxRK5Ndb7bmiQOP3t+8qG/HYmu8J56c2rfUMP6a0X20vA17vmdre4bjl037I/+6c/12teslW1CcVbKykUV34f26d1caDzDcNrUaYseb7Yn087NaLwQdvbuzp3HqmIKq/f4oYST89KQ0AqdpatOrTLuHS6fec4L41i4pHYV9s1Y9niJ29B3f943ND2LXwdtGmObPgxBEU5Glq9OWPTgob31gYZXisawDKVu3t8mBjN2HNt+euD9VD9uwtmmm8yvPelp46eZzlsUUx/jkpXCM1ldtvePF9auso0VRqzQCwjVOlnTY9YfWlI7L4KLoZaOk3u3Da+b788VP2+TdPOOir/8ZW90R3zAUMNQQ4m3i6OX5SaDgQGDeREsOcnWWO09nD43qtJxekX9g2v+LLGMyjilP1BhmBnhOn3owr2TGhycEHruP9z+TeQMC37dyJLh+II2KdFjI5ReiC6YfdCxwNSJT49dlFf8fv12m4AqqL5NKItT6Tpr+hm3dXkJJfWnt6UbO1rxs6/1b7+abK4hlpAshyUxHcnHsnZPLew8c99SJiFJNOUy3ZMHd2yftwlDBFEuDaeba5ff9uspiAoKCratFLadqy2p0J0kzBFjmBgNMgyo1zbfZZ7csf6KCY8kCYLdfV9r6PD5zK2pj9K3FufkEDgpNtma/6fIm7ehTSptE01x1ACCoP8Zy2Zo6gfaNPFU3CZmgT/N+a5WY6vbjvn3H56aWzbQu2i2E9vTN2Fb/dn7lZQYExVsiCksM1s5xyigU+dGJV0rEpOuvNnQ5X3pxTIdhrKLJjcfCbsYxfpRzhx6gyIo0umJ+9CAwRzRjzJ6gmh2VWHF1OOuyxLj126yQsUkSUl7fH2GppwInpUwWDI3SVJK4GKJnW/JN52GsEyn8jYpvNzR6HcP2jTxVN0mFEUqTz4IaNlwLo4rKN7lEtM1NHVFnMD2WMK2UM3cOEqGCW/PGBi+N9/advmtyKG1VzSEXK6dxcb+we0tC4L4ckWb6MCxkq43/qlryjlOKcm84unmEZzga+sjm4yz6AbY1xyfOhCv+7DNa6dOfaTmjSQ+V+C162ZTfYivbWzPxab23qWb23iI1GS3XujfLnjMhnXhE9KmLwi0aeKpftyEO+0y7o1PnbJno/Hh6orQ6OiwKvPLWWb9XQFTH1qSMiT2xNT40FvLNUReu6c3dhUmVs0w0o4Z/uanI6kXnUUv2oRVrsk7dHX9KWmO8h2FoAg/44lBfn15nqaeW+rQUILxnDY5UTlnYUJhfMLaqrPezdHN+k8y+DjPb0HCYFfTLcObVd4Bp//6twtTTkxEm+BcBl8SaNPEm4D1TVxp9u7JhxMTWvrPuNzZuWrh4cMLT0Wd2KO/cGeSgCBQtu0a40WrHFIwQmg67+it1vLysNTkdSFNqe7zny/TMXGSFt0/Onl1j0j8YotuBGUJTXYpDhFVrT3jWWYEF8FQhBvhPL/2XmprS5+emWslB8NQlO8UZK6X0FSenx6S552Q6r1hJaxvgjaNDrRp4qm8TTSExZa2mWRnZ7RJ2VxRWltbipQjkKZJOXzmzctjc4RCDpvHrJ3gCtuKw2tqTCvtim1rsr0EvJfrUXk8vkggYPNee0koDxpVbGclFTHHX1RMQvhSL5PujAh7tvIQKMwuL7GVSTVF4SaWcdm24SZpr8x3HEGbvlzQpok3EW1i6qDY9I7ZPUWxm8rIf5S/Xeay8k08cjvmloot9V779b9ys1cwU5VzVk5RTqKnvTZJMd/nM1ZOHmfQpi8XtGniTUybvg6wvunLBW2aeNCm8QPjpi8XtGniQZvGD7TpywVtmnjQpvEDbfpyQZsmHrRp/ECbvlzQpokHbRo/0KYvF7Rp4kGbxg+06csFbZp40KbxA236ckGbJh60afxAm75c0KaJB20aP9CmLxe0aeJBm8bP76ZNi5ugTaPEtGlyKrRpIjFtWpgObRoPdJuc5ugOB9Sqe5sWpUObRolp046YzsSn0KYJw7RpQyu0aTzQbWrbdPZCgOEkpk3quj+dHPWf9aAh+ZnTAZlyEvgwLAfPmtLZeWtZVngNtGli0C9V28faDd6PvQ7I4Kf9aQiC438tcbDpqIV1cI+fmo6bUBK1mzetIexoRh206aOhRJ0oN+H00MxcZ39raNPEoF+qluemV5Qv0aiDNn0aRFYnnX1z4ELZGn/T4Cg/NR03ITjK17jW2+WzuhgrlYzxbG1fFQTDSTkSsctwoNPtjoVDUTC0aWIwL9Vi85auBHMNtLTu5XkJwegwJ1WXoX5LEwMSbB7WhKtvm5iGiuOurA1ocD+e7SRESEldaZ1EJepyDhzIUdG8Jwr9wxETXCf/K5rx7SGTHzqEFzk4QJsmCiKTWea6DwWcvWLqJGRRqnupfrnoHxnJ4lutXJB49VHysiwHP78eNW4T/axwrPuke2prQpmu8d1Vkw7OdnWdPd5cXR3nPHzyZLcqZu5KU158DTP9JeVEhnLKqF12ddx0/9rT6W4xhcMlBvuDbOkyOTj0BJs6QZsmBP1SxU32a6bGJJS5L76uopfqhFG8ppSX36C46gXlRIZyyhhdvrzr4cmNi/S1YkI7Q2xyN9vWBDvQbeqO5dM/W+XPWN0gVB0RcWJjVX9j+UB5Y2pLS+B4S0hsrf/bv/0/P0T2JlYrJ42bFpry4muY6S8pJzKUU0aruroltSl/oLkk4ZbNydu2/n6KMvUUedpJVXNUZ/A2+qVKeTlu1OtrzFfRS3XCKF5UystvUFz1gnIiQzlljKqrU/MDAsIC7+ld3J9V46n40xpUEFwsZan16WxRQiwjuCmersefzb9z59l4W3Xlkn7Yke2pM+dfOamc9LtD/1hOXpl00KLAzzbcX/F7pdNUEOVvyaH/6ECbJgzCvFR5sZ6uuSp5qX7B5s9fc3zT7EyHmvDwmpEXcE9QT5FpG3vk5ArqDMEJjG3V7V9UZF0zzkxNoszK6gt11hSZJCkn/f740/+3LvKjx8EKQUFRBUFF3VYiFoyaJpripepUrIqX6hfM33/k9fv8BRwV1VOU3Sb4nfxhZc4J72Rn0m3qaTuusjN6lt2rj9Q5WZNhqpz0u5ekYVLpZc9V/785X6aRl2rGuL9Uvxqept2VXmkcnvL8U78HKP1m44sEwnHFx7yOnwlo9phjj7OVk373OGz61wpDps8IwVTwUv1qCERc+s3+e9tqSHlurnEkzhE81KwoMcxiHaCUk37/YGOwz2/8X6pfD/pnp/wpftWoOukk3Yaw6a7cUlWcQxkAAMYE2gQAUEfQJgCAOoI2AQDUEbQJAKCOoE0AAHUEbQIAqCNoEwBAHUGbAADqCNoEAFBH0CYAgDqCNgEA1BG0CQCgjqBNAAB1BG0CAKgjaBMAQB1BmwAA6gjaBABQR9AmAIA6gjYBANQRtAkAoI6gTQAAdQRtAgCoI2gTAEAdQZsAAOoI2gQAUEfQJgCAOoI2AQDUEbQJAKCOoE0AgA9BEBTDPwDDUARR3n48QJsAAO+HYIRYLpET3LSIyozfEudlz6XoW4oJVHnXTwRtAgC8Dy5GIyyebaha5xMYU1Ke/1vKm2IC+9fr7ViT2YaJMeX9PwW0CQDwbhjBizhoGFaYoFm7cOOz3EkrVux+nxUrJh2/s8DGyD2wo9F4thWL+PQ6QZsAAO+CogTisLB5e+vk22ksHkrK60p/S52cQrmsFNeFTdvDLtagBDq2RTuEobj0VpteXgUA+HohBM7xnBVztXqVJUaKcVRRht+G4jISyTBvvdryLFuEE2PsCDMn5r9vtglBUSgTAAAVE3GndCMrFtlKJEx2CBxDfwuGExjKQutkwTOHAqZOsqTEoy4JgqOxNedObbKWUnSNXmsTXcoUhxU7HT2lOCzgAfBVQyWU7YKEwuRLGRI5hnFjNZznPTm1831OPZmzudueh2ESWfaxxML+Y0li+ejbROJOK13y690v8+lFwlfaRH9FSHfmPQq76JxGUjB6AuBrRrfJf09LZNljk5w6fsbD6emhkRUD71cR2dm76KAdr7Qu26wvMvH6WNrErOLizFm376rmCi9SLn7ZJlJCmNx48N1VPWcePsb1WACALwTTpqXVkXnXKv9xwHbB+vVPD1ZyeRzBu3F4bJNNO9bf8s3+5RcN3/5In7tjahMLEcucVhgMH1o/jyuRlT5vU45YIl3ecnpoUZZAQilvCQD4Sr1s099/7Fnc57GijdyyRfmZ3FtytmwhLHdO8Xax/vnnT2kTPXLC2M5Ve3/Iu5Eh/5Uz0ibsVyr8Wupf2238WRgGoyYAvnIv2/TPHx1uBpYdnXQ7KGjzexT0BFk8WdIXuLDmE9vEYhESftCepr0x5tKfRQ81G8IML+Nb4o42HPK5ZotIxmObTgDA79rLNv26JXh64faKwMS+vv736etLTB3aPrTI/x//+MQ2ISiOmywY+rZ1vp10tv5Q2KIgjufRhm9j1lgRGGxEAAB4Zdy0Jfhma6LNmt0nTsx5n4MnHj67mRDo4v/zp7aJxcLkuMnxW10VR5136zc3LnZ0nV4/PHVOGyWD5TkAvkoIgqLYi8MNUAfkSVsTRtY3ORh7G0yKQ+rqxO8hq6tjmRzX9N6gXKbr9+2uyyGUcxotgiIl3DluFyrcdLX7krXd1ze12jhgMooY6wzHEYah43u0BQDAb+GxMFIukVEIW2AfG5sSS0vjcgom9xYq29RXlZvNef9mjwiOCzyXn+1Ttqkw4aiDiJ/GzGYsUtIEHCe/WYn7ftoWX3jor/XTTkQIBdKRp/UZpcSmSUVcZuedOhkOfQJA5Xg8rK6OX3N/g6aW1oPk/sSQhBCGj09j5/Yu78dx/xxdm7pn9Xdt60z36VfMZWwSQvLWJwz+j39V+PdCnwd9CSNP6nNKCEnsK1t/64zeovnOsWI5rJcHQKV4PPJHrOjYvaHOsDLdWpuLC+76+h6j+V5bZpxcOJx8jW5Tz81+/fOVPLFYuWTzFkIs5hbf1+1faE23aVn/cEDZwkvXFLMZq7t3l81fPX/Z3buz7jx7bHZXOfWz8j12/ajLdE2tkIHOSJ+nBVwJ7D0DgOoglJjTs7H10ICNY3csH6HkpQd+VPjl13/GmfnE513L+PlAtrmm9oxVPXFx3Rrv1h1XufmOkbbByYwtW7J9++OTzdt+/XXLyIw+wZYtv/yy5dNnM24OSJilXsugO3mnTz+4ksESQ50AUA0EQ1lWkw5HD+vutv/lF/LVw+oyn9ON7LNCL/DZzd56K32goeF9e61UNDQ0x5w5dtuLVycxHfs+K2qPOTQxRcpZplc0h/INL9uzYFtQAFQCofCUzCXlhVOjCPEbGw+hcsrTty/Sx7dbzuzrm2JaMPvcuYPvc+6ca5BGrGJfX8+t1ZH3LmmIZV/s6mJ6EVb4JHFv+dEgKQV7HgOgCqgML75xdqBlY+UByRtvMoTEvU7MbCisLZJIUBaKk3JJ3W+RyElccYyUKIPOZpvZThT55b5r0TpxkFHH8PpZUSlcHsQJgPGHSgjrPdXxZeZxkjeHOQg9WKpcntiVuDwCJSnm4E2K48e9H3MIJ5JCKu+0dOXl2nGxL/hzLFQi9lzQEppqvClcwySNC5urAzDe6DYVPe2NvDf/7TaxEHqBz3ZBb3ujjWssV8TnMgee/A0Ii8tnc51OzCyPDjmWTRBf8haKqIT0vB7S2bp4U01NTYY9n/5ZKa8BAIwLpk1zA9/dJhYLw3lWs42bOmNu6c14arb6Su7x+++Te/zGM9+LM/S0GkNbXSxSWPTi3ReMadPGhM5U43m2tn41JrEwcgJgnP12m+g6UTy728uX3tTXKatODyv/LWHpCWVn9Bdv3e8cwaK+8E+vXm1TT5B/BBs+rgNgfH2oTcyn5opTCPB43A/j8RT75H35g4jX2hRVYwltAmCcfbhNzHqn5yuamB1d3+PFVfStlff7gkGbAFCxj2kTeAu0CQAVgzaNCbQJABWDNo0JtAkAFYM2jQm0CQAVgzaNCbQJABWDNo0JtAkAFYM2jQm0CQAVgzaNCbQJABWDNo0JtAkAFYM2jQm0CQAVgzaNCbQJABWDNo0JtAkAFYM2jQm0CQAVgzaNCbQJABWDNo0JtAkAFVN1m1CcEstGiJkTInwhB3eCNgGgYiptE4LwOE4awc4rnQuCHIpsNSztuQRFTNi7mMfCKLqHqng8aBMAKqbSNuGUfYHv4bDh6M7CyICKppBbhhuPZ8axJ+g0BwjKS6vUyLAS8MZ/sAZtAkDFVNkmhJJ5XXHr+q7jwQyXxYbT9M/4VDy62mhzOYWFYsyynlwiYc63yTwsguEv3t3MZXoaihMYhpMyuVxM0IuCGEVfklGKWyvQc5CNzEBxRwQjCJw5IDA975HzpuN1/Ms71hour2GT436mPGgTACqm6jYdP9w1qHMC20KwuFypieOGsKsDxrOtxHWY1MTh8px5J1aGpyAEyuNzpFI2D6EXw1AcEdkLuSgqSnHicO01oixWFtnxCUJY3JN1OajbnoWh9M0QgkKlxT2zzzk6J8Ui9HIbwrX3iojl4yTOzINecsQQKkdwal1oustloQxXPqNxA20CQMVU3CarnbrDj9zOoVvEzDpxueicTtdw1SYvTvj+Rdqp5RUNDeXrnp6IEFltNnfZ6iqVEXRj2iyuG88Kksau3Ogxc4lhWXlARa/7UfNlNx80xheG5S2aVMyjR0gsq6hVN/PCOqLrhxKnmRfEyn9M2e0y1cXs2eMFxkaGNsce2nJIQdTdB4WHosMeXHRNE1Pj+81BmwBQMZW2iSCtNnl0HOq7EksvVfEFcStnaXcdCrkUbjdPtzBAe9GyG/s36rVUPDhZ6TTHfTjexhql6sTdzx60BxhmiiKW9//l//2pq1XTptZn+MiR77taqy7O1W3YHrMnyJ5Ca455Dw/36h+9u2FKy3D9+lVekgjzliOn927vbF2neyu9fujMco1Yv2NlnUcGm5NdTqTJoE0A/L6ouE0pjsYlV9tbqqYbeUw53Fdxde9Q1fFuVto5G4/H4XyMEkVtrD7ducif8Hrc2+69OptPWS3vay/ZsdJeHHvf+6d/uzD1nBCPeFhVv69hxgkvWWn4kuZtIZeShNZ7Sg4NLD5YLODaZ8zTC31070ac3f2+737alvj0YAbf7olu6La8G5y/c67c64xZdNBq/DddgDYBoGIqblOs68KY7XsDEpLzytadMTDesyqrWICK0bjZ84+6TNdz16qO/+4/omf4lco2G1Z06pyPsDylNdy8oQan8LbliUc6jQ7ab8mRFlws77r3xAnP2dK2uiy6fHJR3JNb0fvaW9e5aWnd0skLOD2Y96y4clXgH//WYm6CyrdgRXcDt8VcE/6KrljbkOqSJZDD+iYAfm9UPW7adbPiUOPRTNMk0+44JwEXwQkKYRefMogp75+y8LrvVpuy6FCjILkkYsXU+Pjpu/efKcyvPSHIEaMRJxMGW5bViOpkaQVPw7rKnlghkpyIZ/cuNC/xq8zV7treOPWiy8zphjNnTjf2nVOJxS0r/5c/r5/HlZByfvDd6sHWx9JfEdebvanT50ihTQD87qh6fdM8j85DfbmCUjFF4TiGoQhGcrtPnR3u8HBN4eNMRfa1G2QiYly4S7O+PSx+79D0XW0sMYF6rWLaZM2RyOyD9pQM9l2xZNUdiFsW0h6ztCbNYXLYYOrWAksOOy3DdelZ3WXW3LhZ+f/yp1u7kFKxhF3wNGaw+pnwn2jBnv6wtafs6wjlMxo30CYAVEzFbWp7qFd/qGwnR4I/X+ODEqyI2TcH2hMmH39ivrhs4OpfT4fVngrnybxO6Xb86V/+VHYqTUZgGBF732dbzNYeoUQmDd7aONKmH02WNj2qvmtLkkV7qqPj+w0uLl2k2zJc/2C1ncxuVsm/f7/WkVcnrhO5zhx61L9K+g88ablOfIXew0o+Ps5bOEGbAFAxVbaJhRH2QXeMpiyI4slftgFBUGHR6qk+TeWNjb26d1fvOdOYOm2SF4qknJsSvS91axFChwwluVkz+6quJHFIiueUdXTaxiAOJpZEXDE6O3lTJSFBnAquTeltiOwYKs8zvm8dS5U6nTfq0/H1Y4kpMb/ozjT3ybMFEoJbOak2oaV2t5OMHN9vDtoEgIqptE0sFpeT5mXpxGG99s5FER7HyzPo9soo/zghWxpna21qxSJ4cU+0o/MvOtijzB53KEsap5ERK6JTxuJxnLxSmEsoP83SzkrIZzEbf3MiPINW3i6wNknjMpuC82PjTOKcODyEvgMnJcLSSkhfRBFBhKm1Z8S4pwPaBICKqbhNTEWYDbnfwEylpzP/R+l/cQoTeu40ThxumG7Bkylv/so9mRSNXHptmhI6MuX127+4yNxg5OJ4gjYBoGKqbtP70QMc5TooBJXjNVv7KgL1nwWn4aPYSvLlLH6LKr4taBMAKvb52vQKetlLmuFvreHFUUlIVADaBICKqUWbaIpFtJHjB/weQJsAUDF1adPvDLQJABWDNo0JtAkAFYM2jQm0CQAVgzaNCbQJABWDNo0JtAkAFYM2jQm0CQAVgzaNCbQJABWDNo0JtAkAFYM2jQm0CQAVgzaNCbQJABWDNo0JtAkAFYM2jQm0CQAVgzaNCbQJABWDNo0JtAkAFYM2jQm0CQAVgzaNCbQJABVj2vQU2jRaTJuuh0CbAFAZGDeNCdOmrdWh0CYAVAWVE0nm6ysSj5lAm0YBLZXU2Axc6Jt7wtYf2gSACqAk7nVicXnY5MpfShGeciL4AASVo646jzqmrLaoqYE2AaACCIGKki61PurLdcJJAkZOH4OHymR867kVp2OOHgwqKgqCNgGgAghCINYLWh5VeGxKkZXmyMUUgasPgiRJ9XpClLjuRwnb4diDoQq36wf9ioKDoU0AqAZGoPY9s3TKK6qnzDW/f26zbXFlXKU6iLMzsS3IsojyrLRTTvnM4iq7/TPn3Zi1ULti79Xqo7P9a4qCHRyCemwj+NAmAMYdj4eJxajl5VlG2ompMU0lJWFqoqSpPLLr0NXogLAmtXlOTemtremt1Vo3zc8F1dTQZerpCbY1SeOq4LzmAAAWD8EpEhVEJAVnnX/me/fu3WPqYNnjPWfiv/k2X+/642XKSZ8V/XPxnTV/1fHzmxwzHWr8rR16HOhRU1RNpZSr/DkCAMYfguKUWE5xYytNPZWSPq9iu+BLD0Lj1y63tetWTvrcPD3DbW39a6zpZbkeRpBDUZKlkAWjJgBUj8tJybAN7nEI/uz8TTOvJw93uN3pMa1RTlIrDj1+nnFpIh6ECYAJgCAIi8sWCYQCgUD4eXFxr+NrA/I9ztnjbOUk9UH/eAQcEZ9H/8CUPzkAgKrRfVIHZKnwoWZD2PTLvBxCOUn9KH9kAICvB1UnnaRLt8mVW4orJwEAwGcHbQIAqCNoEwBAHUGbAADqCNoEAFBH0CYAgDqCNgEA1BG0CQCgjqBNAAB1BG0CAKgjaBMAQB1BmwAA6gjaBABQR9AmAIA6gjYBANQRtAkA8FsQFMOYM7NRFEnS/7yb4ioCxzFs3A6eDW0CALwfgqIsPsc+JSLOpPs3FZvEeaXYc/gsdJzqBG0CALwPJka9MvcvWDR9qrvbg7zk35L3wE136nSbjfcLrOh7Ke//KaBNAIB3wwjMfuXk3uj4BB3Dp753lu/fv/x99u9fNf/Yxem3qgsvVB+NEtL3VM5j7KBNAIB3QVAKD99YHd10c1caKRZTxIdQYjEZO682/4LPMg2CGuNx/l+eH+AdbYKTBwAAEBzjeF6KuRpyow0lCKYJCEaJZW8SE5gyGPR/EIJALVcHXq1+piHCxzTY4fFQUi5Gebw328Sjly/lFMKlrwAAfM0QMVH5RLMzYIa1TI7SaUApkhvhWeTnV/SSX3CwbWUam8kSipMkXTBUIg4yKow0eGhJkaMf4+BoStGuTRbdfJJ4o00IRQn9d+12DZdin760CAD4HUMllO3WkMK+ZSYSOUIPWrimT1wOe/fn3btX9kKeT7+m7+0ILkXhLKtwv2IRhktkptdDCvt9TcX0vUYJIfE2xxnx0WcvcykUfaVNBP2VdKf31ebJzmkUBct1AHzN6Db572mJLHtsIpdhKMr2u5ja6GF+Zf+NV1eIrzn5xEJDiMm41qv1ywxyrSRiudjUrC8y8XrSGNrEQlGcM6fsu21659roJbuXbSLlROVxre/3TlnJp5+K8sYAgK8S06al1ZF51+g24Tjb5Lx+wszgX379sfQNEhkZa7EnLz9k0cE4Po7TbfLtj/S5O6Y2sRBZadpuzUf7kncKSHGOsk28HDHZdifmh86ZWewcUnlLAMBX6rU2Eezi8x79hivxutfX9qAYgZg8qW0tv2UezpLLMR7r09rEQlCc5WD06IjWqQzZPwUjbUL/iSXdCfmu82L2OG51DgD4nXpHm6aPtAnBRhqBYDjOcZh1qzy1drcXJRGjPHraJ7aJxSIPsAqWDJyOMbf/h2i3Jt2my9jPGXMbTvcesyVycPiYDoCv3XvahGPcNk/rJC8RRuJo20EXn/yypVEcsVw8MqT59DbRIycyYlbj1ZA1cWm79BrCFm+WJl1vupqYK1U+BADgq/bm+qaHRn1Mm8Ryzsq59xKnXukWmt7QS2+csr8Yk+fg2fNOXa7k0Mt4n9wmFgurI7pX3dtesWfzCv389MWOWTM6293Pe8kksBYcgK8QwhxvgDnigBJ1QO65NeHtcROK8OxW3OwLDEkM6U3e4JhGkhReh7rWli0+aMcnlOvC+3016nII5ZxGjaBKMQu9gVT3qgfVIeur3H3yFoST8jHPbjwxPyJsvPZmBgB8CNMlhCsSCKX29mkjpCxR1OTAwrfXNyE4JeY7HNMK1JlVxJNROD3QKUV36YcYrch43qbChD3BfN7zOY2evYid5j8r5j/+596Awh/+95905rWJRALldZ+VvVQo4LC5LBTHYBAHgKohKE4hVj25C256GGiuveWmpeCmc8unYrDd+3GGXE68ti6cXt7DUb40TcrHcMU7lG6T49T+6ZsqmTbJNGb1t3dV9B3WUc5obHTO3CvZ/l//13/7b//fH7tStdceVk7+vG7pnK2aanRz7urLJiL4zBAAFUMwnGN6yqOks9FNz2jR5KXXjx27Szt2ycw4OXLY+xrdJnrc1L3To88w88U2BHTPcHrxbuQLrBSb7dFXOzJukmUv6x8OKLOZdUkxmzE7tuzaXePDPv1rF5pdM1NO+7yO3d04d6GR+7rAyEddrS4r2XIc4gSA6hCkNGpjdXTj5JVWXIzFY/ayVXh9XTi/8qF+oEdB6a8H6iRvqKs78KtstmbL9BMR3Ofrmz5pXfirXjwd9cDjcRGc479GqzP01nJTNgkHbwFARVAU48zWKyycstNSLMHRV+ClYttX9lnhBy9pDVyyImu24643OM52dMydGeNjlkHgCEq3SbHPiqm8jr7XJ0Ho/zMrnhUX1AdG1OEay2+FNi904MEeNACoBkJgsZufNkUabMbIN1afoHIq/Fh/ZL+ZSR09AsLFvKQrhj7N8Q0Vb2loGCpZ57K7mCXGWIhEbroxITJvVvb4jJvUEYJilPRJ37ampUH21Js/NgDAeEDFePEN3ebArSalb6YEIYmIc4YVQ4bWcsVVCEEh0ohijWyNN2Rnd8fFcnHmAzt6hnXiII/I/EW7rIgxHCPl9wLNkQTXdlzQml8k4HGV0wAA4wiVENZ7quPLzCslsjfbhGN8kzUthwJPWmJiUrHoQg8YRrbyedPzz6wwksTiHqcf8rkSx8e+4DXFqEQcvjQwNNV4RXixnT0Lhk4AjDe6TUVPeyPvzY97q00sBKGwmqMxgyWLHe1JSU5OjvLAA++TcyBHTsaeM8wfbLmehI31mLy/C6iE9Lwe0plqvKmmpibDnsuCOAEwvpg2zQ18d5voYRCBpFxeVDI45KNjtOP6tdVr1qx+nzVrnl3buGGaTmJ8V/qGlWnIOJzLQI0xbdqYQLdpnq2tX01xChe2xARgfP12m1g8XE7a99yYrOe2rqzs3oPfxBwOc90tg6fH/aRi5mApX7JX29QT5B/BhjYBML4+0Ca6Tgghk5OIKNay2NO/psb/feirPIst09gIKZcRyJd+JJPX2hRVYwltAmCcfbBNDGYVOEGRpPi3kSRF4NhXseYF2gSAin1Um8CboE0AqBi0aUygTQCoGLRpTKBNAKgYtGlMoE0AqNgntAlBcYJiEASBY+g7N7VEMPwTV4+/8ij4+x7lYzDzIZhnQv/3xbFdxgzaBICKjblNCMLlpLVF2MXZWXpZpdhzeCgdjzfe8/RthE5eVvbsMW82jbC4HHsryzjFo8RKRfSjUMT7M4BRJPHO7jDzifXySuOjLI5TWxr7U7dxgDYBoGJjbRNCEBG7bybmBzSUpCbm3dK38c3N1EhjKY9UOzInhBJH3NDz1lvjico+7q375jNASSTjoU1fQ0dDWGvigzNTXcyeOBcL0PeMxBCefZxJG+cd3UEpzPLEjjLtZSalrIMGyTcPxrE/7dgm0CYAVGyMbUIQiuq+5nPodMADj1qDKWfu9RY+upA6Y1I3nznYEk6RFEWK5XVypzlHF989UYlJxNTI0Xvpu2KKoQ+PvkCJ5RKJREYyV/Ho6aSYvp9Y/HLsg8mRGt/+q0fCzhoaGVSdKUsv7IpOXbypko8q6vTaHBBcwn94q3dGVqxifxkUJ2XMdXIx/WAogXpl3nE5uqKtTpTrHR14PSqNXrIjFHeWyOl7j+JbV4A2AaBin9Kmx31XL+hZYKV0CbhOQXfORG6v8HgYIZPF1mQ6dNsVh1sneQkEaU6xAj6nrTJCyKXvRt+VK0prcxIgOI6x20yDVt52ts6QsuiveMJKh9s9JhHd/p5x9tyRWmAyJPvkg6sBR+0OiOl789o2z1rfeTrAyJEtIRCMnkNEeNRti801cUKUojDc8nFqe/KzGnuEOduwNKOmIOuyRYGnFY8JGY9+2DYpj7I/7l0f4tsjFYt5TtnBzlkWmcHFoz+QALQJABUbe5uIYvO+Q+1TbhM/4szZo+SUp2/1vmg9C1ISNHOgwXtdQnO+5pOay9dnPJ2X4Tn/7OGlrm0EieMc21xj3ckWbMIr665OU/ve00fqE4wnaaAyadT1/guRyVrVrTpmBfYUxTwMKka6798aDNhj+YscoR+FquP2LG083bCkiI+RLJN5F9cNPDry7ZHC5IsHK9kRsycHbttX7zPVbKUTJ3vnhnWNFYUdw6GBhk9MOTLCqWD+DONcS7nwRl9on7ltbETWsaqWyPZtg+3x/cZPPDmj2zcZ2gSAin1ymyzwHOZdTS9Hebm6lEcn709Bo2qv/u8/hHpPnXzK09+s9fTQEofwWSU/tdcGkXXyUqflyd8fOnvCbqVx/vbC9Tvu3r3oPrBtaOqctrSCp6lH/nKo6fDk5VnMSUyYh3nepqN2P8qYr+nhUFqmcUNX2cluTtscg8LTDWeX3PXdoD3Unl+7wt/iYu/2fdGBa/dYVO6aUn+h76b57hWrF/bF9240+UVSvN8tOmBhUqnoSl9n3ny/HrPAvfVliy8dX3X0TMc3AUtsMXw0a6CgTQCo2Li1CUetMve0Xkg0j+MWGD36S/lRW9mPOaWVvql7Kzb0pNlubezq29+G4fzM2vhC3UmerkbR37YezUwRCIX+l7z3Xj1zwqroacnVisVZseK6F4d+erNNKIZwii7mbwsxL/baee/7Q8nX/GOl7JSVR1P3dSxM2oIc9wnVOhWH5vBdlxjeseWwkLQgc+3oyJs1pTKTK2dCBzYo2hSpvdw682n+d5G6vgfDKzOKnixYcL6bTY/LFI/5UaBNAKjYJ7XJ+1CXuyOiOCsUQuJxD6d2dK07LyKcPUI7p5yPkMnE8oxZ1dsGFhVQddbGQxe0jsfFOts0tGvtNCky8znyp/rGBJ/+fu+E8gvfPnJ3tPJ7mr/NZ5UXcxLPkQd5u030gpzlvKrQYfcVEUl3m//4bWSMT19/f39v87Zv4jf4y9lXEofzVoeLJGSsw85lO4zOuuW1dv7pPy/MjMIpk+NrO5g2cW74RLqdynCy3W8UMjQcOpSeXDV51Uo73m9smfAO0CYAVOwT1oWb3Mm7+ujMQW4djmEEWYf37MjfN+BSlFPnrB8aP21TBCkWyyof+3Q1G28W/1O6ySMg+vCTy0fTL/Q91mAn3W05FN2vP91wei1txo5rWV4pm5fQbVruhb5yQu8XbbLcImcOhiDZwrtcG/pDzCUvucnShm/qk/VvLp5uZFRrOMPmWqZ0C++J94Vq32ABlbJiWmN8zHqjyQuuH10bX+iRiVEZuWeZNtUJlvsUah0vZhMsp6TbD1ffXXgmtb4r1WZXBBcfxRonaBMAKvYpbXpWdmhQ00L2DzEi8PLftCf50fbEZUWcA7JMvfpIj92KNsWZ90U3GzvjBwiO39OS9qbe4a68NdlsMc9Rt33w1pXKup9/lKScezpl+nLT2KDJzdv6rjjhb7bJ7dHQxrRffyZZAq+aTZN7jxzqm+VP/SrY33coVG8OZ8uPW0iT8wvPzjgf+3dqjnZ96wIHof1sg86OaSv5Ob/+GLd//aNhvdsoaffEnW6TpyxtTWLhrVPFGfM26O+ZnXLg13/wg3bkXy1ZstKepD7+BwBtAkDFPqVN5n1HvrmQcHbKGa3klvzhwSFt380pOCXHb2teiDSa56UYN12qvho/MxMtFdfxoi6mf/t//0vDUU9CLBM77bpZfig6sXbHhtq84e86NR9GpBW4xJ9O3s2VvLJhJd0mjf2H27+LXK+veWa9d8tA+2CFzrWeNBQXs+JWGBR+H6l9c8kOg8D2vQ1G8+z/IS4wzu9qeWpRGXS0aVvTTPM1ZjO9I7/9j28i3ddsLlilUx+wMJyyXNZa73Y+wvK8Ttf3HYlTj25cohl2qFBvkyUXH8V5MKFNAKjYGNvEYmGYfdHxJe79rekx1XnuMzaenNdjJ0IxFKXQcPMZk1docJjj0Vkd3GP49Hw3IsYwRNR9yvCw4f1wEYkjLIRrmXXsTEn9hfqOGHczizgWJSqet2SarzX+6ibkCI7Y+z/Zcau6tZF+lLMztq4652fHQZmlLxTnZpw4um5gePhCfLXHnUw7EUJh0prVuj5rrwW3mczZ8aBxoCSs1X3BmmVGPtVGuQWX5y9elGtHSc/ZTL1Uw2YJTDctOJs6VBhf2NB/87i/dHRxgTYBoGJjbhONx06z687Ozi6utBIglEw8sjk3whI5RVgJmLO2MfvTWbWlCPnMRpcIhnIiKp34Ix+HIRiOirySejYXBJta8QjmrlyOU4ST6M1PyxAexymuWIN5lDYhixIrH4W+gk6UyNI/aHNBUXcsPehhhlsoyonzDDdJ4WOIvYmfs3OUv6UI5VqZ1ph6CYWxbV5pXJQltYxLoZ8ETmEcL1O/AvruxWm8V5YjPwq0CQAV+5Q2MWunRw4R8PoBApgttl8G5MVl+sFeOwQAghIUvdxHUsppitu+nMtzzAEE3vUoNMVuLsw+Li/nSs9TMb+Rq5h5oyj9JAmMebIj/cIVhyNQ3Jt5fPpG73jUD4A2AaBin9Kmrxi0CQAV+6xtQuhBDbPJwFsP/Hyo9Ap6bKS8UjGSevnVZwFtAkDFPlubFIFBeFw+l/fGMU8QlJdWaZqUXVxpZ2cZEWFJo/+JiBU9P4QKT+DklfKuQ6FMHGgTACr2udqEYtyUcMcbZguWblx9zj+F/8rObFSd/c6zARfq60OHLwx3FkYODeTnV3Q0LsrkiekhFn1Dy+O3WqedcOJ+2iGYPgm0CQAV+zxtwjBO9/lp+Y+Gy3tjhtq7evdY4/IXb26MEoU/nLVn7sXFZxqvfvOo1712ukfVWcNV2VQdKZbJSZbdJhePY5tTuLjihHgERU+UiZUruCcItAkAFfssbULEpMalhB9Oe6+uFBUtaPrjvrVZeOmbb26c4ITf6e9qnaXBRzCuwMs/M0qjLc7TMyOWzbGysxIhLKmdiWWaNDYuKTjIz7SNjY9ul7hPAm0CQMU+T5sowuvczIrB6rm55lUVhzrd75sQrz86gjAbQAkt9DvDlvqLyFJW9hX3gI7EM96tDy6esL281GPpSg7f2WWdzgwbD63AisiGVN1lty35I0dWmQDQJgBU7PMs01Filsn9W4f+53/9MJi//umuNtmBUjn+xsOjGCrInNrZPNdPSJRyax6va//bD5HeM+fPicpamr6td1mxMEv30B//+k1X9bSNvsZl8YOpe/xx8QR9D9AmAFTsM7SJ2RHF9viMxKEL3//1h4BaV+4WXviueQVxgtePjMu0aeXUzvI91gKKbtOlvm0XzpyqxH+UCR2WNg62zCqmy3X1X06HXA/iHPiRb323tb1/eRy9+Ke8u2pBmwBQsc/QJkyOOht2/jW0av6amWGn29fdPf/sbEe8xwmv14+h9LJNHEWbErc378lGCRIXWF+P6WLalKV5+j8rFmiISQzDuZn6oUM3Z0cg1IREAtoEgIp9jjaVInPu7ds25SDngP1Dg6HvTw8O7z1d/dgEeX2nNuUy3attWpqNMrvB2fqmdrXQy3SXz37/h9Y7sVvkdJvYWVPqG4wveyETs0Ic2gSAin2ONtUhWVXtRxJnFf/4z9K0h2u3/9t/HkndU0Pl4K9tTolhiDRLv7P8aNHIMl3I9vytJjjdJpHnst6uwGXFgtv6e//rgt48J/Hft8RuMggd1D6fwmz+NBGgTQCo2OdY30ShXrNtwr4fTDRYtGORTsUP//WXH0Ld7vgLWK+9wXGCn5Fbtq1kWTGPquMWLev9Pv9aWimJo5zwY42HYo5pCJ2NLvzlr98PaS9asEEr/mrklFOWYvEEJQLaBICKfYY20XVCeV6Zl6oC4zsLBxLcl9x5PLWkWW9nMZd6dUU2ivLSorZqbljJJ3GKZ5m10cBlNl/CHCHF6aDx2YuZXNbK2qH2odTEwObO0PJ1k1dkC1hv75mnItAmAFTss7RJsTMdz8k0OCrIWsOLgyFWNVE1dkLea+ubmI2c2FaVERzFaiguJ8XSS8pj4oMgAkuTNl4OunJmeceDSw7FRZkFNXFS5D1nIlcJaBMAKvZ52kSj86Q8ehOGoszeJ+8qC4K9OOAAguEvjj3A7CZM1KErZzRH562K/eWATMwcoEl55YSANgGgYp+tTZ8KkyN+x7QS9E9ZyUZxDoLxAm0CQMXGp03MQSUJgsDpf145zOVHGTmsJT3sYcZIoxn8ICxOil1GhL3yIL+vUxzhSYXJgjYBoGLj0Ca6LhhLlOZVbFtknVTpxGFhH58nBGWxpVYRll5pbL4wJVbAH81RmejFvDeOMUcniakcwhLZp6SNbmajA20CQMU+uU0IhvHbopYvTm7uHK6/UB8faDC/oI31kYelRHCW550zzYWF1UuD/ZYmrntsLcWIMQ93mJGUl5WUjcr5uzwS3ddYS0dzOsxRgTYBoGKf2CYEZ867dDjyUGev2/TJC/YYrw1sPz2k90SDTdBZQDDm2EpyGalMFUrQC28oqjirAD20QnBUGH4tcbDBwHf/yko/M83aXFMhTtJLeMxJBkjmpsxCIk4xx2eiFKvMZfRF6uXqcYI5oBP9AMwkHlaKZRqXTTlZw89hrbxY5fLQlMO06V1PAkVePImxgTYBoGKf1iaUJere79Z+JMbmhCWbObAJj118ZW3n9oRZJiSJUxibOctSlLVJ2shZngRtlrF8DEfYAgEbpRMkxuw2TYscLDvppxEhYjtlVKbwWQI7T/+kSsuMpKQ4e7bI3ilNII2z9bM2jRBhiLDSNtjBNk6IMGFDcZQfm+HfU+Ac5R8n5dGtkXPOr6tvcnFsw3FRSgQ9gOLR+VM+iaAa+kngOIrwhF6W9CWMpXgSzCKg8nsZFWgTACr2SW1CxfzNS0q+7/DYlYIw73sEQQkk1n/e6uW3U8Qk3+TcgsMl9Ve3FYYY787gERK04OLZGfNP7ffdUVu7YdY8T2Ed4eDS/N2fv41udD+Z5Llab9r+bpHp/DMJPg/WBYaVbbxctGuZYe0O43uRj0LTz2y9smaRz9Bw11DZkjmViBhH7YNXT89LH+q4ENq8bsFKqYRb9Fi743RXo9bF2ZV+j28e3Z3EoZ9E8bkFZxpD6SeRaLO7mItSnKwN7otXnzp512W64Y5L88Ltx7SXC7QJABX7lDYhmNj+yb3T+5L3W5W+PHASgmKKTZEsn+hGDpa7Lbp7VLc8emDqw5R/kLu0vv/b3qvbI3uTvcu3t687mcG2XGEQuTd+7cbcnowT7u2FhpmxtkvLv/nroea8qZdcg123eh/6t/95JEbTxihx2x9/On0hdYrNYq3CI01bNUiWxg2djvqyo6uO73ymGdmpOccpLWppQvu+7QGBBjv9d97bXmGTlSaOPa8Z2RV2eOHduWvzo/Nr56WUiiatO/3T6SPbI1O9+/O3R69fbStFRnGycSVoEwAq9gltokdJpNPykH2DmivS6sTKiUyxcIKUiRyO9Q3n37SwJ34UR2yaWjh8dheCXj777f/+LvBiVhuJbzaM3943X4NlOb+6XmuFPS7j7tKJjpzhHOt/NODfr+ru4pB1dYIe3/5Df2ivOoj8ytqt9d0fBi4WsUhKY2vYoPeabvuk3Llzr9giYn6Kw9HGwd6lmzl/J89phbbuKeD/wj/us31gSZSV/6z++hLjrFj8R7nXCv3ISAMLHmfOrR/+x76EPRZtBGvltM6rPmb+yOiPSAdtAkDFPm3cJOdMevDdn0OetZU+bxPC4rE5Aj6Vcn9dYepkZ24phWJiluvZjtZj2dLLa//6/4Ze1JDU1cmzfQP3NmwoQiwft9SvP++ESijnKcOFM5hx08BP9S6mOXUkKey5G7i92cU5VvwL38KmYm/Ice4vkgPcUyHbY7b2CCj74FPXbWqrDnuXdH27LWRPJt2mE2ciUy/eFv7Iz+17lH+xx+R+cnv65Ey2hKKHctIVbp3Vvv6VD7X+9N8HtnbLJaWl3Qsat6df7EHEo14nDm0CQMU+cZmO7ezS/MOFqnOxOMl89o8QEjz7xmK9pZkaN7wjtU+aInICxSjOucOd1Y/jBLMPf/NfJcvicuQyMsm3evvLNlkhpQesPYYLZyra9LdOl6Q6CUW36XrMtpD9TjhZKrrt0ry3ZT/nR3kO/3jI9ta7/mnZJ88MdKS7TV10bJlRUyjTpp/J29ObYmbOi/2R+yR5sHxyVNL81sHk+TV8ksBwLGXnus7+O9kZp9bt+yHxcTElrpNkb415BG0CQC190rpwBGNJrc0Sj3zfMvlyLHlgS45MYHvj7PAPnbVZGbsMIgvX5jrl/PgLqbFKq71zWoGcOKH1w9+q70SU0m0KP9pIj37CWXHXlG3KKZpWP9Kmip9CFW2ihA53U7clrGrDKQnf4Xrv9t5VTJtEV6q3917SiFvd+n3JEmfk118l3XdTB5smO/N+lQXv6SvXuW//K7YzeTB/ck/cprP1hbpPUpgnkb1G+8LQ4h40Lbfs+9N5qzPoNsnDJzdf7V3qB20CQP18UpvoOlFYxEHj8u++DcirurnQ2Eg7/+qRZo9TxQjPymJh+d7C9cZH5xpVtz9qnXyb83dqTtmf/9y3yqtOLpFZL+78vvpaNi/DLH0w71QbPW7y03sUPe12iv/Rij/HLzEtpdskKFrWe6jE15TPHL/JrPf7sDucX2SE5aywI73Xur0eurUPJ1+8v9NXv3Vw375HrdPudwsyct0j49fubIt90rc3wOZ2iv3KReXbA27ZzKWfRNejwLmZQon0fv8P+8pOZpBiOdUzffi7wOvW0CYA1M8ntolZIc5y8rtiXNbQvv1qV32J9oYrm+34OIERSETW3bWNhR2hAQlTnxU40Yt7SKZN2ZllQVKSIqnuNR5V1y3aMIGri+6CYC4hk2ebuXvc6ObEzTtquPRcG0lhGM/p8qI+3VMRLJzk2WWZLV5wmy0hiJRJHofnZsZypcGPdVPLw5rDQtznzl9wJr3l5qYILPaccV/C9BXdUVunGJ8K58hwy8sbz9BPonMowePO5jYeRrJdbybrLNucghMkYXpHX3fBrjjWm6d4+TBoEwAq9qltoqE4iQsqiwpW3s6MsrUU4dTIIbsRHOd6hResXOnQHavY6hFh2WeYmqSIeAhN5FQZ5yTgoqjA0sSLfmejCCeiOC6Ny+JLndpShFzlgZoqw7NT6MsIiyeyT4nl0HdFWWkZ3W0iFkoQbLuiTFdXZ1svPsoxCXYwbRMRFN/LM9g/TsBpq4ywZ/MQ+lZ8L1vlk2D280NZ9iZJzJNgZi9yyqiknwRr9N84tAkAFRuHNtEUe48wmH1SXswGoatFTyNf7GSi2Gdl5Gr6HvRNmQs4MTJsYS7Q92UOafBiHihBj58Ul0YmKy5ixMgMnz8o/RVKXyQVs2aOCkVhzMENlMchoC9SyicxMlP6SVDKB2CexPPJowNtAkDFxqdNXx1oEwAqBm0aE2gTACoGbRoTaBMAKgZtGhNoEwAqBm0aE2gTACoGbRoTaBMAKgZtGhNoEwAqBm0aE2gTACrGtOkptGm0mDZdD4E2AaAyTJuOBkaWQZtGhWnT1upQaBMAqoLKCdM7WhUhd4uhTaOAlkqsF1Vc8N5zwtYf2gSACiAk1uZoXF6+JOOXUkR155r8wiConOV461Gh3snbNdZB0CYAxh+Co+xs895tIavsUJKCkdNHQeUyTs+SodOpC3b1FBVBmwBQBQShUFvf/vaAKTstCUmdjCJwNUJQNHV6RgRFSg7IpJlz+yPz3Zc5FhUFB0ObAFANDMc4tierGgMa3RZdfzbJNTg8W8NUHWhoJPW4njtnEWyqka2c9Flla2Tb9sx+Yr6nti9y72Df9SzbGr9gB4eeHlsvPrQJgPHHQ0kSsyo4udC9rDq1sby5Qk0MNDfUX/1u3/bQiuYB5aTPbSC/qbW3t9rbfcdJRwdra0WZgm0z0rhjOgoUAOBDEIyiMJGTiWfQwfvPzOfPv6MOTt5YVjXw7enG6eY31ignfV7z7zw7eePUpE0nLm8OrqkpcuhxcHAICvKPE8KHCACoDsIcPFJGcWMrTcNtw9WBRmXPrHuhkWdW+VdmKyd9dra2/jU11kX0slwPI8jBOttLwIJREwCqx2PHxnn6BQf7fXa22c538+oLbz1zyPZXTlIrwcFFSZb27DEcbhwAMHrMiQO4fBFHJBJxPi8WZZV7NiB/2kEhxVVOUh/0j0fE5nN5zM8LADAxmBOhqAGyVPhQtyFs+mVeDqGcpHaUPzEAwFeEqpNOYtrkyi3FlZMAAOCzgzYBANQRtAkAoI6gTQAAdQRtAgCoI2gTAEAdQZsAAOoI2gQAUEfQJgCAOoI2AQDUEbQJAKCOoE0AAHUEbQIAqCNoEwBAHUGbAADqCNoEAFBH0CYAgDqCNgEA1BG0CQCgjqBNAAB1BG0CAKgjaBMAQB1BmwAA6gjaBABQR9AmAIA6gjYBANQRtAkAoI6gTQAAdQRtAgCoI2gTAEAdQZsAAOoI2gQAUEfQJgCAOoI2AQDUEbQJAKCOoE0AAHUEbQIAqCNoEwDgNyEohhMUKf4QkiJwDEWU9/pk0CYAwHvxEEImw7nSCI2aqMyVv8U5qKbbS8qlb04gPOW9Pwm0CQDwHjxcQng53jUoq26pDunv8/buex/6qv6QlpaEBx7LsqxICTYOdYI2AQDeCcEpXuXOqvj2Vs2F11cf3z1vzpx570Nf9fD4s4027o1dDVM32fGoT88JtAkA8C4ISnALFg90JW4N4kskpaWlda9762v6FnKR89yWrrANwTwcGeOKJ+T5Hd9qE33NuK3MAgD8XiEEJrS+Hna1/1QsQVJvRgHBCILA3pyKUiRhtbz6UMwsWwGOjykkCIbjI/N9s00oRiivAQB8xVAZZXLlTGG+i61E/kYREJKKmLPA+PqJNpJ84ypUIvO7WRGvmRtHikfdEYRAU4KfmM2/nCKmY/hamxCSsDt36dJuf+kYmwcA+EKgEsp2QUKh96UMiey1GiAoSghO6B7539sNsvgUiionj0DksuxjiYX9x5LEbxbtwxAKTyvY0fGDz3l7DMPIl20iMBSNeNb0zcDRHilFQJsA+JrRbfLf0xJZ9thE/nqbMDlmaz7VTWu91i2jk9m47LU4IXKxqVlfZOL1sbSJhSBizHnKtkNu9yspmfhlm0g56vnYZ1/9In+KGr8NqAAAv0dMm5ZWR+ZdG2kTs/0lQVGkTCIXW85KLVnizwm2KQ9Z7SSTy2UkRRHMdpcjbfLtj/S5O6Y20Ytu8jTHmZ3fJ963p2Q5yjbxcsSU5ayS75ovFogklPKWAICv1GttQnhsYayVpUm2Z5JGz/6ZZevnZmK/8i673Htgc9wvO8lTIyPCKlbI5iHop7WJXmDE0Rqbjr395kmyXzkjbcJ+xYK3pp/Ov25C4DBqAuBr90qb5KTY6eBkd7fDOtr9MSX5AU0GOyt5GIVxi6/olseXl6T2uekcdnM/6pomJj+xTSwWIeNbmwXuDVuW8rNot2ZDmGEW9kvxjsjtD05mI3JMeSMAwFfr1TaJZW079ZojEyfvqhTRIxcEQRXjl5H/ICineM7C6sLyaZti5eJPbhM9chJb3WnZ3rjRNM3VYCjMpse+xybg0b1JAtk47qwHAPi9enWZDmXhpPT2XO+mB1sLhKSceLENJIJSEipt5dF7MevvFghIjPWpy3QMVIzabaoabphs8VC/PH3xQcfpkRU2WU7Em9srAAC+CghGUBRFPj/egPznnOzrIS/WhSO4BNe4oR/oYzynko0934kEx9jFD2cmJtTujCMlzETluvC+ZRk//iJTzmn05L/Ig43Ty/vLvH18+pP7Qs6uivjxx7HPbvyQirX+MH4DYMKglIzix3rFmWR72vr729LCi7M3zWzsSFa2iYbVSdp2eiRoz+oWy5jFOhRB5GT49QeJM1ek1MlHNiVQbEPQ35G66JxGcTgzm7HwtzVNKjr4tPWb/9zXPvjDf24/e7/I0zN85Gl9RvTjJ2lURljZcymZmHh9uy4AgAoguJxyWnlp2nrvsnv3HjxYN0JrfcLQo2jvxxnP24SIKbvdG85Ov1EpryMpHMVwslTWfdLI/eIcL0q5wIXIZRqz+tsHhxK1tZTzGYsHD9zOrE/t+u//+q//+n/81BGifVjrxdP6nB7cS+736dM2WLrTL4WFwQ40AKgWLpZaHF0Xk97vPuPp9WWP76xe/Yy2+sbJp+sD6vNeaZOc8t96a8ozT0SelrlmieGSNQVCOavmseZZsyR6JKW8jSx7WX99g9bR5fuZuXyCNTeWX5prs3DP4/3719xRTvusVj+bf2njkptT3dJDu8IMT6SRGOx7DIDqiOWCzMlhh0qOFqSgdQd+zClVOvDrzxm+ifHP1zfR0FJZlH5F/8VrR6eu78/TOqyV3Kc9benjHT5hhkV1dS+X6Xz7472vWf791xezGpu6utIDW375ZUsOc0ldHDhwQM7PmDdtqL3/kj8PtgQFQEUQDEVSJmlHB8zIEuTkvLYXLSqhal7dZwVBUJKz2/unvwT4HDa8Oyk4zqnS4fzGWreEjj9+o+3Iko2sH36xz4rn2D+nU28IStRREfOMKiqMsqTKjSkAAOMMIXEni4X58UYOlPiNBRRUTiXNKotPuN6tPA4BiqDSqEuLjp4PtuPLSiUUQUrqxKLKoONLbj4uYiuXb1CJzHNPYPz6+d2kcrT1BUIxOW9T8pGGHc72JAnrxAFQAVRGaKzRGai+W5nz5jAHIQkn10UDnQZBpPzF4IAtFKDyOvLFWmAEE9fJWFIpWxk2BJXjt3VDy5fcTqHeOubTlwOtkzkYRg7fO+ZsxebS37VyMgBgvKASwnpPdWSZedwbB0Kh33A4xrO80v+o17yYR5GYYpMBFCOYXdpeh+IUQY+amI0KMJLim5o1Prq304uHfcH7l6ASseeCltDUxbv9TYtjubBcB8B4o9tU9LQ38t78t9vEjJxIk/llwwGax03YHzU2QHgijf1nIuu1T8aJv+i1xKiE9Lwe0plqvKmmxtokls2DD+wAGF9Mm+YGvqdNLBTD2NZm3qH15YmHPWyO3jXzPfY+Zr7Xjy6aeishf7jzwbVwPoZ/0athmDZtTKDbNM/WNrimO4UPIycAxtdvt4m+nkJi/c+t2brj5lTNw1ra2lrvo63tpqPrcXPHxlUnwu0x6gtfQfxqm3qC/C3ZzKGrAADj50NtYtZu02MCLpsjlKalxf6WtDSpkMPmspgVU8r7frFea1NUDbQJgPH24TbRdaLzhNHwD2FuxKwxV97vCwZtAkDFPqZN4C3QJgBUDNo0JtAmAFQM2jQm0CYAVAzaNCbQJgBUDNo0JtAmAFQM2jQm0CYAVAzaNCbQJgBUbLRtQjCcePV9SH+Nf/L5LJmZjqDo/+OqPFMAio/L7KFNAKjYqNqEICyhZXhPcLEUUby/ERZXYGWSXWz1/AgpY4NwY7uDCzYH+fn5OQQX+Xe3CVjoew7FjaAYPpajdDN3Yw6jwI2tzGgT8nnKyWMGbQJAxUbTJgSleEV3ywa8r4fjJB0n+mtRj69b75nVGYTyjHXvatSrk96+HiPY2edt8sqb01tTU1tj6P9Vr1+ca8p+ZfPy5xcQhMdp6/Y0sR8po8LbM3zHFDpJJtkZThyETDnvsX7x+SQR8a7jt7x1x/eDNgGgYqNrE8nP0t/2Xx0u/orj7SKYmH3bOOCvocbBCMEcvEnpxf50yn1dmEkjxaBHLvTIR/G14gb0FEqe8uRM9JESw1U7ryxfvv/ksg1aDV0B7jeKcTEz0FHcm8bcAac4tsur7tlsxkvptLxxJTOvFxNezp+BSwRzau957LdlHWib1Xg18HqQSE4pbvTiWbz5RD8E2gSAio2yTdyVhpHfx2zNlisOkkm3ys+sbzBgZiYHQ9hW2Q4WjidmZxZl2POYtziK8O0ra5xn77pc4OklYqE4K8Vz88ooW9PwYGuTNP7IAAehJG1rvLd3eFjgW8TMPnkUYrpa++qhM5epHBwRWWX3WDjumn3bL47DLJZ5ObqUDyafisV5CIKwU7odLHbtsgjuTmEzzaMnFBdlujo6WvRkW4leGW3hlJ15y6MSm4NWpNf8wPbUhcctojYXWBeniHiKWyHPn2hWlGmbaOReHwBtAkDFRrlMx99sk/8o8LqGsk0U3//O+uGA6bcFaVGXNEMa88NKSprL1+1xteSSOKd7xY57Jc0DFQENLVXmUWkSvOiYW3V1dWBTzGFfZyue4ghP9Lipbfn6zvLFzviPijbJiOLVD/YeWpsl/0W6+ZqeT2NMYGDjQKrHfQ0RJ2m/fvnpH7aV6M0Pio21PunhE9ZQMdQwELL4oQmfxQm/Mr2/saSkKSy/udrwoQmbjiPzAIQ45eDN9MF92+NbZs6xvtF3+nTHQFNranprX9WylVYIiqPC7Ek2eSXNzRUBFQn686NS0A+f2gnaBICKjXbcVOBSfih9j+nLNs1fN1xh7GqdOyXgUdjUWedn7z6aHFqvdaOtlH1ienNX8625J09u9EiNDtDcaSUKWtjwzbfR1XpLd/q10UMdxTwpudUN7foOrUu3gzevvJ11bv/cWwHbOg/vNxGjl/Ui492vnSiynbPBZyhkoz/Xap5N9fbvon2W7A5yfrY2IDp12rGTqy9qNV8IW5Rpd3tx87ZIt41PDh40PxM5fO9SMIdUrFTCKfvNd++Fft9V8uCpRfj9vr/9Z3vyxdxN95/mdQSsvWHKwWM3GTQMlp+hn+iCqvT2BoMVEdwPnhUT2gSAio22TVFLwr6vcKkhZfR7kf6a7bAxYdvAks22N84URie47Hf0q7G48XTGxsteXuemxj9K3TGpJ8nTNso8r71D/1ycw5LIv1zwuCxlVjspH4xuk9Nxrfbv9nbm00Oe9Mbmju1//e9HtO/H8ZCUXRs09zg7OVkWX96avP2Re5bsF+ntp+nD6zfhv1T6tn6zN3nWZs+kbIfzNk1HGpf1zJs2tC1/6uqDBUnWk47eXPAwSfT8rOC4zGpNf33gxcv2dbHLE//0fdkaO7FYJnyoNTxkuCvCcp5+fHTinnlBnp41Wcd8HoVqPqkkxB9IDbQJABUbZZt4Rder93bUOiMkXRcEk7EvG0bua9rYTQoyfd19Ysrz89OT9bfm9qSkOdzt69r3qKGpsbExvbHiwnBj7cG44IsN3wzNLc6RvByWMG06dbj9SHPV9WvLrq3Zv9x87trmR4U6y4vFcqeCKxtdjNY+8IkZevTTaXop759sh7uBw26zD/zavfDCf30bmp+eTs8+P/7Ro8RlNV5+N2bmpTbl5zcl6tissSiW8p6vECcOiHZqxVfvceb9Q7jc50io/opYuTgHz6oqjPc4UdkzN337kehmekaN6U0N0Rcaa8/HQZsA+NxG1SaEYhU/0Y+v18qNQCgKJ3CkeH7/YOTUeWly1Knbtibo3OqlM91SIzvzHjsU+PZ1PYqZcvPmzJkzZuofnrJ0doooyKXhh4an2c9PE8xglunua2+7qjWPdYBgztUipjJWaV/d7p7FStvpPlTYp794z7VZS9xCH+lkSf7Or3kccuHBOcmvGjb1f7nQr2e8aMZMw2lVZ/XvOksxoaVpjcPl48dsNBOGOlMXOwrF+MhjEKWigwYlMTcPiv4h2N+3PaB2XoqYlPBOnA0NMHKs7NnTui06UN+YfqIzDfXcdLdatHHRD5UG2gSAio2mTSwEY3EyTunUX9B+HCyk341xB11aHzXfzIrlC63veOgxJ2vDBUG+/VeHDQ6azjYuv9BnFuXFZad43ve4Z3A/Qxi0IeDPQ081Xn0kpk1X1u09sn4TawvJtIkU22dObt5+73j4CaPCaPfLLBIVFmxN+NO3608QvyCVT9Zf6F1tnxPxzHtb59njJiI22/L2Jd2+2oNWlZMW6u2YZ8dHcctT7tH7Wp5ZSYiRx8El/M0XQ/J17qf9LLyhaFOsmJSzN2m1x9eeiHDKupkfuu6OnxWf7eS/Xy/P41Q3532bfr4AbQJAxUbVJnrkROB2k6YObO8sW+Q7a8HU3gsXfJY6c2SotOjSvc7hVN0dvgs8QjrqvS9li1k9exKi66un7ZlrlNcwHDPjXCw7aEfYtl7fjLrX25QyyX1wX98pdg7BfE1Q9pv3lBzq9Q3afCwxurzWfPVWj7yY+O9/iJxyxVbKD94wsC3helCs18GZJdH5WjfnXjRoCR0OWeogjTivN9BerrNoq+/Ce/HtrS5ZUrGyMKiYp3F8ykCF+5OIiNyyR0PT58TKSBlnt1Z9k8tsJ1J0e3LLcGT/9KVzPfoDhnsXHbTkw7pwAD630bWJqROLa+e49UxgRUdoR36IvnlQGopiKM6KcF6z8GxfYHpr9bqZ81dacimcH+F8pzYvtaSxZd30ZY4mXDnWvcn36J3MNEo5nlHACIF/7oba65v5MsXHahjGzti11OjinAh25bwlbompgYn3ps8/v/pmWfL0815itsOswz76p6xkrO7dc3X7W9PTE92M9/ul0fPhhJ+6OOVeQmp6b9+U6yeKBS/WNyEowo87OHet25LZlUXPXPbs9OcQOMG3XrX0sWsxhyB4bZvpJ9pb0li9fuY1x2LBRxzyHNoEgIqNtk00BMVYKeGXH+5csdI0jYUr35UojvHsK/17HDwtOQg97uDRS4AYKrK0dQhO8uIg+Mj56ng0xc1fQU/is/kjm0EqICw2R8RltvLmWiU59NjacTCcJfSK8xLSuUF5scXdTlwUxXFemkmNQ1FxCndk5vRjIJyIpGAH/0op89gjM1NAUJTHcYqLcxLxuK/sTEdPZvrF3FgQZ9vjl+3ExT44ZFKANgGgYmNoEw3BCFImk5HEq29khDmcAEUx5yRXTqHf/K9PQRgjF1+BKBvxwvOv6Tw9vzs9J2UFmSMfjISAvkRR1CvHFaBnNPJ479h4kp6XYnffl5svMM9Geen5E319X5ffAG0CQMXG1qavHrQJABVTizYxoxblwZteeOVQKIoxk3qFE9oEgIp9/jbRS1l8S+uVmUHB1jX+tuG2tuGeSUlJpiZeAhbzfkdYPI5TsYal6IPbHE0kaBMAKvbZ28Ss8vbaqdc0EJPa25qeHtPa25KQUF3dsu5oFEuCsRACS+u5dHjdVlOZOi1zQpsAUDE1GDehqMDz3Mln+68s06v46T8vHF56bePTHZN9NxUjMgLDSUIY/mSJzY0MkmQOsvTiMFEf/pxflaBNAKiYmqxvwjBcXMfJXFJ+tfqGoA7lCuxqnJ2DTbvDi2ztpMK27PAMAY6madgWO6VZJjkwV3lxRo6B8nlAmwBQMbVok2IrAkrGtr6U2FV9hb9FkoP2bNUKCQkJLEmdMt/V4pnBmWPdB3CL6dXrZk5f1xuT3pgeeMasII2HfK48QZsAUDH1aBMDJzlFlxIHA5dzcmSlPNepw3/74UKC3taDnp6bptUP6lv/+uNtnW/+7ZuuMPeNV65cTC7sWG/uiXzoeAGqAm0CQMXUrk0t+xVtmq2/7T87F/bwUTHZdm5afZdBza9bNut+89/26Zy35FIyp4M3K9q1zvHq3nVOggkAbQJAxdS1Ta5Tu34Ku5byS52M8jpY2xk9lW7TyrXff+Nzp1IuEYv54Xf62xNuxJIfvSX3+II2AaBi6tum9r+VXLI6ICOJthPTO6KZcZOFzqFB3UlWEolcwvbzDRz0uW8vhjYB8GVSqzYFm1Vv6x1Z3zTbYPAvYbNG2nSwNrRLn25T5tkf/p/Q2hNWPITtdyw5OsBoJSKBZToAvkxq1aaeuy1dIVdEB+g2Xa4t3Buy2kk5bgrt0rP+9ZfNut/+j7+1t2pOXmp8L7I+ZGmmFfrq0VYmErQJABVTnzZhBLv74N2Fs3q4MoLkJe1cMHl1kEBMEJjUNtdm5snKf+Rknr16KP3eA+/q1MAHHma3rXD8sz1jaBMAKqY+baLxuHw2e+RATjwul/v8QEs8rojDRkpJi8ODFcYHs+2SrJO8ROgrh2KZeNAmAFRMrdrEbIP5fFeUVw/1hKAogpaSWW5XC2fMjpXXjeJASyoCbQJAxdSrTb+BfqJ+kx/ozg+2/4yLci9AmwBQsd9Nm1gYKi32T4oQcj/rTr5K0CYAVOz30yYeCyVIUnk43s8N2gSAiv1+2qRWoE0AqBi0aUygTQCoGLRpTKBNAKgYtGlMoE0AqBi0aUygTQCoGLRpTKBNAKgYtGlMoE0AqBi0aUygTQCoGNOmp73QplFi2nQ9pDN1MbQJANWg22S9pyWyzBzaNBp0m8IXtIT2LoI2AaAaqIzIXn2rIuGuSZ0c2vTR0FKZ34yAC8kLdvlDmwBQBYTC2xyN8ysWeUKbRgGVYI5ah+qrTt6usYY2AaACCIZx4/b3RVfPL0Ylcgzy9BEQorSO4+ySfyF52WWHIr8gaBMAqoCQZOX+M4WFbmuShKi8NEcil4nBe8jkdTkHJEjb7YstnU3TVjnb1jg4BBVYQ5sAUAEUQzjhN2p9Ynq9NV3MbjzcddvZORO8zdnZ2eLE+TXXbdwDC7sCDs/KqikKDu6hhUdAmwBQBebASGzT3XPd+3pTU3tbQhLfFhLyrqmv+uAN1JPPqCQmtLQ2lqSWeVw/ZeFQVBRMj5p6/MIr07gotAkAlUBwsZzgeJkGbVqzzNfMbBl4B7Nll8xP5u4+eDnKOtzW2s+BURBlHSd8ftYFAIAqoDglIxF7O1Nb23BP8E7h4bb+NdbMgInWExQVVKRhJWLBoAkAlUN4bHsvk6Qih6AgZlUKeJ+gIAdr04w2KV9xzioAgKohCMrisgVCKfgAoYDNfXmiKgCA6tF9Ah8BwgQAAAAAAAAAAAAAAAAAAAAAAAAAAAAAAAAAAAAAAAAAAAAAAAAAAAAAAAAAAAAAAAAAAAAAnwmL9f8DqMCQdt4yr4gAAAAASUVORK5CYII=;" vertex="1" parent="1">
          <mxGeometry x="408" y="1186.25" width="1099.75" height="1055.91" as="geometry" />
        </mxCell>
        <mxCell id="yrRpt_WWClIDVjYxCRZ3-3" value="" style="edgeStyle=elbowEdgeStyle;elbow=horizontal;endArrow=classic;html=1;curved=0;rounded=0;endSize=8;startSize=8;entryX=0.123;entryY=0.593;entryDx=0;entryDy=0;entryPerimeter=0;" edge="1" parent="1" source="yrRpt_WWClIDVjYxCRZ3-2" target="yrRpt_WWClIDVjYxCRZ3-2">
          <mxGeometry width="50" height="50" relative="1" as="geometry">
            <mxPoint x="651" y="1958" as="sourcePoint" />
            <mxPoint x="701" y="1908" as="targetPoint" />
          </mxGeometry>
        </mxCell>
        <mxCell id="yrRpt_WWClIDVjYxCRZ3-5" value="" style="endArrow=classic;html=1;rounded=0;" edge="1" parent="1">
          <mxGeometry width="50" height="50" relative="1" as="geometry">
            <mxPoint x="223" y="2042" as="sourcePoint" />
            <mxPoint x="231" y="1814" as="targetPoint" />
          </mxGeometry>
        </mxCell>
      </root>
    </mxGraphModel>
  </diagram>
</mxfile>
